<svg width="16" height="16" viewBox="0 0 16 16" fill="none" xmlns="http://www.w3.org/2000/svg">
<path d="M14.4967 13.2492C13.5637 11.6423 12.0696 10.4371 10.3017 9.86526C11.1487 9.36131 11.8068 8.59326 12.1749 7.67906C12.5431 6.76487 12.6009 5.75509 12.3396 4.80482C12.0783 3.85456 11.5122 3.01636 10.7284 2.41898C9.9445 1.82159 8.98621 1.49805 8.00067 1.49805C7.01513 1.49805 6.05684 1.82159 5.27299 2.41898C4.48914 3.01636 3.92308 3.85456 3.66175 4.80482C3.40042 5.75509 3.45828 6.76487 3.82643 7.67906C4.19459 8.59326 4.85269 9.36131 5.69964 9.86526C3.93177 10.437 2.4377 11.6422 1.50473 13.249C1.46075 13.3251 1.43756 13.4113 1.4375 13.4991C1.43744 13.5869 1.4605 13.6732 1.50437 13.7492C1.54824 13.8253 1.61136 13.8885 1.68739 13.9324C1.76343 13.9763 1.84969 13.9994 1.9375 13.9994L14.0639 13.9996C14.1517 13.9996 14.238 13.9765 14.314 13.9325C14.3901 13.8886 14.4532 13.8254 14.4971 13.7494C14.5409 13.6733 14.564 13.587 14.5639 13.4992C14.5639 13.4114 14.5407 13.3252 14.4967 13.2492L14.4967 13.2492Z" fill="#949494"/>
</svg>
