<svg width="16" height="16" viewBox="0 0 16 16" fill="none" xmlns="http://www.w3.org/2000/svg">
<path d="M6.49999 12C6.43432 12.0001 6.36929 11.9872 6.30862 11.9621C6.24795 11.937 6.19285 11.9001 6.14647 11.8536L2.64647 8.35388C2.60004 8.30745 2.56321 8.25234 2.53808 8.19168C2.51294 8.13102 2.50001 8.066 2.5 8.00034C2.49999 7.93468 2.51292 7.86967 2.53804 7.809C2.56316 7.74834 2.59999 7.69322 2.64641 7.64679C2.69284 7.60035 2.74795 7.56352 2.80861 7.53839C2.86927 7.51326 2.93429 7.50032 2.99995 7.50031C3.06561 7.50031 3.13062 7.51323 3.19129 7.53835C3.25195 7.56348 3.30707 7.6003 3.35351 7.64672L6.49999 10.7929L13.1464 4.14676C13.2402 4.05309 13.3673 4.00051 13.4999 4.00055C13.6324 4.00059 13.7595 4.05326 13.8533 4.14698C13.947 4.24071 13.9997 4.36781 13.9997 4.50036C13.9998 4.6329 13.9472 4.76005 13.8536 4.85385L6.85357 11.8536C6.80718 11.9001 6.75206 11.937 6.69138 11.9621C6.63071 11.9872 6.56566 12.0001 6.49999 12Z" fill="#7FD400"/>
</svg>
