<svg width="16" height="16" viewBox="0 0 16 16" fill="none" xmlns="http://www.w3.org/2000/svg">
<path d="M7.9961 1.5C6.71052 1.5 5.45381 1.88122 4.38489 2.59545C3.31597 3.30968 2.48285 4.32484 1.99088 5.51256C1.49891 6.70028 1.37019 8.00721 1.62099 9.26809C1.8718 10.529 2.49086 11.6872 3.3999 12.5962C4.30894 13.5052 5.46713 14.1243 6.72801 14.3751C7.98889 14.6259 9.29582 14.4972 10.4835 14.0052C11.6713 13.5132 12.6864 12.6801 13.4006 11.6112C14.1149 10.5423 14.4961 9.28558 14.4961 8C14.4941 6.27669 13.8087 4.62452 12.5901 3.40596C11.3716 2.1874 9.71941 1.50195 7.9961 1.5ZM7.49561 3.50018C7.49561 3.36757 7.54829 3.2404 7.64206 3.14663C7.73582 3.05286 7.863 3.00018 7.99561 3.00018C8.12822 3.00018 8.25539 3.05286 8.34916 3.14663C8.44293 3.2404 8.49561 3.36757 8.49561 3.50018V7.25018C8.49561 7.38279 8.44293 7.50997 8.34916 7.60374C8.25539 7.6975 8.12822 7.75018 7.99561 7.75018C7.863 7.75018 7.73582 7.6975 7.64206 7.60374C7.54829 7.50997 7.49561 7.38279 7.49561 7.25018V3.50018ZM7.9961 13C6.92363 13.0002 5.87953 12.6555 5.01799 12.0169C4.15645 11.3782 3.52315 10.4793 3.21163 9.45311C2.90011 8.42689 2.92689 7.32768 3.288 6.31785C3.64912 5.30801 4.32543 4.44108 5.21704 3.84509C5.27157 3.80836 5.3328 3.78274 5.39724 3.7697C5.46168 3.75666 5.52805 3.75646 5.59257 3.7691C5.65708 3.78175 5.71847 3.80699 5.77322 3.84339C5.82797 3.87979 5.875 3.92662 5.91163 3.98122C5.94825 4.03582 5.97375 4.0971 5.98666 4.16156C5.99958 4.22602 5.99965 4.2924 5.98688 4.35689C5.97411 4.42138 5.94875 4.48272 5.91224 4.5374C5.87574 4.59208 5.82881 4.63902 5.77414 4.67554C5.06052 5.15227 4.51915 5.84589 4.22999 6.65392C3.94084 7.46196 3.91924 8.34157 4.16839 9.16283C4.41754 9.98409 4.92421 10.7034 5.61358 11.2146C6.30295 11.7258 7.13844 12.0017 7.99666 12.0016C8.85488 12.0015 9.6903 11.7253 10.3795 11.214C11.0688 10.7026 11.5752 9.9831 11.8242 9.16178C12.0731 8.34045 12.0512 7.46085 11.7619 6.65289C11.4725 5.84493 10.9309 5.15147 10.2172 4.67493C10.107 4.60108 10.0307 4.4865 10.0051 4.3564C9.97939 4.2263 10.0065 4.09133 10.0803 3.98119C10.1542 3.87104 10.2687 3.79475 10.3988 3.76908C10.5289 3.74341 10.6639 3.77048 10.7741 3.84433C11.6659 4.44014 12.3425 5.30702 12.7039 6.31689C13.0652 7.32677 13.0922 8.42609 12.7808 9.45246C12.4693 10.4788 11.8361 11.3778 10.9745 12.0166C10.1129 12.6555 9.06867 13.0002 7.9961 13Z" fill="#FF1A4B"/>
</svg>
