<svg width="17" height="16" viewBox="0 0 17 16" fill="none" xmlns="http://www.w3.org/2000/svg">
<path d="M10.25 5.75V5H9.5C9.23488 5.0003 8.9807 5.10576 8.79323 5.29323C8.60576 5.4807 8.5003 5.73488 8.5 6V10C8.5003 10.2651 8.60576 10.5193 8.79323 10.7068C8.9807 10.8942 9.23488 10.9997 9.5 11H10.25V10.25C10.2503 9.98488 10.3558 9.7307 10.5432 9.54323C10.7307 9.35576 10.9849 9.2503 11.25 9.25H13.75C14.0151 9.2503 14.2693 9.35576 14.4568 9.54323C14.6442 9.7307 14.7497 9.98488 14.75 10.25V12.75C14.7497 13.0151 14.6442 13.2693 14.4568 13.4568C14.2693 13.6442 14.0151 13.7497 13.75 13.75H11.25C10.9849 13.7497 10.7307 13.6442 10.5432 13.4568C10.3558 13.2693 10.2503 13.0151 10.25 12.75V12H9.5C8.96975 11.9994 8.46139 11.7885 8.08645 11.4135C7.71151 11.0386 7.5006 10.5302 7.5 10V8.5H5.75V9C5.7497 9.26512 5.64424 9.5193 5.45677 9.70677C5.2693 9.89424 5.01512 9.9997 4.75 10H2.75C2.48488 9.9997 2.2307 9.89424 2.04323 9.70677C1.85576 9.5193 1.7503 9.26512 1.75 9V7C1.7503 6.73488 1.85576 6.4807 2.04323 6.29323C2.2307 6.10576 2.48488 6.0003 2.75 6H4.75C5.01512 6.0003 5.2693 6.10576 5.45677 6.29323C5.64424 6.4807 5.7497 6.73488 5.75 7V7.5H7.5V6C7.5006 5.46975 7.71151 4.96139 8.08645 4.58645C8.46139 4.21151 8.96975 4.0006 9.5 4H10.25V3.25C10.2503 2.98488 10.3558 2.7307 10.5432 2.54323C10.7307 2.35576 10.9849 2.2503 11.25 2.25H13.75C14.0151 2.2503 14.2693 2.35576 14.4568 2.54323C14.6442 2.7307 14.7497 2.98488 14.75 3.25V5.75C14.7497 6.01512 14.6442 6.2693 14.4568 6.45677C14.2693 6.64424 14.0151 6.7497 13.75 6.75H11.25C10.9849 6.7497 10.7307 6.64424 10.5432 6.45677C10.3558 6.2693 10.2503 6.01512 10.25 5.75Z" fill="#949494"/>
</svg>
