<svg width="24" height="24" viewBox="0 0 24 24" fill="none" xmlns="http://www.w3.org/2000/svg">
<path d="M17.6894 7.37132L18.7501 6.31066L19.8107 7.37132C19.9514 7.51197 20.1422 7.59099 20.3411 7.59099C20.54 7.59099 20.7308 7.51197 20.8714 7.37132C21.0121 7.23067 21.0911 7.0399 21.0911 6.84099C21.0911 6.64208 21.0121 6.45131 20.8714 6.31066L19.8107 5.25L20.8714 4.18934C21.0121 4.04869 21.0911 3.85792 21.0911 3.65901C21.0911 3.4601 21.0121 3.26933 20.8714 3.12868C20.7308 2.98803 20.54 2.90901 20.3411 2.90901C20.1422 2.90901 19.9514 2.98803 19.8107 3.12868L18.7501 4.18934L17.6894 3.12868C17.5488 2.98803 17.358 2.90901 17.1591 2.90901C16.9602 2.90901 16.7694 2.98803 16.6288 3.12868C16.4881 3.26933 16.4091 3.4601 16.4091 3.65901C16.4091 3.85792 16.4881 4.04869 16.6288 4.18934L17.6894 5.25L16.6288 6.31066C16.4881 6.45131 16.4091 6.64208 16.4091 6.84099C16.4091 7.0399 16.4881 7.23067 16.6288 7.37132C16.7694 7.51197 16.9602 7.59099 17.1591 7.59099C17.358 7.59099 17.5488 7.51197 17.6894 7.37132Z" fill="black"/>
<path d="M12.0945 2.25C13.2463 2.25 14.3729 2.54568 15.3706 3.09961C15.3327 3.22086 15.3064 3.34625 15.2937 3.47388L15.2842 3.65918C15.2842 4.1564 15.4819 4.63327 15.8335 4.98486L16.0986 5.25L15.8335 5.51514C15.5259 5.82277 15.3364 6.22636 15.2937 6.65552L15.2842 6.84082C15.2842 7.33809 15.4819 7.81488 15.8335 8.1665C16.1851 8.51813 16.6619 8.71582 17.1592 8.71582C17.6564 8.71579 18.1333 8.51811 18.4849 8.1665L18.75 7.90137L18.7537 7.90503C18.9535 9.11995 18.8193 10.3713 18.356 11.5217C17.8037 12.8929 16.8167 14.0449 15.5464 14.8008C18.1154 15.6317 20.2991 17.3542 21.7053 19.6523L21.8386 19.8765C21.9045 19.9904 21.9395 20.1199 21.9397 20.2515C21.9398 20.3832 21.9052 20.5131 21.8394 20.6272C21.7736 20.7412 21.6787 20.836 21.5647 20.9019C21.4507 20.9677 21.3213 21.0022 21.1897 21.0022H3C2.86839 21.0022 2.73899 20.9676 2.625 20.9019C2.51095 20.836 2.41614 20.7406 2.35034 20.6265C2.28463 20.5124 2.24991 20.3831 2.25 20.2515C2.25011 20.1198 2.28513 19.9904 2.35107 19.8765C3.75054 17.4663 5.99155 15.6584 8.64331 14.8008C7.37297 14.0449 6.386 12.8929 5.83374 11.5217C5.28151 10.1504 5.19419 8.63536 5.58618 7.20996C5.97819 5.78463 6.82744 4.5274 8.00317 3.63135C9.17888 2.73532 10.6163 2.25006 12.0945 2.25Z" fill="black"/>
</svg>
