<svg width="16" height="16" viewBox="0 0 16 16" fill="none" xmlns="http://www.w3.org/2000/svg">
<path d="M8 10.25C9.51878 10.25 10.75 9.01878 10.75 7.5C10.75 5.98122 9.51878 4.75 8 4.75C6.48122 4.75 5.25 5.98122 5.25 7.5C5.25 9.01878 6.48122 10.25 8 10.25Z" fill="#949494"/>
<path d="M13.5 2.5H2.5C2.23488 2.5003 1.9807 2.60576 1.79323 2.79323C1.60576 2.9807 1.5003 3.23488 1.5 3.5V12.5C1.5003 12.7651 1.60576 13.0193 1.79323 13.2068C1.9807 13.3942 2.23488 13.4997 2.5 13.5H13.5C13.7651 13.4997 14.0193 13.3942 14.2068 13.2068C14.3942 13.0193 14.4997 12.7651 14.5 12.5V3.5C14.4997 3.23488 14.3942 2.9807 14.2068 2.79323C14.0193 2.60576 13.7651 2.5003 13.5 2.5ZM13.5 12.5H12.5826C12.1674 11.5502 11.4673 10.7529 10.5792 10.2183C9.88384 10.8806 8.96032 11.25 8 11.25C7.03968 11.25 6.11616 10.8806 5.42078 10.2183C4.53267 10.7529 3.8326 11.5502 3.41736 12.5H2.5V3.5H13.5L13.5006 12.5L13.5 12.5Z" fill="#949494"/>
</svg>
