<svg width="16" height="14" viewBox="0 0 16 14" fill="none" xmlns="http://www.w3.org/2000/svg">
<path d="M7.19197 13.0669C7.30914 12.9497 7.37496 12.7908 7.37496 12.625C7.37496 12.4593 7.30914 12.3003 7.19197 12.1831L2.63387 7.62501H14.875C15.0408 7.62501 15.1997 7.55917 15.3169 7.44196C15.4342 7.32475 15.5 7.16577 15.5 7.00001C15.5 6.83425 15.4342 6.67528 15.3169 6.55807C15.1997 6.44086 15.0408 6.37501 14.875 6.37501H2.63387L7.19197 1.81695C7.30918 1.69973 7.37502 1.54075 7.37501 1.37499C7.37501 1.20922 7.30915 1.05025 7.19193 0.933043C7.07471 0.815835 6.91574 0.749993 6.74997 0.75C6.58421 0.750007 6.42524 0.815864 6.30803 0.933082L0.683029 6.55808C0.680988 6.5601 0.67931 6.56235 0.677307 6.56441C0.664963 6.57708 0.652988 6.59009 0.641754 6.60374C0.635479 6.61137 0.630005 6.61946 0.624149 6.62732C0.617821 6.63579 0.611237 6.6441 0.605321 6.65292C0.599237 6.66199 0.593954 6.67145 0.588384 6.6808C0.58352 6.68896 0.57839 6.69694 0.57387 6.70537C0.568853 6.71475 0.56458 6.72444 0.56006 6.73401C0.555841 6.74294 0.551401 6.75172 0.547605 6.76083C0.54379 6.77006 0.540701 6.77952 0.537344 6.78891C0.533796 6.79875 0.53002 6.80852 0.526967 6.81859C0.524145 6.82793 0.522066 6.83743 0.519681 6.84689C0.517087 6.85719 0.514188 6.86742 0.512109 6.87791C0.509954 6.88882 0.508657 6.89981 0.507093 6.91075C0.505777 6.91998 0.504022 6.92903 0.503109 6.93833C0.501088 6.95885 0.5 6.97941 0.5 7.00001C0.5 7.02061 0.501088 7.04118 0.503109 7.0617C0.504024 7.07101 0.505779 7.08005 0.507093 7.08928C0.508655 7.10022 0.509954 7.11121 0.512109 7.12212C0.514188 7.13261 0.517087 7.14283 0.519681 7.15314C0.522066 7.1626 0.524145 7.1721 0.526967 7.18144C0.53002 7.19151 0.533796 7.20128 0.537344 7.21112C0.540703 7.2205 0.54379 7.22996 0.547605 7.2392C0.551401 7.24831 0.555844 7.25709 0.56006 7.26601C0.56458 7.27559 0.568853 7.28528 0.57387 7.29466C0.57839 7.30309 0.58352 7.31107 0.588384 7.31923C0.593954 7.32857 0.599237 7.33803 0.605321 7.34711C0.611234 7.35593 0.617815 7.36424 0.624149 7.37271C0.630009 7.38057 0.635477 7.38866 0.641754 7.39629C0.653179 7.41021 0.665367 7.42345 0.677955 7.43634C0.67973 7.43814 0.681217 7.44015 0.683029 7.44195L6.30803 13.0669C6.36607 13.125 6.43497 13.171 6.51081 13.2024C6.58664 13.2339 6.66792 13.25 6.75 13.25C6.83208 13.25 6.91336 13.2339 6.98919 13.2024C7.06503 13.171 7.13393 13.125 7.19197 13.0669Z" fill="black"/>
</svg>
