<svg width="16" height="16" viewBox="0 0 16 16" fill="none" xmlns="http://www.w3.org/2000/svg">
<path d="M8.64642 12.8536C8.55269 12.7598 8.50003 12.6326 8.50003 12.5C8.50003 12.3674 8.55269 12.2402 8.64642 12.1465L12.2929 8.50001H2.5C2.36739 8.50001 2.24021 8.44733 2.14645 8.35357C2.05268 8.2598 2 8.13262 2 8.00001C2 7.8674 2.05268 7.74023 2.14645 7.64646C2.24021 7.55269 2.36739 7.50001 2.5 7.50001H12.2929L8.64642 3.85356C8.6 3.80713 8.56317 3.752 8.53804 3.69134C8.51292 3.63067 8.49999 3.56565 8.49999 3.49999C8.49999 3.43433 8.51293 3.36931 8.53806 3.30865C8.56319 3.24798 8.60002 3.19286 8.64645 3.14643C8.69289 3.10001 8.74801 3.06318 8.80867 3.03805C8.86934 3.01293 8.93436 3 9.00002 3C9.06568 3 9.1307 3.01294 9.19137 3.03807C9.25203 3.0632 9.30715 3.10003 9.35358 3.14647L13.8536 7.64647C13.8552 7.64808 13.8566 7.64988 13.8582 7.65153C13.868 7.66166 13.8776 7.67207 13.8866 7.68299C13.8916 7.6891 13.896 7.69557 13.9007 7.70186C13.9057 7.70863 13.911 7.71528 13.9157 7.72233C13.9206 7.7296 13.9248 7.73716 13.9293 7.74464C13.9332 7.75117 13.9373 7.75755 13.9409 7.76429C13.9449 7.7718 13.9483 7.77955 13.952 7.78721C13.9553 7.79435 13.9589 7.80137 13.9619 7.80867C13.965 7.81605 13.9674 7.82362 13.9701 7.83113C13.973 7.839 13.976 7.84681 13.9784 7.85487C13.9807 7.86235 13.9823 7.86995 13.9843 7.87751C13.9863 7.88575 13.9886 7.89393 13.9903 7.90233C13.992 7.91106 13.9931 7.91984 13.9943 7.9286C13.9954 7.93599 13.9968 7.94322 13.9975 7.95066C13.9991 7.96708 14 7.98353 14 8.00001C14 8.01649 13.9991 8.03294 13.9975 8.04936C13.9968 8.05681 13.9954 8.06404 13.9943 8.07142C13.9931 8.08018 13.992 8.08897 13.9903 8.0977C13.9886 8.10609 13.9863 8.11427 13.9843 8.12251C13.9823 8.13008 13.9807 8.13768 13.9784 8.14515C13.976 8.15321 13.973 8.16102 13.9701 8.1689C13.9674 8.1764 13.965 8.18397 13.9619 8.19136C13.9589 8.19865 13.9553 8.20567 13.952 8.21281C13.9483 8.22047 13.9449 8.22822 13.9409 8.23573C13.9373 8.24247 13.9332 8.24885 13.9293 8.25538C13.9248 8.26286 13.9206 8.27043 13.9157 8.27769C13.911 8.28474 13.9057 8.29139 13.9007 8.29817C13.896 8.30445 13.8916 8.31093 13.8866 8.31703C13.8775 8.32817 13.8677 8.33876 13.8576 8.34907C13.8562 8.35051 13.855 8.35212 13.8536 8.35356L9.35358 12.8536C9.30715 12.9 9.25202 12.9368 9.19136 12.962C9.13069 12.9871 9.06567 13 9 13C8.93433 13 8.86931 12.9871 8.80864 12.962C8.74798 12.9368 8.69285 12.9 8.64642 12.8536Z" fill="black"/>
</svg>
