<svg width="12" height="10" viewBox="0 0 12 10" fill="none" xmlns="http://www.w3.org/2000/svg">
<path d="M5.35358 9.85356C5.44731 9.75978 5.49997 9.63261 5.49997 9.50001C5.49997 9.36742 5.44731 9.24025 5.35358 9.14647L1.70709 5.50001H11.5C11.6326 5.50001 11.7598 5.44733 11.8536 5.35357C11.9473 5.2598 12 5.13262 12 5.00001C12 4.8674 11.9473 4.74023 11.8536 4.64646C11.7598 4.55269 11.6326 4.50001 11.5 4.50001H1.70709L5.35358 0.853558C5.44734 0.759783 5.50002 0.632601 5.50001 0.49999C5.50001 0.367378 5.44732 0.240201 5.35355 0.146435C5.25977 0.0526683 5.13259 -5.74143e-06 4.99998 4.69388e-10C4.86737 5.74237e-06 4.74019 0.0526909 4.64642 0.146465L0.146423 4.64647C0.144791 4.64808 0.143448 4.64988 0.141846 4.65153C0.131971 4.66166 0.122391 4.67207 0.113403 4.68299C0.108383 4.6891 0.104004 4.69557 0.0993195 4.70185C0.094257 4.70863 0.0889894 4.71528 0.0842569 4.72233C0.0793894 4.7296 0.0751632 4.73716 0.0707076 4.74464C0.0668163 4.75117 0.0627119 4.75755 0.0590956 4.76429C0.0550825 4.7718 0.0516643 4.77955 0.048048 4.78721C0.044673 4.79435 0.0411205 4.80137 0.0380843 4.80867C0.0350324 4.81605 0.0325607 4.82362 0.029875 4.83113C0.0270369 4.839 0.0240157 4.84681 0.0215738 4.85487C0.0193157 4.86235 0.0176524 4.86995 0.0157449 4.87751C0.0136699 4.88575 0.0113505 4.89393 0.00968742 4.90233C0.00796305 4.91105 0.00692561 4.91984 0.00567436 4.9286C0.00462124 4.93599 0.00321757 4.94322 0.00248694 4.95066C0.000870069 4.96708 0 4.98353 0 5.00001C0 5.01649 0.000870069 5.03294 0.00248694 5.04936C0.00321944 5.0568 0.00462311 5.06404 0.00567436 5.07142C0.00692436 5.08018 0.00796305 5.08897 0.00968742 5.0977C0.0113505 5.10609 0.0136699 5.11427 0.0157449 5.12251C0.0176524 5.13008 0.0193157 5.13768 0.0215738 5.14515C0.0240157 5.15321 0.0270369 5.16102 0.029875 5.1689C0.0325625 5.1764 0.0350324 5.18397 0.0380843 5.19136C0.0411205 5.19865 0.0446755 5.20567 0.048048 5.21281C0.0516643 5.22047 0.0550825 5.22822 0.0590956 5.23573C0.0627119 5.24247 0.0668163 5.24885 0.0707076 5.25538C0.0751632 5.26286 0.0793894 5.27043 0.0842569 5.27769C0.0889875 5.28474 0.094252 5.29139 0.0993195 5.29817C0.104007 5.30445 0.108382 5.31092 0.113403 5.31703C0.122543 5.32817 0.132294 5.33876 0.142364 5.34907C0.143784 5.35051 0.144974 5.35212 0.146423 5.35356L4.64642 9.85356C4.69285 9.89999 4.74798 9.93682 4.80864 9.96196C4.86931 9.98709 4.93433 10 5 10C5.06567 10 5.13069 9.98709 5.19136 9.96196C5.25202 9.93682 5.30715 9.89999 5.35358 9.85356Z" fill="black"/>
</svg>
