<svg width="15" height="10" viewBox="0 0 15 10" fill="none" xmlns="http://www.w3.org/2000/svg">
<path d="M5.12499 10C5.0429 10.0001 4.96161 9.984 4.88577 9.95259C4.80994 9.92118 4.74106 9.87509 4.68309 9.81697L0.308093 5.44232C0.250052 5.38429 0.20401 5.31539 0.172595 5.23957C0.14118 5.16374 0.125007 5.08247 0.125 5.0004C0.124993 4.91833 0.141152 4.83705 0.172554 4.76122C0.203956 4.68539 0.249986 4.61649 0.308016 4.55845C0.366047 4.50041 0.434941 4.45437 0.510765 4.42295C0.586589 4.39154 0.667859 4.37537 0.749933 4.37536C0.832008 4.37535 0.91328 4.39151 0.989109 4.42291C1.06494 4.45431 1.13384 4.50034 1.19188 4.55838L5.12499 8.49114L13.433 0.183414C13.5503 0.0663378 13.7092 0.000602539 13.8749 0.000656161C14.0405 0.000709782 14.1994 0.066548 14.3166 0.1837C14.4338 0.300851 14.4996 0.45973 14.4997 0.625414C14.4997 0.791099 14.434 0.950031 14.317 1.06728L5.56696 9.81697C5.50897 9.87508 5.44007 9.92116 5.36423 9.95257C5.28838 9.98398 5.20708 10.0001 5.12499 10Z" fill="black"/>
</svg>
