<svg width="24" height="24" viewBox="0 0 24 24" fill="none" xmlns="http://www.w3.org/2000/svg">
<path d="M18.4807 6.24423C17.255 4.29224 15.6767 2.61838 14.2945 1.23859C14.2096 1.15378 14.1056 1.0906 13.9912 1.05434C13.8768 1.01808 13.7553 1.0098 13.6371 1.03021C13.5188 1.05062 13.4072 1.09911 13.3115 1.17161C13.2159 1.24411 13.1391 1.33851 13.0875 1.44687L10.1953 7.52057L7.1694 5.5033C7.08733 5.44858 6.99528 5.41058 6.8985 5.3915C6.80173 5.37241 6.70214 5.3726 6.60544 5.39206C6.50874 5.41152 6.41683 5.44986 6.33498 5.50489C6.25312 5.55993 6.18292 5.63057 6.1284 5.71277C4.30138 8.46695 3.375 10.9608 3.375 13.1251C3.375 15.4126 4.2837 17.6064 5.9012 19.2239C7.51871 20.8414 9.71251 21.7501 12 21.7501C14.2875 21.7501 16.4813 20.8414 18.0988 19.2239C19.7163 17.6064 20.625 15.4126 20.625 13.1251C20.625 10.7928 19.9236 8.54202 18.4807 6.24423ZM17.5589 13.9895C17.3798 15.1705 16.8276 16.2633 15.9829 17.108C15.1383 17.9526 14.0456 18.5049 12.8645 18.684C12.8263 18.6898 12.7878 18.6928 12.7491 18.6928C12.5602 18.6926 12.3784 18.6211 12.2399 18.4926C12.1015 18.3641 12.0166 18.1881 12.0022 17.9997C11.9879 17.8114 12.0451 17.6246 12.1625 17.4766C12.28 17.3286 12.4489 17.2304 12.6356 17.2015C13.498 17.0626 14.2947 16.6553 14.9125 16.0375C15.5302 15.4198 15.9375 14.6231 16.0764 13.7606C16.0915 13.6633 16.1255 13.5699 16.1766 13.4857C16.2278 13.4015 16.295 13.3282 16.3744 13.27C16.4539 13.2118 16.544 13.1698 16.6397 13.1465C16.7354 13.1231 16.8347 13.1188 16.9321 13.1339C17.0294 13.1489 17.1228 13.1829 17.207 13.2341C17.2912 13.2852 17.3645 13.3524 17.4227 13.4319C17.4809 13.5113 17.5229 13.6015 17.5462 13.6971C17.5696 13.7928 17.5739 13.8922 17.5588 13.9895H17.5589Z" fill="black"/>
</svg>
