<svg width="12" height="10" viewBox="0 0 12 10" fill="none" xmlns="http://www.w3.org/2000/svg">
<path d="M6.64642 9.85356C6.55269 9.75978 6.50003 9.63261 6.50003 9.50001C6.50003 9.36742 6.55269 9.24025 6.64642 9.14647L10.2929 5.50001H0.5C0.367392 5.50001 0.240215 5.44733 0.146447 5.35357C0.0526785 5.2598 0 5.13262 0 5.00001C0 4.8674 0.0526785 4.74023 0.146447 4.64646C0.240215 4.55269 0.367392 4.50001 0.5 4.50001H10.2929L6.64642 0.853558C6.6 0.807125 6.56317 0.752003 6.53804 0.691338C6.51292 0.630673 6.49999 0.565652 6.49999 0.49999C6.49999 0.434328 6.51293 0.369309 6.53806 0.308645C6.56319 0.247982 6.60002 0.192863 6.64645 0.146435C6.69289 0.100006 6.74801 0.0631783 6.80867 0.038053C6.86934 0.0129277 6.93436 -2.84462e-06 7.00002 4.69397e-10C7.06568 2.84556e-06 7.1307 0.0129389 7.19137 0.0380695C7.25203 0.0632 7.30715 0.100033 7.35358 0.146466L11.8536 4.64647C11.8552 4.64808 11.8566 4.64988 11.8582 4.65153C11.868 4.66166 11.8776 4.67207 11.8866 4.68299C11.8916 4.6891 11.896 4.69557 11.9007 4.70186C11.9057 4.70863 11.911 4.71528 11.9157 4.72233C11.9206 4.7296 11.9248 4.73716 11.9293 4.74464C11.9332 4.75117 11.9373 4.75755 11.9409 4.76429C11.9449 4.7718 11.9483 4.77955 11.952 4.78721C11.9553 4.79435 11.9589 4.80137 11.9619 4.80867C11.965 4.81605 11.9674 4.82362 11.9701 4.83113C11.973 4.839 11.976 4.84681 11.9784 4.85487C11.9807 4.86235 11.9823 4.86995 11.9843 4.87751C11.9863 4.88575 11.9886 4.89393 11.9903 4.90233C11.992 4.91106 11.9931 4.91984 11.9943 4.9286C11.9954 4.93599 11.9968 4.94322 11.9975 4.95066C11.9991 4.96708 12 4.98353 12 5.00001C12 5.01649 11.9991 5.03294 11.9975 5.04936C11.9968 5.05681 11.9954 5.06404 11.9943 5.07142C11.9931 5.08018 11.992 5.08897 11.9903 5.0977C11.9886 5.10609 11.9863 5.11427 11.9843 5.12251C11.9823 5.13008 11.9807 5.13768 11.9784 5.14515C11.976 5.15321 11.973 5.16102 11.9701 5.1689C11.9674 5.1764 11.965 5.18397 11.9619 5.19136C11.9589 5.19865 11.9553 5.20567 11.952 5.21281C11.9483 5.22047 11.9449 5.22822 11.9409 5.23573C11.9373 5.24247 11.9332 5.24885 11.9293 5.25538C11.9248 5.26286 11.9206 5.27043 11.9157 5.27769C11.911 5.28474 11.9057 5.29139 11.9007 5.29817C11.896 5.30445 11.8916 5.31093 11.8866 5.31703C11.8775 5.32817 11.8677 5.33876 11.8576 5.34907C11.8562 5.35051 11.855 5.35212 11.8536 5.35356L7.35358 9.85356C7.30715 9.89999 7.25202 9.93682 7.19136 9.96196C7.13069 9.98709 7.06567 10 7 10C6.93433 10 6.86931 9.98709 6.80864 9.96196C6.74798 9.93682 6.69285 9.89999 6.64642 9.85356Z" fill="black"/>
</svg>
