<svg width="16" height="16" viewBox="0 0 16 16" fill="none" xmlns="http://www.w3.org/2000/svg">
<path d="M14.1086 6.72255C14.1169 6.7209 14.1249 6.71862 14.1331 6.71657C14.1408 6.71464 14.1485 6.71295 14.1561 6.71065C14.164 6.70826 14.1716 6.70529 14.1793 6.70252C14.187 6.69978 14.1948 6.69724 14.2023 6.69411C14.2094 6.69117 14.2162 6.68772 14.2231 6.68447C14.231 6.68076 14.239 6.67723 14.2467 6.67308C14.2531 6.66966 14.2592 6.66575 14.2654 6.66206C14.2732 6.65742 14.2811 6.65298 14.2887 6.64788C14.2952 6.64355 14.3013 6.63869 14.3075 6.63406C14.3144 6.62899 14.3214 6.62419 14.328 6.61872C14.337 6.61134 14.3455 6.60334 14.3539 6.59536C14.3574 6.59209 14.3611 6.58921 14.3645 6.58582C14.368 6.58229 14.371 6.57845 14.3744 6.57484C14.3822 6.56654 14.3901 6.55826 14.3973 6.54944C14.403 6.54252 14.408 6.53524 14.4133 6.52809C14.4177 6.52211 14.4223 6.51634 14.4265 6.51016C14.4318 6.50225 14.4364 6.49405 14.4412 6.48591C14.4447 6.48001 14.4484 6.47427 14.4517 6.46822C14.456 6.46014 14.4597 6.45185 14.4635 6.4436C14.4666 6.43701 14.4699 6.43056 14.4727 6.42381C14.476 6.4159 14.4787 6.40783 14.4815 6.3998C14.4841 6.39241 14.487 6.38514 14.4893 6.3776C14.4917 6.36954 14.4935 6.36136 14.4955 6.35321C14.4975 6.34552 14.4996 6.33795 14.5012 6.33013C14.5031 6.32066 14.5042 6.3111 14.5055 6.30156C14.5065 6.29494 14.5077 6.28844 14.5084 6.28173C14.5101 6.26518 14.5109 6.24856 14.5109 6.23192V3.23224C14.5109 3.09963 14.4582 2.97245 14.3644 2.87869C14.2707 2.78492 14.1435 2.73224 14.0109 2.73224C13.8783 2.73224 13.7511 2.78492 13.6573 2.87869C13.5636 2.97245 13.5109 3.09963 13.5109 3.23224V5.02509L12.2431 3.75732C11.117 2.63379 9.59121 2.00281 8.00046 2.00281C6.40971 2.00281 4.88391 2.63379 3.75778 3.75732C3.66401 3.8511 3.61133 3.97828 3.61133 4.1109C3.61133 4.24352 3.66401 4.3707 3.75778 4.46448C3.85156 4.55825 3.97874 4.61093 4.11136 4.61093C4.24398 4.61093 4.37116 4.55825 4.46494 4.46448C5.40333 3.52814 6.67483 3.00229 8.00046 3.00229C9.32609 3.00229 10.5976 3.52814 11.536 4.46448L12.8037 5.73224H11.0109C10.8783 5.73224 10.7511 5.78492 10.6573 5.87869C10.5636 5.97245 10.5109 6.09963 10.5109 6.23224C10.5109 6.36485 10.5636 6.49202 10.6573 6.58579C10.7511 6.67956 10.8783 6.73224 11.0109 6.73224H14.0109C14.0274 6.73224 14.0438 6.73136 14.0602 6.72974C14.0676 6.72902 14.0748 6.72764 14.0821 6.7266C14.0909 6.72533 14.0998 6.72429 14.1086 6.72255Z" fill="black"/>
<path d="M11.5362 11.5355C10.5978 12.4719 9.3263 12.9977 8.00067 12.9977C6.67504 12.9977 5.40354 12.4719 4.46515 11.5355L3.19738 10.2678H4.99023C5.12284 10.2678 5.25002 10.2151 5.34378 10.1213C5.43755 10.0275 5.49023 9.90037 5.49023 9.76776C5.49023 9.63515 5.43755 9.50798 5.34378 9.41421C5.25002 9.32044 5.12284 9.26776 4.99023 9.26776H1.99023C1.98649 9.26776 1.98289 9.26824 1.97917 9.26832C1.9665 9.2686 1.95384 9.269 1.94122 9.27024C1.93258 9.27108 1.92419 9.27264 1.91569 9.27392C1.90806 9.27506 1.90039 9.27591 1.8928 9.27741C1.88372 9.27921 1.87492 9.28167 1.86602 9.28395C1.85913 9.28571 1.85217 9.28721 1.84532 9.28927C1.83685 9.29183 1.82865 9.29499 1.82037 9.29799C1.81323 9.30057 1.80604 9.30291 1.79901 9.30582C1.79153 9.30892 1.78434 9.31255 1.77705 9.316C1.76951 9.31955 1.76191 9.3229 1.75453 9.32685C1.74788 9.33042 1.74156 9.33448 1.73509 9.33833C1.72751 9.34284 1.71985 9.34714 1.71246 9.35209C1.70582 9.35652 1.6996 9.36149 1.69321 9.36623C1.68648 9.37121 1.67963 9.3759 1.67309 9.38126C1.66405 9.3887 1.65555 9.39676 1.64703 9.40481C1.64363 9.40803 1.64 9.41085 1.63666 9.41418C1.63313 9.41771 1.63014 9.42155 1.62674 9.42515C1.61891 9.43346 1.61104 9.44174 1.60379 9.45056C1.5981 9.45748 1.59309 9.46476 1.58783 9.47191C1.58342 9.47789 1.57878 9.48366 1.57465 9.48984C1.56933 9.49775 1.56471 9.50595 1.55991 9.51409C1.55643 9.51999 1.5527 9.52573 1.54945 9.53178C1.54514 9.53985 1.54144 9.54815 1.5376 9.55639C1.53451 9.56299 1.53122 9.56944 1.52841 9.57619C1.52514 9.58409 1.52247 9.59217 1.51962 9.6002C1.517 9.60759 1.51414 9.61486 1.51185 9.6224C1.50941 9.63046 1.50761 9.63864 1.50558 9.64679C1.50368 9.65448 1.50151 9.66205 1.49995 9.66987C1.49808 9.67934 1.49692 9.6889 1.49559 9.69844C1.49467 9.70506 1.49339 9.71156 1.49273 9.71826C1.49107 9.73482 1.49024 9.75144 1.49023 9.76808V12.7678C1.49023 12.9004 1.54291 13.0275 1.63668 13.1213C1.73045 13.2151 1.85763 13.2678 1.99023 13.2678C2.12284 13.2678 2.25002 13.2151 2.34379 13.1213C2.43756 13.0275 2.49023 12.9004 2.49023 12.7678V10.9749L3.758 12.2427C4.88412 13.3662 6.40992 13.9972 8.00067 13.9972C9.59142 13.9972 11.1172 13.3662 12.2433 12.2427C12.2898 12.1962 12.3266 12.1411 12.3517 12.0805C12.3769 12.0198 12.3898 11.9548 12.3898 11.8891C12.3898 11.8234 12.3769 11.7584 12.3517 11.6977C12.3266 11.6371 12.2898 11.582 12.2433 11.5355C12.1969 11.4891 12.1418 11.4523 12.0811 11.4271C12.0205 11.402 11.9554 11.3891 11.8898 11.3891C11.8241 11.3891 11.7591 11.402 11.6984 11.4271C11.6377 11.4523 11.5826 11.4891 11.5362 11.5355H11.5362Z" fill="black"/>
</svg>
