<svg width="20" height="20" viewBox="0 0 20 20" fill="none" xmlns="http://www.w3.org/2000/svg">
<path d="M10.0039 1.875C8.39694 1.875 6.82605 2.35152 5.4899 3.24431C4.15375 4.1371 3.11235 5.40605 2.49739 6.8907C1.88243 8.37535 1.72152 10.009 2.03503 11.5851C2.34853 13.1612 3.12237 14.6089 4.25867 15.7452C5.39497 16.8815 6.84271 17.6554 8.4188 17.9689C9.9949 18.2824 11.6286 18.1215 13.1132 17.5065C14.5979 16.8916 15.8668 15.8502 16.7596 14.514C17.6524 13.1779 18.1289 11.607 18.1289 10C18.1264 7.84588 17.2696 5.7807 15.7464 4.25751C14.2232 2.73431 12.158 1.87749 10.0039 1.875ZM14.3789 10.625H10.0039C9.92182 10.625 9.84053 10.6089 9.76468 10.5775C9.68883 10.5461 9.61991 10.5001 9.56186 10.442C9.50382 10.384 9.45778 10.3151 9.42639 10.2392C9.395 10.1634 9.37886 10.0821 9.37891 10V5.625C9.37891 5.45924 9.44476 5.30027 9.56197 5.18306C9.67918 5.06585 9.83815 5 10.0039 5C10.1697 5 10.3286 5.06585 10.4459 5.18306C10.5631 5.30027 10.6289 5.45924 10.6289 5.625V9.375H14.3789C14.5447 9.375 14.7036 9.44085 14.8209 9.55806C14.9381 9.67527 15.0039 9.83424 15.0039 10C15.0039 10.1658 14.9381 10.3247 14.8209 10.4419C14.7036 10.5592 14.5447 10.625 14.3789 10.625Z" fill="#949494"/>
</svg>
