<svg width="12" height="13" viewBox="0 0 12 13" fill="none" xmlns="http://www.w3.org/2000/svg">
<path d="M12.002 2.5C12.002 2.63261 11.9493 2.75978 11.8555 2.85355C11.7617 2.94732 11.6346 3 11.502 3H11.002V12C11.0016 12.2651 10.8962 12.5193 10.7087 12.7068C10.5213 12.8942 10.2671 12.9997 10.002 13H2.00195C1.73683 12.9997 1.48265 12.8942 1.29518 12.7068C1.10771 12.5193 1.00226 12.2651 1.00195 12V3H0.501953C0.369345 3 0.242168 2.94732 0.1484 2.85355C0.0546316 2.75979 0.00195312 2.63261 0.00195312 2.5C0.00195312 2.36739 0.0546316 2.24021 0.1484 2.14645C0.242168 2.05268 0.369345 2 0.501953 2H11.502C11.6346 2 11.7617 2.05268 11.8555 2.14645C11.9493 2.24022 12.002 2.36739 12.002 2.5ZM3.5022 1H8.5022C8.63481 1 8.76198 0.947322 8.85575 0.853553C8.94952 0.759785 9.0022 0.632608 9.0022 0.5C9.0022 0.367392 8.94952 0.240215 8.85575 0.146447C8.76198 0.0526784 8.63481 0 8.5022 0H3.5022C3.36959 0 3.24241 0.0526784 3.14864 0.146447C3.05488 0.240215 3.0022 0.367392 3.0022 0.5C3.0022 0.632608 3.05488 0.759785 3.14864 0.853553C3.24241 0.947322 3.36959 1 3.5022 1Z" fill="#FF1A4B"/>
</svg>
