<svg width="20" height="20" viewBox="0 0 20 20" fill="none" xmlns="http://www.w3.org/2000/svg">
<g clip-path="url(#clip0_387_13445)">
<circle cx="10" cy="10" r="10" fill="#203EFF"/>
<path fill-rule="evenodd" clip-rule="evenodd" d="M4.13451 1.89941L9.99911 7.76402L15.8637 1.89941C16.7219 2.52181 17.4774 3.27726 18.0998 4.13548L12.2352 10.0001L18.0998 15.8647C17.4774 16.7229 16.7219 17.4784 15.8637 18.1008L9.99911 12.2362L4.13451 18.1008C3.27629 17.4784 2.52084 16.7229 1.89844 15.8647L7.76304 10.0001L1.89844 4.13548C2.52084 3.27726 3.27629 2.52181 4.13451 1.89941Z" fill="white"/>
<path fill-rule="evenodd" clip-rule="evenodd" d="M3.85906 17.8927L10.6668 10.9999H8.889L2.91088 17.0528C3.20874 17.3521 3.52544 17.6328 3.85906 17.8927ZM17.9038 16.1266L12.7688 10.8888H11.0333L17.0943 17.0475C17.3824 16.7575 17.6528 16.4499 17.9038 16.1266ZM2.10547 3.8612L6.56036 8.33324H8.30821L2.92461 2.93328C2.63301 3.22525 2.35936 3.53515 2.10547 3.8612ZM17.0832 2.94061L11.3893 8.68046H9.77817L16.2298 2.17676C16.5287 2.41508 16.8137 2.67017 17.0832 2.94061Z" fill="#FF3F24"/>
<path fill-rule="evenodd" clip-rule="evenodd" d="M7.77778 0.247796V7.77778H0.247796C0.0856238 8.49247 0 9.23624 0 10C0 10.7638 0.0856238 11.5075 0.247796 12.2222H7.77778V19.7522C8.49247 19.9144 9.23624 20 10 20C10.7638 20 11.5075 19.9144 12.2222 19.7522V12.2222H19.7522C19.9144 11.5075 20 10.7638 20 10C20 9.23624 19.9144 8.49247 19.7522 7.77778H12.2222V0.247796C11.5075 0.0856238 10.7638 0 10 0C9.23624 0 8.49247 0.0856238 7.77778 0.247796Z" fill="white"/>
<path fill-rule="evenodd" clip-rule="evenodd" d="M8.33333 0.138264V8.33333H0.138264C0.0473313 8.87535 0 9.43215 0 10C0 10.5679 0.0473313 11.1247 0.138264 11.6667H8.33333V19.8617C8.87535 19.9527 9.43215 20 10 20C10.5679 20 11.1247 19.9527 11.6667 19.8617V11.6667H19.8617C19.9527 11.1247 20 10.5679 20 10C20 9.43215 19.9527 8.87535 19.8617 8.33333H11.6667V0.138264C11.1247 0.0473313 10.5679 0 10 0C9.43215 0 8.87535 0.0473313 8.33333 0.138264Z" fill="#FF3F24"/>
</g>
<defs>
<clipPath id="clip0_387_13445">
<rect width="20" height="20" fill="white"/>
</clipPath>
</defs>
</svg>
