<svg width="108" height="108" viewBox="0 0 108 108" fill="none" xmlns="http://www.w3.org/2000/svg">
<g filter="url(#filter0_d_297_12372)">
<rect x="30" y="28" width="48" height="48" rx="8" fill="#CAFD5D" shape-rendering="crispEdges"/>
<path d="M60.4807 46.2442C59.255 44.2922 57.6767 42.6184 56.2945 41.2386C56.2096 41.1538 56.1056 41.0906 55.9912 41.0543C55.8768 41.0181 55.7553 41.0098 55.6371 41.0302C55.5188 41.0506 55.4072 41.0991 55.3115 41.1716C55.2159 41.2441 55.1391 41.3385 55.0875 41.4469L52.1953 47.5206L49.1694 45.5033C49.0873 45.4486 48.9953 45.4106 48.8985 45.3915C48.8017 45.3724 48.7021 45.3726 48.6054 45.3921C48.5087 45.4115 48.4168 45.4499 48.335 45.5049C48.2531 45.5599 48.1829 45.6306 48.1284 45.7128C46.3014 48.4669 45.375 50.9608 45.375 53.1251C45.375 55.4126 46.2837 57.6064 47.9012 59.2239C49.5187 60.8414 51.7125 61.7501 54 61.7501C56.2875 61.7501 58.4813 60.8414 60.0988 59.2239C61.7163 57.6064 62.625 55.4126 62.625 53.1251C62.625 50.7928 61.9236 48.542 60.4807 46.2442ZM59.5589 53.9895C59.3798 55.1705 58.8276 56.2633 57.9829 57.108C57.1383 57.9526 56.0456 58.5049 54.8645 58.684C54.8263 58.6898 54.7878 58.6928 54.7491 58.6928C54.5602 58.6926 54.3784 58.6211 54.2399 58.4926C54.1015 58.3641 54.0166 58.1881 54.0022 57.9997C53.9879 57.8114 54.0451 57.6246 54.1625 57.4766C54.28 57.3286 54.4489 57.2304 54.6356 57.2015C55.498 57.0626 56.2947 56.6553 56.9125 56.0375C57.5302 55.4198 57.9375 54.6231 58.0764 53.7606C58.0915 53.6633 58.1255 53.5699 58.1766 53.4857C58.2278 53.4015 58.295 53.3282 58.3744 53.27C58.4539 53.2118 58.544 53.1698 58.6397 53.1465C58.7354 53.1231 58.8347 53.1188 58.9321 53.1339C59.0294 53.1489 59.1228 53.1829 59.207 53.2341C59.2912 53.2852 59.3645 53.3524 59.4227 53.4319C59.4809 53.5113 59.5229 53.6015 59.5462 53.6971C59.5696 53.7928 59.5739 53.8922 59.5588 53.9895H59.5589Z" fill="black"/>
</g>
<defs>
<filter id="filter0_d_297_12372" x="0" y="0" width="108" height="108" filterUnits="userSpaceOnUse" color-interpolation-filters="sRGB">
<feFlood flood-opacity="0" result="BackgroundImageFix"/>
<feColorMatrix in="SourceAlpha" type="matrix" values="0 0 0 0 0 0 0 0 0 0 0 0 0 0 0 0 0 0 127 0" result="hardAlpha"/>
<feOffset dy="2"/>
<feGaussianBlur stdDeviation="15"/>
<feComposite in2="hardAlpha" operator="out"/>
<feColorMatrix type="matrix" values="0 0 0 0 0.792157 0 0 0 0 0.992157 0 0 0 0 0.364706 0 0 0 0.3 0"/>
<feBlend mode="normal" in2="BackgroundImageFix" result="effect1_dropShadow_297_12372"/>
<feBlend mode="normal" in="SourceGraphic" in2="effect1_dropShadow_297_12372" result="shape"/>
</filter>
</defs>
</svg>
