<svg width="20" height="20" viewBox="0 0 20 20" fill="none" xmlns="http://www.w3.org/2000/svg">
<path d="M15.4026 5.20349C14.3811 3.57682 13.0659 2.18194 11.914 1.03211C11.8433 0.961444 11.7566 0.908789 11.6613 0.878572C11.5659 0.848355 11.4647 0.841461 11.3662 0.858467C11.2676 0.875473 11.1746 0.915883 11.0949 0.976302C11.0152 1.03672 10.9512 1.11539 10.9082 1.20568L8.49801 6.2671L5.97646 4.58604C5.90807 4.54044 5.83135 4.50878 5.75071 4.49287C5.67006 4.47697 5.58707 4.47713 5.50649 4.49334C5.42591 4.50956 5.34931 4.54151 5.2811 4.58737C5.21288 4.63323 5.15439 4.6921 5.10896 4.7606C3.58643 7.05575 2.81445 9.13399 2.81445 10.9375C2.81445 12.8438 3.57171 14.6719 4.91962 16.0198C6.26754 17.3678 8.09571 18.125 10.002 18.125C11.9082 18.125 13.7364 17.3678 15.0843 16.0198C16.4322 14.6719 17.1895 12.8438 17.1895 10.9375C17.1895 8.99392 16.605 7.11831 15.4026 5.20349ZM14.6343 11.6579C14.4851 12.6421 14.0249 13.5527 13.3211 14.2566C12.6172 14.9605 11.7066 15.4207 10.7224 15.5699C10.6906 15.5748 10.6584 15.5773 10.6262 15.5773C10.4688 15.5771 10.3173 15.5175 10.2019 15.4105C10.0865 15.3034 10.0158 15.1567 10.0038 14.9997C9.99185 14.8428 10.0396 14.6871 10.1374 14.5638C10.2352 14.4405 10.376 14.3586 10.5316 14.3346C11.2503 14.2188 11.9142 13.8793 12.429 13.3646C12.9438 12.8498 13.2832 12.1859 13.399 11.4671C13.4115 11.386 13.4399 11.3082 13.4825 11.238C13.5251 11.1679 13.5811 11.1068 13.6473 11.0583C13.7135 11.0098 13.7887 10.9748 13.8684 10.9554C13.9481 10.9359 14.0309 10.9323 14.112 10.9448C14.1931 10.9574 14.271 10.9857 14.3411 11.0283C14.4113 11.071 14.4723 11.127 14.5208 11.1932C14.5694 11.2594 14.6043 11.3345 14.6238 11.4142C14.6433 11.494 14.6469 11.5768 14.6343 11.6579H14.6343Z" fill="#949494"/>
</svg>
