<svg width="16" height="16" viewBox="0 0 16 16" fill="none" xmlns="http://www.w3.org/2000/svg">
<path d="M7.48597 13.4251C7.47012 13.4889 7.44185 13.5489 7.40279 13.6017C7.36372 13.6545 7.31461 13.699 7.25829 13.7328C7.20197 13.7666 7.13953 13.789 7.07455 13.7986C7.00958 13.8082 6.94334 13.8049 6.87964 13.7889L4.99592 13.318C4.84309 13.2796 4.70143 13.2058 4.58234 13.1026L3.17292 11.8774C3.07283 11.7904 3.0114 11.6672 3.00214 11.5349C2.99288 11.4027 3.03655 11.2721 3.12354 11.172C3.21054 11.0719 3.33372 11.0105 3.46601 11.0012C3.59829 10.992 3.72884 11.0356 3.82893 11.1226L5.23847 12.3479L7.1222 12.8188C7.1859 12.8347 7.24584 12.863 7.2986 12.9021C7.35136 12.9412 7.3959 12.9903 7.42968 13.0466C7.46346 13.1029 7.48582 13.1653 7.49548 13.2303C7.50514 13.2952 7.5019 13.3614 7.48597 13.4251ZM15.7736 7.47225C15.7331 7.59877 15.6676 7.71588 15.581 7.81663C15.4944 7.91738 15.3884 7.99972 15.2694 8.05877L13.8152 8.7859L12.881 9.87874C12.8777 9.88255 12.8742 9.88607 12.8708 9.88978C12.8677 9.89317 12.8647 9.89652 12.8615 9.8998C12.8591 9.90229 12.8569 9.90496 12.8545 9.9074L10.5547 12.2073C10.3661 12.3947 10.1111 12.4998 9.84528 12.4998C9.76428 12.4998 9.68358 12.4899 9.60499 12.4702L5.98267 11.5647C5.84672 11.5309 5.71944 11.4687 5.6092 11.3823L2.23243 8.74179L0.732428 7.99178C0.613659 7.93238 0.507909 7.84992 0.421349 7.74922C0.334788 7.64851 0.269151 7.53157 0.228266 7.40523C0.187382 7.27888 0.172068 7.14566 0.18322 7.01334C0.194372 6.88101 0.231766 6.75223 0.293219 6.63451L1.83027 3.69094C1.95257 3.45947 2.16037 3.28486 2.40945 3.20426C2.65853 3.12366 2.92923 3.14344 3.16395 3.25939L4.56238 3.9586L7.60438 3.07177C7.83352 3.00505 8.07897 3.0224 8.29645 3.12069L10.3588 4.05386H11.3829L12.838 3.32638C13.0727 3.21034 13.3434 3.19052 13.5925 3.27113C13.8416 3.35175 14.0494 3.52642 14.1716 3.75796L15.7086 6.70147C15.7705 6.81906 15.8081 6.94787 15.8193 7.08027C15.8304 7.21267 15.8149 7.34597 15.7736 7.47225ZM11.7336 9.61405L9.7555 8.17544L9.25092 8.55385C8.81735 8.87644 8.29134 9.05067 7.75092 9.05067C7.21051 9.05067 6.68449 8.87644 6.25092 8.55385L5.91212 8.29976C5.7975 8.2138 5.7027 8.10421 5.63413 7.97842C5.56555 7.85263 5.52481 7.71358 5.51465 7.57067C5.5045 7.42776 5.52516 7.28434 5.57526 7.15011C5.62535 7.01589 5.7037 6.894 5.805 6.79268L8.25092 4.34676C8.28666 4.31156 8.32496 4.27907 8.36551 4.24954L7.88428 4.03179L4.83906 4.91956L3.13682 8.17952L6.22523 10.5946L9.84754 11.5001L11.7336 9.61405ZM12.9013 8.31595L11.1979 5.05385H10.2523L10.2506 5.05398C10.2498 5.05398 10.2491 5.05386 10.2483 5.05385H8.95801L6.51215 7.49978L6.8509 7.75387C7.11105 7.94741 7.42667 8.05194 7.75092 8.05194C8.07518 8.05194 8.39079 7.94741 8.65095 7.75387L9.45093 7.15386C9.53646 7.08969 9.64032 7.05464 9.74724 7.05385C9.85417 7.05307 9.95852 7.08659 10.045 7.1495L12.4212 8.87764L12.9013 8.31595Z" fill="#949494"/>
</svg>
