<svg width="16" height="16" viewBox="0 0 16 16" fill="none" xmlns="http://www.w3.org/2000/svg">
<path d="M11.002 2.00123C10.4199 2.00023 9.84559 2.13507 9.32479 2.39503C8.80399 2.65499 8.35103 3.0329 8.00195 3.49869C7.52918 2.86966 6.87057 2.40522 6.11931 2.1711C5.36805 1.93698 4.56219 1.94504 3.81576 2.19413C3.06934 2.44322 2.42014 2.92073 1.96003 3.55909C1.49993 4.19745 1.25222 4.96433 1.25195 5.75123C1.25195 10.2427 7.492 13.7887 7.75763 13.9375C7.83228 13.9793 7.9164 14.0012 8.00195 14.0012C8.08751 14.0012 8.17163 13.9793 8.24628 13.9375C9.39394 13.2653 10.4711 12.4794 11.4614 11.5916C13.6448 9.62653 14.752 7.66153 14.752 5.75123C14.7508 4.75701 14.3554 3.80384 13.6524 3.10082C12.9493 2.3978 11.9962 2.00235 11.002 2.00123Z" fill="#FF2D65"/>
</svg>
