<svg width="20" height="20" viewBox="0 0 20 20" fill="none" xmlns="http://www.w3.org/2000/svg">
<path d="M17.5055 3.08832C17.4965 2.93552 17.4318 2.79132 17.3235 2.68308C17.2153 2.57485 17.0711 2.51009 16.9183 2.50109C10.9563 2.1501 6.18266 3.94774 4.14702 7.30887C3.44123 8.46122 3.09357 9.79723 3.14814 11.1474C3.19257 12.3941 3.5562 13.6525 4.22814 14.8946L12.0647 7.05809C12.1819 6.941 12.3408 6.87526 12.5065 6.87531C12.6722 6.87536 12.8311 6.94121 12.9482 7.05837C13.0654 7.17553 13.1312 7.33441 13.1313 7.5001C13.1314 7.66579 13.0656 7.82472 12.9485 7.94196L5.11203 15.7785C6.35413 16.4504 7.61253 16.814 8.85917 16.8585C8.94645 16.8616 9.03315 16.8631 9.11975 16.8631C10.3824 16.8667 11.6211 16.5193 12.6977 15.8596C16.0589 13.824 17.8562 9.04959 17.5055 3.08832Z" fill="#949494"/>
<path d="M4.46995 15.3216C4.3847 15.1795 4.30454 15.0371 4.22743 14.8945L2.68894 16.433C2.57172 16.5502 2.50587 16.7092 2.50586 16.875C2.50585 17.0407 2.57169 17.1997 2.6889 17.3169C2.80611 17.4341 2.96508 17.5 3.13085 17.5C3.29661 17.5 3.45559 17.4342 3.57281 17.317L5.11131 15.7784C4.96878 15.7013 4.82639 15.6212 4.68433 15.5359C4.59635 15.4832 4.52272 15.4095 4.46995 15.3216Z" fill="#949494"/>
</svg>
