<svg width="20" height="20" viewBox="0 0 20 20" fill="none" xmlns="http://www.w3.org/2000/svg">
<path d="M13.7504 9.06245C13.7504 9.98955 13.4755 10.8958 12.9604 11.6667C12.4454 12.4375 11.7133 13.0383 10.8567 13.3931C10.0002 13.7479 9.05771 13.8407 8.14842 13.6599C7.23914 13.479 6.4039 13.0326 5.74834 12.377C5.09279 11.7215 4.64634 10.8862 4.46548 9.97693C4.28461 9.06765 4.37744 8.12515 4.73222 7.26862C5.08701 6.41209 5.68782 5.68 6.45867 5.16493C7.22953 4.64986 8.13581 4.37495 9.06291 4.37495C10.3057 4.37636 11.4971 4.87067 12.3759 5.74944C13.2547 6.62821 13.749 7.81968 13.7504 9.06245ZM17.9419 17.942C17.8247 18.0592 17.6657 18.125 17.5 18.125C17.3342 18.125 17.1752 18.0592 17.058 17.942L13.6812 14.5652C12.2609 15.7576 10.4351 16.3557 8.58459 16.2347C6.73406 16.1138 5.00166 15.2831 3.74864 13.916C2.49563 12.5489 1.81874 10.7508 1.85913 8.8968C1.89952 7.04277 2.65408 5.2759 3.96545 3.96464C5.27682 2.65339 7.04375 1.89898 8.89779 1.85875C10.7518 1.81852 12.5498 2.49556 13.9168 3.7487C15.2839 5.00183 16.1144 6.73431 16.2351 8.58484C16.3559 10.4354 15.7577 12.2611 14.5651 13.6813L17.9419 17.0581C18.0591 17.1753 18.125 17.3343 18.125 17.5C18.125 17.6658 18.0591 17.8247 17.9419 17.942ZM9.06291 14.9999C10.2372 14.9999 11.3852 14.6517 12.3616 13.9993C13.338 13.3469 14.099 12.4196 14.5484 11.3346C14.9978 10.2497 15.1154 9.05586 14.8863 7.9041C14.6572 6.75234 14.0917 5.69437 13.2614 4.864C12.431 4.03363 11.373 3.46813 10.2213 3.23903C9.06949 3.00993 7.87566 3.12752 6.79072 3.57691C5.70579 4.02631 4.77848 4.78733 4.12606 5.76375C3.47364 6.74017 3.12541 7.88812 3.12541 9.06245C3.12719 10.6366 3.75332 12.1458 4.86643 13.2589C5.97954 14.372 7.48873 14.9982 9.06291 14.9999Z" fill="#949494"/>
</svg>
