<svg width="16" height="16" viewBox="0 0 16 16" fill="none" xmlns="http://www.w3.org/2000/svg">
<path d="M11.0007 7.25003C11.0007 7.99171 10.7808 8.71673 10.3687 9.33342C9.95667 9.9501 9.371 10.4307 8.68578 10.7146C8.00056 10.9984 7.24656 11.0727 6.51913 10.928C5.7917 10.7833 5.12351 10.4261 4.59907 9.90168C4.07462 9.37723 3.71747 8.70905 3.57277 7.98162C3.42808 7.25419 3.50234 6.50019 3.78617 5.81497C4.07 5.12974 4.55064 4.54407 5.16733 4.13202C5.78401 3.71996 6.50904 3.50003 7.25072 3.50003C8.24493 3.50116 9.19811 3.89661 9.90112 4.59962C10.6041 5.30264 10.9996 6.25581 11.0007 7.25003ZM14.3539 14.3536C14.2602 14.4474 14.133 14.5001 14.0004 14.5001C13.8677 14.5001 13.7406 14.4474 13.6468 14.3536L10.9453 11.6522C9.80911 12.6061 8.34848 13.0846 6.86806 12.9879C5.38764 12.8911 4.00172 12.2266 2.9993 11.1329C1.99689 10.0392 1.45538 8.60074 1.4877 7.11752C1.52001 5.63429 2.12366 4.22079 3.17275 3.17179C4.22184 2.12278 5.63539 1.51926 7.11862 1.48707C8.60185 1.45489 10.0403 1.99652 11.1339 2.99903C12.2275 4.00154 12.8919 5.38752 12.9885 6.86795C13.0851 8.34838 12.6065 9.80896 11.6525 10.9451L14.3539 13.6465C14.4477 13.7403 14.5004 13.8675 14.5004 14.0001C14.5004 14.1327 14.4477 14.2599 14.3539 14.3536ZM7.25072 12C8.19018 12 9.10854 11.7214 9.88968 11.1995C10.6708 10.6776 11.2796 9.93573 11.6391 9.06778C11.9987 8.19983 12.0927 7.24476 11.9094 6.32335C11.7262 5.40194 11.2738 4.55557 10.6095 3.89127C9.94518 3.22697 9.09881 2.77458 8.1774 2.5913C7.25599 2.40802 6.30092 2.50209 5.43297 2.8616C4.56502 3.22112 3.82317 3.82994 3.30124 4.61107C2.7793 5.39221 2.50072 6.31057 2.50072 7.25003C2.50214 8.50937 3.00304 9.71672 3.89353 10.6072C4.78402 11.4977 5.99138 11.9986 7.25072 12Z" fill="white"/>
</svg>
