<svg width="36" height="36" viewBox="0 0 36 36" fill="none" xmlns="http://www.w3.org/2000/svg">
<g filter="url(#filter0_d_297_12903)">
<rect x="2" y="1" width="32" height="32" rx="6" fill="black"/>
<path d="M21.0007 16.25C21.0007 16.9917 20.7808 17.7167 20.3687 18.3334C19.9567 18.9501 19.371 19.4307 18.6858 19.7146C18.0006 19.9984 17.2466 20.0727 16.5191 19.928C15.7917 19.7833 15.1235 19.4261 14.5991 18.9017C14.0746 18.3772 13.7175 17.709 13.5728 16.9816C13.4281 16.2542 13.5023 15.5002 13.7862 14.815C14.07 14.1297 14.5506 13.5441 15.1673 13.132C15.784 12.72 16.509 12.5 17.2507 12.5C18.2449 12.5012 19.1981 12.8966 19.9011 13.5996C20.6041 14.3026 20.9996 15.2558 21.0007 16.25ZM24.3539 23.3536C24.2602 23.4474 24.133 23.5001 24.0004 23.5001C23.8677 23.5001 23.7406 23.4474 23.6468 23.3536L20.9453 20.6522C19.8091 21.6061 18.3485 22.0846 16.8681 21.9879C15.3876 21.8911 14.0017 21.2266 12.9993 20.1329C11.9969 19.0392 11.4554 17.6007 11.4877 16.1175C11.52 14.6343 12.1237 13.2208 13.1727 12.1718C14.2218 11.1228 15.6354 10.5193 17.1186 10.4871C18.6019 10.4549 20.0403 10.9965 21.1339 11.999C22.2275 13.0015 22.8919 14.3875 22.9885 15.8679C23.0851 17.3484 22.6065 18.809 21.6525 19.9451L24.3539 22.6465C24.4477 22.7403 24.5004 22.8675 24.5004 23.0001C24.5004 23.1327 24.4477 23.2599 24.3539 23.3536ZM17.2507 21C18.1902 21 19.1085 20.7214 19.8897 20.1995C20.6708 19.6776 21.2796 18.9357 21.6391 18.0678C21.9987 17.1998 22.0927 16.2448 21.9094 15.3234C21.7262 14.4019 21.2738 13.5556 20.6095 12.8913C19.9452 12.227 19.0988 11.7746 18.1774 11.5913C17.256 11.408 16.3009 11.5021 15.433 11.8616C14.565 12.2211 13.8232 12.8299 13.3012 13.6111C12.7793 14.3922 12.5007 15.3106 12.5007 16.25C12.5021 17.5094 13.003 18.7167 13.8935 19.6072C14.784 20.4977 15.9914 20.9986 17.2507 21Z" fill="white"/>
</g>
<defs>
<filter id="filter0_d_297_12903" x="0" y="0" width="36" height="36" filterUnits="userSpaceOnUse" color-interpolation-filters="sRGB">
<feFlood flood-opacity="0" result="BackgroundImageFix"/>
<feColorMatrix in="SourceAlpha" type="matrix" values="0 0 0 0 0 0 0 0 0 0 0 0 0 0 0 0 0 0 127 0" result="hardAlpha"/>
<feOffset dy="1"/>
<feGaussianBlur stdDeviation="1"/>
<feColorMatrix type="matrix" values="0 0 0 0 0.129412 0 0 0 0 0.121569 0 0 0 0 0.133333 0 0 0 0.08 0"/>
<feBlend mode="multiply" in2="BackgroundImageFix" result="effect1_dropShadow_297_12903"/>
<feBlend mode="normal" in="SourceGraphic" in2="effect1_dropShadow_297_12903" result="shape"/>
</filter>
</defs>
</svg>
