<svg width="20" height="20" viewBox="0 0 20 20" fill="none" xmlns="http://www.w3.org/2000/svg">
<path d="M18.6914 7.61023C18.6133 7.36524 18.4633 7.14946 18.2608 6.99105C18.0583 6.83263 17.8127 6.73893 17.5561 6.72217L12.9162 6.39746L11.195 2.06336C11.1019 1.82374 10.9385 1.61786 10.7264 1.47268C10.5142 1.3275 10.2632 1.2498 10.0061 1.24976H10.0049C9.74818 1.25021 9.49761 1.32811 9.28592 1.47327C9.07422 1.61843 8.91126 1.82409 8.81833 2.06336L7.07151 6.42248L2.45725 6.72217C2.20068 6.73893 1.95512 6.83263 1.75261 6.99105C1.55009 7.14946 1.40003 7.36524 1.32199 7.61023C1.23967 7.85869 1.23407 8.12619 1.30592 8.37788C1.37777 8.62957 1.52374 8.8538 1.72483 9.02136L5.27463 12.0219L4.21872 16.1753C4.14594 16.4551 4.15933 16.7503 4.25712 17.0223C4.35492 17.2944 4.53257 17.5306 4.76682 17.7C4.99298 17.8645 5.26344 17.9572 5.54299 17.9659C5.82254 17.9746 6.09823 17.8989 6.3342 17.7488L9.99631 15.4288C10.0012 15.4252 10.0061 15.4227 10.0171 15.4288L13.9575 17.9252C14.1714 18.0618 14.4216 18.1308 14.6753 18.1229C14.9291 18.1151 15.1745 18.0309 15.3796 17.8812C15.5919 17.7278 15.7529 17.5139 15.8415 17.2674C15.9301 17.021 15.9423 16.7535 15.8764 16.5L14.7546 11.9626L18.2885 9.02136C18.4896 8.8538 18.6356 8.62957 18.7074 8.37788C18.7793 8.12619 18.7737 7.85869 18.6914 7.61023Z" fill="#949494"/>
</svg>
