<svg width="16" height="16" viewBox="0 0 16 16" fill="none" xmlns="http://www.w3.org/2000/svg">
<path d="M13.5 4H10.9996V3.5C10.9992 3.10232 10.841 2.72106 10.5598 2.43985C10.2786 2.15865 9.89738 2.00046 9.4997 2H6.49981C6.10213 2.00046 5.72088 2.15865 5.43968 2.43985C5.15849 2.72106 5.00032 3.10232 4.99987 3.5V4H2.50045C2.23533 4.00031 1.98116 4.10576 1.7937 4.29324C1.60623 4.48071 1.50079 4.73488 1.50049 5V9.99033C1.50043 9.99359 1.5 9.99673 1.5 10C1.5 10.0033 1.50043 10.0064 1.50049 10.0097V13C1.50079 13.2651 1.60623 13.5193 1.7937 13.7068C1.98116 13.8942 2.23533 13.9997 2.50045 14H13.5C13.7652 13.9997 14.0193 13.8942 14.2068 13.7068C14.3943 13.5193 14.4997 13.2651 14.5 13V5C14.4997 4.73488 14.3943 4.48071 14.2068 4.29324C14.0193 4.10576 13.7652 4.00031 13.5 4ZM5.99983 3.5C5.99998 3.36744 6.0527 3.24035 6.14644 3.14662C6.24017 3.05288 6.36725 3.00015 6.49981 3H9.4997C9.63226 3.00015 9.75934 3.05288 9.85308 3.14662C9.94681 3.24035 9.99953 3.36744 9.99968 3.5V4H5.99983V3.5ZM13.5 5L13.5004 9.5H2.50045V5H13.5Z" fill="#949494"/>
</svg>
