<svg width="20" height="20" viewBox="0 0 20 20" fill="none" xmlns="http://www.w3.org/2000/svg">
<path d="M18.6283 15.9971C18.6344 15.9888 18.6408 15.9808 18.6466 15.9722C18.6529 15.9628 18.6584 15.953 18.6642 15.9433C18.6688 15.9355 18.6737 15.9279 18.678 15.9199C18.6833 15.91 18.6878 15.8999 18.6925 15.8899C18.6964 15.8814 18.7007 15.8731 18.7043 15.8644C18.7083 15.8547 18.7116 15.8447 18.7151 15.8348C18.7184 15.8255 18.7221 15.8163 18.725 15.8067C18.728 15.7967 18.7302 15.7866 18.7327 15.7765C18.7351 15.7668 18.7379 15.7572 18.7398 15.7474C18.7422 15.7356 18.7436 15.7237 18.7453 15.7118C18.7464 15.7035 18.748 15.6953 18.7488 15.6869C18.7509 15.6662 18.7519 15.6454 18.752 15.6246V10.625C18.752 10.4593 18.6861 10.3003 18.5689 10.1831C18.4517 10.0659 18.2927 10 18.127 10C17.9612 10 17.8022 10.0659 17.685 10.1831C17.5678 10.3003 17.502 10.4593 17.502 10.625V14.1161L11.0689 7.68308C10.9517 7.56588 10.7927 7.50003 10.627 7.50003C10.4612 7.50003 10.3022 7.56588 10.185 7.68308L7.50197 10.3661L2.31894 5.18308C2.2609 5.12504 2.192 5.079 2.11618 5.04759C2.04035 5.01617 1.95907 5 1.87699 5C1.79492 5 1.71364 5.01616 1.63781 5.04757C1.56198 5.07897 1.49308 5.12501 1.43503 5.18304C1.37699 5.24108 1.33095 5.30998 1.29954 5.38581C1.26813 5.46164 1.25196 5.54291 1.25195 5.62499C1.25195 5.79075 1.31779 5.94973 1.435 6.06695L7.06 11.6919C7.17722 11.8092 7.3362 11.875 7.50197 11.875C7.66774 11.875 7.82671 11.8092 7.94394 11.6919L10.627 9.00892L16.6181 15H13.127C12.9612 15 12.8022 15.0659 12.685 15.1831C12.5678 15.3003 12.502 15.4593 12.502 15.625C12.502 15.7908 12.5678 15.9497 12.685 16.067C12.8022 16.1842 12.9612 16.25 13.127 16.25H18.127C18.1476 16.25 18.1682 16.2489 18.1887 16.2469C18.1979 16.246 18.2068 16.2443 18.2159 16.243C18.227 16.2414 18.2381 16.2401 18.2491 16.2379C18.2596 16.2358 18.2698 16.2329 18.2801 16.2303C18.2895 16.228 18.299 16.2259 18.3084 16.2231C18.3185 16.22 18.3282 16.2162 18.3381 16.2127C18.3475 16.2093 18.3569 16.2062 18.3662 16.2024C18.3753 16.1986 18.3841 16.1941 18.393 16.1899C18.4026 16.1854 18.4122 16.1812 18.4216 16.1762C18.4301 16.1716 18.4383 16.1664 18.4466 16.1614C18.4558 16.1559 18.4651 16.1507 18.474 16.1447C18.4831 16.1386 18.4917 16.1319 18.5004 16.1253C18.508 16.1196 18.5158 16.1144 18.5232 16.1083C18.5377 16.0964 18.5516 16.0837 18.565 16.0705C18.5663 16.0692 18.5677 16.0682 18.5689 16.0669C18.5705 16.0653 18.5719 16.0636 18.5734 16.0619C18.5862 16.0489 18.5986 16.0354 18.6102 16.0213C18.6167 16.0134 18.6223 16.0052 18.6283 15.9971Z" fill="#949494"/>
</svg>
