<svg width="12" height="12" viewBox="0 0 12 12" fill="none" xmlns="http://www.w3.org/2000/svg">
<path d="M3.02142 3.47781C2.975 3.43138 2.93817 3.37626 2.91305 3.3156C2.88793 3.25493 2.875 3.18991 2.875 3.12425C2.87501 3.05859 2.88795 2.99358 2.91308 2.93292C2.93822 2.87226 2.97505 2.81714 3.02149 2.77072L5.64649 0.146393C5.74026 0.0526571 5.86741 0 6 0C6.13259 0 6.25975 0.0526571 6.35352 0.146393L8.97852 2.77072C9.02495 2.81715 9.06178 2.87226 9.08692 2.93292C9.11205 2.99358 9.12498 3.0586 9.12499 3.12425C9.125 3.18991 9.11207 3.25493 9.08695 3.3156C9.06183 3.37626 9.025 3.43138 8.97858 3.47781C8.93215 3.52425 8.87704 3.56108 8.81638 3.58621C8.75572 3.61134 8.6907 3.62428 8.62504 3.62429C8.55938 3.62429 8.49437 3.61137 8.4337 3.58624C8.37304 3.56112 8.31792 3.5243 8.27149 3.47787L6.5 1.70686V7.49997C6.5 7.63258 6.44732 7.75976 6.35355 7.85352C6.25979 7.94729 6.13261 7.99997 6 7.99997C5.86739 7.99997 5.74021 7.94729 5.64645 7.85352C5.55268 7.75976 5.5 7.63258 5.5 7.49997V1.70686L3.72852 3.47787C3.68209 3.5243 3.62697 3.56113 3.5663 3.58626C3.50564 3.61138 3.44062 3.62431 3.37496 3.62431C3.3093 3.6243 3.24428 3.61136 3.18362 3.58623C3.12296 3.56109 3.06784 3.52425 3.02142 3.47781ZM11.5 6.99997C11.3674 6.99998 11.2402 7.05266 11.1465 7.14642C11.0527 7.24019 11 7.36736 11 7.49997V11H1V7.49997C1 7.36736 0.947321 7.24018 0.853553 7.14642C0.759785 7.05265 0.632608 6.99997 0.5 6.99997C0.367392 6.99997 0.240215 7.05265 0.146447 7.14642C0.0526785 7.24018 0 7.36736 0 7.49997V11C0.000303211 11.2651 0.105757 11.5193 0.293228 11.7067C0.480699 11.8942 0.734877 11.9997 1 12H11C11.2651 11.9997 11.5193 11.8942 11.7068 11.7067C11.8942 11.5193 11.9997 11.2651 12 11V7.49997C12 7.36736 11.9473 7.24019 11.8535 7.14642C11.7598 7.05266 11.6326 6.99998 11.5 6.99997Z" fill="black"/>
</svg>
