<svg width="20" height="20" viewBox="0 0 20 20" fill="none" xmlns="http://www.w3.org/2000/svg">
<path d="M9.47676 12.3396C10.3153 11.7826 10.9523 10.9704 11.2934 10.0232C11.6345 9.07605 11.6616 8.04422 11.3706 7.08045C11.0797 6.11668 10.4862 5.27218 9.67804 4.67192C8.86984 4.07167 7.88987 3.74756 6.88315 3.74756C5.87642 3.74756 4.89645 4.07167 4.08825 4.67192C3.28005 5.27218 2.68657 6.11668 2.39565 7.08045C2.10472 8.04422 2.13181 9.07605 2.47289 10.0232C2.81398 10.9704 3.45095 11.7826 4.28953 12.3396C2.86 12.867 1.62448 13.8163 0.746752 15.0618C0.680855 15.1554 0.641932 15.2653 0.634229 15.3795C0.626527 15.4937 0.65034 15.6079 0.703073 15.7095C0.755805 15.8111 0.83543 15.8963 0.933261 15.9557C1.03109 16.0152 1.14337 16.0466 1.25785 16.0466L12.5082 16.0462C12.6227 16.0462 12.7349 16.0147 12.8328 15.9553C12.9306 15.8958 13.0102 15.8106 13.0629 15.709C13.1157 15.6074 13.1395 15.4933 13.1317 15.379C13.124 15.2648 13.0851 15.1549 13.0192 15.0613C12.1415 13.8161 10.9061 12.8669 9.47676 12.3396Z" fill="#949494"/>
<path d="M19.3887 15.0613C18.511 13.8161 17.2756 12.8669 15.8463 12.3397C16.7756 11.721 17.4536 10.791 17.7583 9.71704C18.063 8.64304 17.9745 7.49554 17.5085 6.48104C17.0425 5.46654 16.2298 4.65165 15.2165 4.18301C14.2032 3.71437 13.056 3.62275 11.9812 3.92464C11.8836 3.95208 11.7942 4.00285 11.7206 4.07255C11.647 4.14225 11.5915 4.22881 11.5588 4.32476C11.5261 4.4207 11.5172 4.52316 11.533 4.62329C11.5487 4.72342 11.5885 4.81822 11.6491 4.89953C12.3556 5.84859 12.7617 6.98746 12.8152 8.16942C12.8687 9.35138 12.5671 10.5223 11.9491 11.5313C11.8675 11.6643 11.8387 11.8231 11.8682 11.9764C11.8978 12.1296 11.9836 12.2663 12.1089 12.3595C12.3459 12.5358 12.5738 12.7239 12.792 12.9231C12.8033 12.9354 12.8146 12.9475 12.827 12.9591C13.6612 13.7303 14.3373 14.6565 14.8176 15.686C14.8679 15.7938 14.9479 15.885 15.0482 15.9488C15.1486 16.0127 15.265 16.0466 15.384 16.0466L18.8778 16.0462C18.9922 16.0462 19.1045 16.0147 19.2023 15.9553C19.3001 15.8958 19.3797 15.8106 19.4325 15.709C19.4852 15.6074 19.509 15.4933 19.5013 15.379C19.4935 15.2648 19.4546 15.1549 19.3887 15.0613L19.3887 15.0613Z" fill="#949494"/>
</svg>
