<svg width="16" height="16" viewBox="0 0 16 16" fill="none" xmlns="http://www.w3.org/2000/svg">
<path d="M7.57516 9.87195C8.24602 9.42633 8.7556 8.77657 9.02847 8.01883C9.30134 7.26108 9.32301 6.43562 9.09027 5.6646C8.85753 4.89359 8.38274 4.21799 7.73619 3.73778C7.08963 3.25758 6.30564 2.99829 5.50027 2.99829C4.69489 2.99829 3.91091 3.25758 3.26435 3.73778C2.61779 4.21799 2.14301 4.89359 1.91027 5.6646C1.67753 6.43562 1.69919 7.26108 1.97207 8.01883C2.24494 8.77657 2.75451 9.42633 3.42537 9.87195C2.28175 10.2938 1.29334 11.0533 0.591152 12.0497C0.538434 12.1246 0.507295 12.2125 0.501133 12.3039C0.494971 12.3952 0.514022 12.4865 0.556208 12.5678C0.598394 12.6491 0.662094 12.7173 0.740359 12.7648C0.818623 12.8124 0.908446 12.8375 1.00003 12.8375L10.0003 12.8372C10.0919 12.8372 10.1817 12.812 10.26 12.7645C10.3382 12.7169 10.4019 12.6487 10.4441 12.5675C10.4863 12.4862 10.5053 12.3948 10.4991 12.3035C10.493 12.2121 10.4618 12.1242 10.4091 12.0493C9.70692 11.0531 8.71862 10.2938 7.57516 9.87195Z" fill="black"/>
<path d="M15.5035 12.0493C14.8014 11.0531 13.8131 10.2938 12.6696 9.87197C13.413 9.37707 13.9555 8.63308 14.1992 7.77387C14.443 6.91467 14.3721 5.99668 13.9994 5.18508C13.6266 4.37348 12.9764 3.72157 12.1658 3.34666C11.3552 2.97174 10.4374 2.89845 9.57752 3.13996C9.49946 3.16191 9.42791 3.20252 9.36904 3.25828C9.31017 3.31405 9.26575 3.38329 9.2396 3.46005C9.21345 3.53681 9.20636 3.61877 9.21895 3.69887C9.23153 3.77898 9.26341 3.85482 9.31183 3.91986C9.87705 4.67911 10.202 5.59021 10.2448 6.53578C10.2875 7.48135 10.0462 8.41806 9.55188 9.22525C9.4866 9.33171 9.46351 9.45873 9.48717 9.58135C9.51082 9.70396 9.5795 9.81329 9.67969 9.88782C9.86927 10.0289 10.0517 10.1794 10.2262 10.3387C10.2352 10.3485 10.2443 10.3583 10.2542 10.3675C10.9216 10.9845 11.4625 11.7254 11.8467 12.5491C11.8869 12.6353 11.9509 12.7082 12.0312 12.7593C12.1114 12.8104 12.2046 12.8375 12.2997 12.8375L15.0948 12.8372C15.1864 12.8372 15.2762 12.812 15.3544 12.7644C15.4327 12.7169 15.4964 12.6487 15.5385 12.5674C15.5807 12.4862 15.5998 12.3948 15.5936 12.3035C15.5874 12.2121 15.5563 12.1242 15.5035 12.0493L15.5035 12.0493Z" fill="black"/>
</svg>
