<svg width="24" height="24" viewBox="0 0 24 24" fill="none" xmlns="http://www.w3.org/2000/svg">
<path d="M21 18.75H3.75V16.811L9.00027 11.5606L11.4699 14.0304C11.6106 14.171 11.8014 14.25 12.0003 14.25C12.1992 14.25 12.39 14.171 12.5306 14.0304L18.7503 7.81073V9.75C18.7503 9.94891 18.8293 10.1397 18.9699 10.2803C19.1106 10.421 19.3014 10.5 19.5003 10.5C19.6992 10.5 19.8899 10.421 20.0306 10.2803C20.1713 10.1397 20.2503 9.94891 20.2503 9.75V6.00046C20.2503 5.97556 20.249 5.95061 20.2465 5.92575C20.2455 5.91573 20.2436 5.90598 20.2423 5.89609C20.2402 5.88176 20.2385 5.86739 20.2357 5.85315C20.2334 5.84143 20.2301 5.83008 20.2272 5.81854C20.2242 5.80632 20.2215 5.79405 20.2178 5.78197C20.2144 5.77062 20.2101 5.75972 20.2061 5.74859C20.2019 5.7366 20.1979 5.72451 20.193 5.71266C20.1888 5.70245 20.1838 5.69265 20.1791 5.68272C20.1734 5.67045 20.1679 5.65809 20.1615 5.6461C20.1565 5.63681 20.1508 5.62802 20.1454 5.61896C20.1383 5.60696 20.1315 5.59488 20.1237 5.5832C20.1172 5.5735 20.1099 5.56439 20.103 5.55505C20.0954 5.54475 20.0882 5.53427 20.08 5.52433C20.0676 5.50914 20.0542 5.49476 20.0405 5.48062C20.0371 5.47705 20.0342 5.47316 20.0306 5.46963C20.0273 5.46638 20.0238 5.46363 20.0204 5.46043C20.006 5.44656 19.9914 5.43292 19.9759 5.42019C19.9663 5.41232 19.9562 5.40541 19.9463 5.39808C19.9365 5.3908 19.927 5.38325 19.9169 5.37648C19.9057 5.36892 19.894 5.36242 19.8825 5.35556C19.873 5.34993 19.8637 5.34393 19.854 5.33871C19.8425 5.33253 19.8307 5.32731 19.8189 5.32182C19.8084 5.31688 19.7981 5.31161 19.7873 5.30717C19.7761 5.3025 19.7646 5.29875 19.7531 5.29467C19.7415 5.29046 19.73 5.28598 19.7181 5.28236C19.7066 5.27893 19.6951 5.27636 19.6835 5.27348C19.6713 5.27041 19.6593 5.26698 19.6469 5.26455C19.6337 5.2619 19.6203 5.26034 19.607 5.25847C19.5961 5.25691 19.5853 5.2548 19.5743 5.25375C19.5497 5.25132 19.525 5.25 19.5003 5.25H15.7503C15.5514 5.25 15.3606 5.32902 15.2199 5.46967C15.0793 5.61032 15.0003 5.80109 15.0003 6C15.0003 6.19891 15.0793 6.38968 15.2199 6.53033C15.3606 6.67098 15.5514 6.75 15.7503 6.75H17.6896L12.0003 12.4394L9.53064 9.96964C9.38997 9.82899 9.19919 9.74998 9.00027 9.74998C8.80135 9.74998 8.61058 9.82899 8.46991 9.96964L3.75 14.6895V4.5C3.75 4.30109 3.67098 4.11032 3.53033 3.96967C3.38968 3.82902 3.19891 3.75 3 3.75C2.80109 3.75 2.61032 3.82902 2.46967 3.96967C2.32902 4.11032 2.25 4.30109 2.25 4.5V19.5C2.25001 19.6989 2.32903 19.8897 2.46968 20.0303C2.61033 20.171 2.80109 20.25 3 20.25H21C21.1989 20.25 21.3897 20.171 21.5303 20.0303C21.671 19.8897 21.75 19.6989 21.75 19.5C21.75 19.3011 21.671 19.1103 21.5303 18.9697C21.3897 18.829 21.1989 18.75 21 18.75H21Z" fill="black"/>
</svg>
