<svg width="30" height="24" viewBox="0 0 30 24" fill="none" xmlns="http://www.w3.org/2000/svg">
<path d="M16.0112 4.17204C16.0673 3.39598 16.3236 2.64772 16.7551 2.00029C17.1866 1.35285 17.7787 0.828371 18.4734 0.478042C19.1682 0.127712 19.9419 -0.0364954 20.719 0.00144868C21.4962 0.0393927 22.2502 0.278192 22.9075 0.694535C22.9827 0.743705 23.0432 0.812209 23.0827 0.892849C23.1222 0.973488 23.1393 1.06329 23.1322 1.15281C23.125 1.24233 23.0938 1.32827 23.042 1.4016C22.9902 1.47493 22.9195 1.53294 22.8375 1.56954C21.6949 2.08362 20.7249 2.91665 20.0442 3.96857C19.3634 5.02049 19.0009 6.24657 19 7.49954C19 7.64578 19 7.79203 19.015 7.93578C19.0219 8.02664 19.0038 8.11766 18.9627 8.199C18.9217 8.28033 18.8591 8.3489 18.7819 8.39728C18.7047 8.44567 18.6158 8.47204 18.5247 8.47353C18.4335 8.47503 18.3438 8.45161 18.265 8.40578C17.5283 7.98441 16.9258 7.36332 16.5271 6.6142C16.1283 5.86507 15.9495 5.01844 16.0112 4.17204ZM30 17.0758C30.0018 17.6472 29.8435 18.2077 29.543 18.6937C29.2426 19.1798 28.8119 19.572 28.3 19.8258L28.245 19.8508L23.3913 21.9183C23.3433 21.9394 23.2935 21.9561 23.2425 21.9683L15.2425 23.9683C15.1633 23.9887 15.0818 23.9992 15 23.9995H2C1.46957 23.9995 0.960859 23.7888 0.585786 23.4137C0.210714 23.0387 0 22.53 0 21.9995V16.9995C0 16.4691 0.210714 15.9604 0.585786 15.5853C0.960859 15.2102 1.46957 14.9995 2 14.9995H5.58625L8.41375 12.1708C8.78451 11.7984 9.22539 11.5031 9.71092 11.3021C10.1964 11.101 10.717 10.9982 11.2425 10.9995H17.5C18.0282 10.9995 18.5496 11.119 19.0251 11.3491C19.5005 11.5792 19.9177 11.9139 20.2454 12.3282C20.5731 12.7425 20.8028 13.2256 20.9172 13.7412C21.0317 14.2569 21.0279 14.7918 20.9062 15.3058L26.1362 14.1033C26.5915 13.9827 27.0685 13.9683 27.5302 14.0612C27.992 14.154 28.4262 14.3516 28.7995 14.6388C29.1728 14.926 29.4752 15.2951 29.6833 15.7176C29.8915 16.1401 29.9998 16.6048 30 17.0758ZM28 17.0758C27.9998 16.9104 27.9616 16.7474 27.8882 16.5992C27.8148 16.451 27.7083 16.3217 27.5769 16.2214C27.4455 16.1211 27.2927 16.0523 27.1305 16.0206C26.9682 15.9888 26.8008 15.9949 26.6413 16.0383L26.6025 16.0483L18.2275 17.9745C18.154 17.9909 18.079 17.9993 18.0037 17.9995H14C13.7348 17.9995 13.4804 17.8942 13.2929 17.7066C13.1054 17.5191 13 17.2648 13 16.9995C13 16.7343 13.1054 16.48 13.2929 16.2924C13.4804 16.1049 13.7348 15.9995 14 15.9995H17.5C17.8978 15.9995 18.2794 15.8415 18.5607 15.5602C18.842 15.2789 19 14.8974 19 14.4995C19 14.1017 18.842 13.7202 18.5607 13.4389C18.2794 13.1576 17.8978 12.9995 17.5 12.9995H11.2425C10.9798 12.9987 10.7195 13.0501 10.4768 13.1507C10.2341 13.2514 10.0138 13.3993 9.82875 13.5858L7 16.4133V21.9995H14.875L22.6787 20.0483L27.4287 18.0258C27.6016 17.9347 27.7463 17.798 27.847 17.6305C27.9477 17.4631 28.0006 17.2712 28 17.0758ZM21 7.49954C21 8.38955 21.2639 9.25958 21.7584 9.9996C22.2529 10.7396 22.9557 11.3164 23.7779 11.657C24.6002 11.9976 25.505 12.0867 26.3779 11.9131C27.2508 11.7394 28.0526 11.3109 28.682 10.6815C29.3113 10.0522 29.7399 9.25036 29.9135 8.37744C30.0872 7.50453 29.9981 6.59973 29.6575 5.77746C29.3169 4.95519 28.7401 4.25239 28.0001 3.75792C27.26 3.26346 26.39 2.99953 25.5 2.99953C24.3065 2.99953 23.1619 3.47364 22.318 4.31755C21.4741 5.16147 21 6.30606 21 7.49954Z" fill="black"/>
</svg>
