<svg width="16" height="16" viewBox="0 0 16 16" fill="none" xmlns="http://www.w3.org/2000/svg">
<path d="M5.49609 4.50002V3.00002C5.49609 2.86741 5.54877 2.74023 5.64254 2.64647C5.73631 2.5527 5.86349 2.50002 5.99609 2.50002C6.1287 2.50002 6.25588 2.5527 6.34965 2.64647C6.44342 2.74023 6.49609 2.86741 6.49609 3.00002V4.50002C6.49609 4.63263 6.44342 4.7598 6.34965 4.85357C6.25588 4.94734 6.1287 5.00002 5.99609 5.00002C5.86349 5.00002 5.73631 4.94734 5.64254 4.85357C5.54877 4.7598 5.49609 4.63263 5.49609 4.50002ZM9.99609 11C9.86349 11 9.73631 11.0527 9.64255 11.1465C9.54878 11.2402 9.4961 11.3674 9.49609 11.5V13C9.49609 13.1326 9.54877 13.2598 9.64254 13.3536C9.73631 13.4473 9.86349 13.5 9.99609 13.5C10.1287 13.5 10.2559 13.4473 10.3496 13.3536C10.4434 13.2598 10.4961 13.1326 10.4961 13V11.5C10.4961 11.3674 10.4434 11.2402 10.3496 11.1465C10.2559 11.0527 10.1287 11 9.99609 11ZM2.99609 6.50002H4.49609C4.6287 6.50002 4.75588 6.44734 4.84965 6.35357C4.94342 6.2598 4.99609 6.13263 4.99609 6.00002C4.99609 5.86741 4.94342 5.74023 4.84965 5.64647C4.75588 5.5527 4.6287 5.50002 4.49609 5.50002H2.99609C2.86349 5.50002 2.73631 5.5527 2.64254 5.64647C2.54877 5.74023 2.49609 5.86741 2.49609 6.00002C2.49609 6.13263 2.54877 6.2598 2.64254 6.35357C2.73631 6.44734 2.86349 6.50002 2.99609 6.50002ZM12.9961 9.50002H11.4961C11.3635 9.50002 11.2363 9.5527 11.1425 9.64647C11.0488 9.74023 10.9961 9.86741 10.9961 10C10.9961 10.1326 11.0488 10.2598 11.1425 10.3536C11.2363 10.4473 11.3635 10.5 11.4961 10.5H12.9961C13.1287 10.5 13.2559 10.4473 13.3496 10.3536C13.4434 10.2598 13.4961 10.1326 13.4961 10C13.4961 9.86741 13.4434 9.74023 13.3496 9.64647C13.2559 9.5527 13.1287 9.50002 12.9961 9.50002ZM7.61743 11.2071L6.91034 11.9142C6.53527 12.2893 6.02657 12.5 5.49614 12.5C4.9657 12.5 4.45699 12.2893 4.08191 11.9143C3.70683 11.5392 3.4961 11.0305 3.49609 10.5001C3.49608 9.96963 3.70678 9.46092 4.08185 9.08584L4.789 8.37874C4.88277 8.28498 4.93546 8.15781 4.93547 8.02521C4.93548 7.8926 4.88282 7.76542 4.78906 7.67165C4.6953 7.57788 4.56813 7.52519 4.43553 7.52518C4.30292 7.52516 4.17574 7.57783 4.08197 7.67159L3.37476 8.37874C2.81288 8.94152 2.49744 9.70436 2.49776 10.4996C2.49808 11.2949 2.81414 12.0574 3.37648 12.6198C3.93881 13.1821 4.7014 13.4981 5.49665 13.4984C6.2919 13.4987 7.05473 13.1833 7.61749 12.6214L8.32458 11.9143C8.41836 11.8205 8.47104 11.6933 8.47104 11.5607C8.47104 11.4281 8.41836 11.3009 8.32458 11.2071C8.23081 11.1133 8.10363 11.0607 7.97101 11.0607C7.83839 11.0607 7.71121 11.1133 7.61743 11.2071ZM11.9103 4.08577C12.2848 4.46114 12.4952 4.96973 12.4952 5.49998C12.4952 6.03022 12.2849 6.53882 11.9104 6.9142L11.2032 7.6213C11.1568 7.66772 11.12 7.72284 11.0949 7.78349C11.0697 7.84415 11.0568 7.90917 11.0568 7.97483C11.0568 8.04049 11.0697 8.10551 11.0948 8.16617C11.1199 8.22683 11.1568 8.28196 11.2032 8.32839C11.2496 8.37482 11.3047 8.41165 11.3654 8.43679C11.426 8.46192 11.4911 8.47486 11.5567 8.47486C11.6893 8.47487 11.8165 8.42221 11.9103 8.32845L12.6175 7.6213C12.8963 7.34276 13.1174 7.01203 13.2684 6.64799C13.4193 6.28395 13.497 5.89375 13.4971 5.49967C13.4972 5.10559 13.4196 4.71535 13.2688 4.35126C13.1181 3.98716 12.897 3.65633 12.6184 3.37768C12.3397 3.09903 12.0089 2.87801 11.6448 2.72724C11.2807 2.57648 10.8904 2.49893 10.4964 2.49902C10.1023 2.49912 9.71208 2.57685 9.34805 2.72779C8.98402 2.87872 8.65329 3.0999 8.37476 3.37868L7.66766 4.08577C7.57389 4.17955 7.52121 4.30673 7.52121 4.43935C7.52121 4.57197 7.57389 4.69915 7.66766 4.79293C7.76144 4.8867 7.88862 4.93938 8.02124 4.93938C8.15386 4.93938 8.28104 4.8867 8.37482 4.79293L9.08191 4.08583C9.45726 3.71129 9.96586 3.50093 10.4961 3.50092C11.0264 3.50091 11.535 3.71124 11.9103 4.08577Z" fill="black"/>
</svg>
