<svg width="16" height="16" viewBox="0 0 16 16" fill="none" xmlns="http://www.w3.org/2000/svg">
<path d="M13.1035 7.64631C13.1972 7.74014 13.2498 7.86735 13.2497 7.99996C13.2497 8.13256 13.1969 8.2597 13.1031 8.35341L7.97475 13.475C7.64973 13.8 7.26388 14.0578 6.83923 14.2337C6.41458 14.4096 5.95945 14.5001 5.49982 14.5C4.57156 14.5 3.68134 14.1312 3.025 13.4748C2.36865 12.8184 1.99995 11.9281 2 10.9999C2.00005 10.0716 2.36884 9.18138 3.02526 8.52504L9.22954 2.23439C9.46146 2.00178 9.73694 1.81715 10.0402 1.69106C10.3435 1.56496 10.6687 1.49987 10.9972 1.49951C11.3257 1.49915 11.651 1.56352 11.9546 1.68895C12.2581 1.81438 12.534 1.9984 12.7664 2.2305C12.9989 2.4626 13.1833 2.73823 13.3091 3.04163C13.435 3.34504 13.4998 3.67027 13.4999 3.99874C13.5 4.3272 13.4354 4.65247 13.3097 4.95595C13.184 5.25943 12.9998 5.53517 12.7675 5.76741L6.56319 12.0581C6.4241 12.1977 6.25887 12.3085 6.07693 12.3842C5.89499 12.46 5.69992 12.4991 5.50286 12.4994C5.30579 12.4997 5.1106 12.4611 4.92844 12.386C4.74628 12.3108 4.58072 12.2004 4.44121 12.0613C4.30171 11.9221 4.191 11.7568 4.1154 11.5748C4.03981 11.3928 4.00082 11.1977 4.00066 11.0006C4.0005 10.8036 4.03917 10.6084 4.11446 10.4263C4.18976 10.2442 4.3002 10.0787 4.43947 9.93928L9.6433 4.649C9.7363 4.55447 9.86304 4.50074 9.99564 4.49966C10.1282 4.49857 10.2559 4.5502 10.3504 4.6432C10.4449 4.7362 10.4986 4.86294 10.4997 4.99555C10.5008 5.12815 10.4492 5.25576 10.3562 5.35029L5.14946 10.6435C5.10247 10.6897 5.06506 10.7446 5.03937 10.8053C5.01369 10.866 5.00025 10.9311 4.99981 10.9969C4.99938 11.0628 5.01196 11.1281 5.03684 11.1891C5.06172 11.2501 5.0984 11.3056 5.14479 11.3523C5.19117 11.3991 5.24633 11.4362 5.30711 11.4616C5.36789 11.487 5.43309 11.5001 5.49896 11.5002C5.56483 11.5004 5.63007 11.4875 5.69093 11.4623C5.7518 11.4371 5.80709 11.4001 5.85363 11.3535L12.058 5.06276C12.1977 4.92369 12.3086 4.75845 12.3844 4.57648C12.4602 4.39451 12.4994 4.19938 12.4998 4.00225C12.5001 3.80512 12.4616 3.60986 12.3864 3.42763C12.3112 3.2454 12.2009 3.07978 12.0616 2.94023C11.9224 2.80068 11.757 2.68994 11.575 2.61435C11.3929 2.53875 11.1977 2.49979 11.0006 2.49968C10.8035 2.49957 10.6083 2.53832 10.4261 2.6137C10.244 2.68909 10.0785 2.79965 9.93911 2.93904L3.73479 9.22969C3.50218 9.46161 3.31754 9.73709 3.19145 10.0404C3.06535 10.3437 3.00026 10.6689 2.9999 10.9974C2.99954 11.3258 3.06392 11.6512 3.18935 11.9548C3.31477 12.2583 3.4988 12.5342 3.7309 12.7667C3.96301 12.9991 4.23864 13.1835 4.54205 13.3093C4.84546 13.4352 5.17069 13.5 5.49917 13.5001C5.82764 13.5002 6.15292 13.4356 6.4564 13.3099C6.75988 13.1842 7.03563 13 7.26787 12.7677L12.3964 7.64589C12.4429 7.59948 12.498 7.56267 12.5587 7.53757C12.6194 7.51248 12.6844 7.49958 12.7501 7.49962C12.8157 7.49966 12.8807 7.51263 12.9414 7.5378C13.002 7.56297 13.0571 7.59985 13.1035 7.64631Z" fill="black"/>
</svg>
