<svg width="16" height="16" viewBox="0 0 16 16" fill="none" xmlns="http://www.w3.org/2000/svg">
<path d="M6.03351 11.0612C5.9077 11.0193 5.77038 11.029 5.65176 11.0883C5.53315 11.1476 5.44295 11.2516 5.401 11.3774C4.99146 12.6061 3.65759 12.9866 2.89246 13.1043C3.01013 12.3388 3.39069 11.0052 4.61932 10.5957C4.68165 10.5749 4.73929 10.5421 4.78893 10.4991C4.83858 10.4561 4.87926 10.4037 4.90865 10.345C4.93804 10.2862 4.95557 10.2223 4.96024 10.1567C4.9649 10.0912 4.95661 10.0254 4.93583 9.96309C4.91506 9.90077 4.8822 9.84316 4.83915 9.79354C4.7961 9.74393 4.7437 9.70328 4.68493 9.67392C4.62617 9.64457 4.56219 9.62708 4.49667 9.62246C4.43114 9.61783 4.36534 9.62617 4.30304 9.64698C3.28052 9.98783 2.52936 10.8002 2.13068 11.9962C1.9533 12.5326 1.85532 13.0921 1.83984 13.6569C1.83985 13.7895 1.89253 13.9167 1.9863 14.0104C2.08006 14.1042 2.20724 14.1569 2.33984 14.1569C2.90463 14.1414 3.46412 14.0434 4.00055 13.866C5.19653 13.4674 6.00885 12.7162 6.34973 11.6937C6.39166 11.5679 6.38189 11.4306 6.32259 11.312C6.26329 11.1933 6.15931 11.1031 6.03351 11.0612Z" fill="black"/>
<path d="M14.2201 2.61378C14.1893 2.40204 14.091 2.2059 13.9397 2.05461C13.7884 1.90332 13.5922 1.80498 13.3805 1.77425C12.6751 1.66899 10.8417 1.61717 9.05493 3.40382L8.49428 3.96449H4.6659C4.53452 3.96414 4.40437 3.98985 4.28299 4.04012C4.16161 4.09039 4.0514 4.16423 3.95874 4.25737L1.93738 6.27876C1.80941 6.40676 1.71857 6.56708 1.67455 6.74264C1.63054 6.91821 1.63499 7.10242 1.68745 7.27565C1.73991 7.44888 1.83839 7.60462 1.97241 7.72627C2.10643 7.84792 2.27095 7.93092 2.44843 7.96642L4.91936 8.46062L7.53372 11.075L8.0279 13.5459C8.06334 13.7234 8.14632 13.888 8.26798 14.0221C8.38963 14.1561 8.5454 14.2546 8.71867 14.3071C8.89193 14.3596 9.07618 14.364 9.25177 14.3199C9.42735 14.2759 9.58768 14.185 9.71564 14.0569L11.737 12.0355C11.8301 11.9429 11.904 11.8327 11.9542 11.7113C12.0045 11.5899 12.0302 11.4598 12.0298 11.3284V7.50001L12.5905 6.93935C14.3773 5.1526 14.3254 3.31917 14.2201 2.61378ZM4.6659 4.96449H7.4943L5.00155 7.45723L2.64454 6.98585L4.6659 4.96449ZM11.0298 11.3284L9.00849 13.3498L8.5371 10.9928L11.0298 8.50004L11.0298 11.3284Z" fill="black"/>
</svg>
