<svg width="24" height="24" viewBox="0 0 24 24" fill="none" xmlns="http://www.w3.org/2000/svg">
<path d="M21.2768 3.16828C21.5714 2.92802 22.0056 2.94496 22.2802 3.21955C22.5548 3.49414 22.5718 3.92839 22.3315 4.22297L22.2802 4.2801L18.78 7.78034C18.5054 8.0547 18.0711 8.07183 17.7766 7.83161L17.7194 7.78034L15.9697 6.02985L15.9184 5.97346C15.6779 5.67887 15.695 5.24398 15.9697 4.96931C16.2442 4.69487 16.6786 4.67791 16.9731 4.91804L17.0302 4.96931L18.2497 6.18879L21.2197 3.21955L21.2768 3.16828Z" fill="black"/>
<path d="M12.0945 2.25C13.5728 2.25 15.0107 2.73527 16.1865 3.63135C16.1937 3.63683 16.2006 3.64269 16.2078 3.64819C15.8853 3.69871 15.5733 3.83301 15.3076 4.05249L15.1743 4.17334C14.4873 4.86046 14.4449 5.94743 15.0469 6.68481L15.0857 6.73022L15.137 6.78662L15.1743 6.82544L16.9241 8.57593C16.9384 8.59021 16.953 8.60419 16.968 8.61768L17.0251 8.66895L17.0654 8.70337L17.2075 8.80884C17.6956 9.13567 18.3019 9.20657 18.843 9.02637C18.8397 9.87607 18.6775 10.7233 18.356 11.5217C17.8037 12.8929 16.8167 14.0449 15.5464 14.8008C18.1154 15.6317 20.2991 17.3542 21.7053 19.6523L21.8386 19.8765C21.9045 19.9904 21.9395 20.1199 21.9397 20.2515C21.9398 20.3832 21.9052 20.5131 21.8394 20.6272C21.7736 20.7412 21.6787 20.836 21.5647 20.9019C21.4507 20.9677 21.3213 21.0022 21.1897 21.0022H3C2.86839 21.0022 2.73899 20.9676 2.625 20.9019C2.51095 20.836 2.41614 20.7406 2.35034 20.6265C2.28463 20.5124 2.24991 20.3831 2.25 20.2515C2.25011 20.1198 2.28513 19.9904 2.35107 19.8765C3.75054 17.4663 5.99155 15.6584 8.64331 14.8008C7.37297 14.0449 6.386 12.8929 5.83374 11.5217C5.28151 10.1504 5.19419 8.63536 5.58618 7.20996C5.97819 5.78463 6.82744 4.5274 8.00317 3.63135C9.17888 2.73532 10.6163 2.25006 12.0945 2.25Z" fill="black"/>
</svg>
