<svg width="14" height="12" viewBox="0 0 14 12" fill="none" xmlns="http://www.w3.org/2000/svg">
<path d="M12.5 0.5H1.5C1.23488 0.500303 0.980699 0.605757 0.793228 0.793228C0.605757 0.980699 0.500303 1.23488 0.5 1.5V10.5C0.500303 10.7651 0.605757 11.0193 0.793228 11.2068C0.980699 11.3942 1.23488 11.4997 1.5 11.5H12.5C12.7651 11.4997 13.0193 11.3942 13.2068 11.2068C13.3942 11.0193 13.4997 10.7651 13.5 10.5V1.5C13.4997 1.23488 13.3942 0.980699 13.2068 0.793228C13.0193 0.605757 12.7651 0.500303 12.5 0.5ZM12.5 10.5H11.5826C11.1674 9.55021 10.4673 8.75288 9.57922 8.21828C8.88384 8.88058 7.96032 9.25 7 9.25C6.03968 9.25 5.11616 8.88058 4.42078 8.21828C3.53267 8.75288 2.8326 9.55021 2.41736 10.5H1.5V1.5H12.5L12.5006 10.5L12.5 10.5Z" fill="#949494"/>
</svg>
