<svg width="18" height="18" viewBox="0 0 18 18" fill="none" xmlns="http://www.w3.org/2000/svg">
<path d="M14.625 2.24976H12.9375V1.68726C12.9375 1.53807 12.8782 1.395 12.7727 1.28951C12.6673 1.18402 12.5242 1.12476 12.375 1.12476C12.2258 1.12476 12.0827 1.18402 11.9773 1.28951C11.8718 1.395 11.8125 1.53807 11.8125 1.68726V2.24976H6.1875V1.68726C6.1875 1.53807 6.12824 1.395 6.02275 1.28951C5.91726 1.18402 5.77418 1.12476 5.625 1.12476C5.47582 1.12476 5.33274 1.18402 5.22725 1.28951C5.12176 1.395 5.0625 1.53807 5.0625 1.68726V2.24976H3.375C3.07672 2.25005 2.79074 2.36867 2.57983 2.57959C2.36892 2.7905 2.25029 3.07648 2.25 3.37476V14.6248C2.25029 14.923 2.36892 15.209 2.57983 15.4199C2.79074 15.6308 3.07672 15.7495 3.375 15.7498H14.625C14.9233 15.7495 15.2093 15.6308 15.4202 15.4199C15.6311 15.209 15.7497 14.923 15.75 14.6248V3.37476C15.7497 3.07648 15.6311 2.7905 15.4202 2.57959C15.2093 2.36867 14.9233 2.25005 14.625 2.24976ZM14.625 5.62476H3.375V3.37476H5.0625V3.93726C5.0625 4.08644 5.12176 4.22951 5.22725 4.335C5.33274 4.44049 5.47582 4.49976 5.625 4.49976C5.77418 4.49976 5.91726 4.44049 6.02275 4.335C6.12824 4.22951 6.1875 4.08644 6.1875 3.93726V3.37476H11.8125V3.93726C11.8125 4.08644 11.8718 4.22951 11.9773 4.335C12.0827 4.44049 12.2258 4.49976 12.375 4.49976C12.5242 4.49976 12.6673 4.44049 12.7727 4.335C12.8782 4.22951 12.9375 4.08644 12.9375 3.93726V3.37476H14.625V5.62476Z" fill="#949494"/>
</svg>
