<svg width="20" height="20" viewBox="0 0 20 20" fill="none" xmlns="http://www.w3.org/2000/svg">
<path d="M17.5039 15.625H3.1289V14.0092L7.50413 9.63387L9.56216 11.692C9.67939 11.8092 9.83837 11.875 10.0041 11.875C10.1699 11.875 10.3289 11.8092 10.4461 11.692L15.6291 6.50894V8.125C15.6291 8.29076 15.695 8.44973 15.8122 8.56694C15.9294 8.68415 16.0884 8.75 16.2541 8.75C16.4199 8.75 16.5789 8.68415 16.6961 8.56694C16.8133 8.44973 16.8791 8.29076 16.8791 8.125V5.00038C16.8791 4.97963 16.8781 4.95884 16.876 4.93813C16.8752 4.92977 16.8736 4.92165 16.8725 4.91341C16.8708 4.90147 16.8693 4.88949 16.867 4.87763C16.8651 4.86786 16.8624 4.8584 16.8599 4.84879C16.8574 4.8386 16.8551 4.82838 16.8521 4.81831C16.8492 4.80885 16.8457 4.79977 16.8424 4.79049C16.8388 4.7805 16.8355 4.77043 16.8314 4.76055C16.8279 4.75204 16.8237 4.74388 16.8198 4.7356C16.815 4.72538 16.8105 4.71508 16.8051 4.70508C16.801 4.69734 16.7962 4.69002 16.7918 4.68246C16.7859 4.67247 16.7802 4.6624 16.7737 4.65267C16.7682 4.64458 16.7622 4.63699 16.7564 4.62921C16.7501 4.62063 16.7441 4.61189 16.7373 4.60361C16.7269 4.59095 16.7157 4.57897 16.7043 4.56718C16.7015 4.56421 16.699 4.56096 16.6961 4.55803C16.6934 4.55532 16.6904 4.55303 16.6876 4.55036C16.6756 4.5388 16.6634 4.52743 16.6505 4.51683C16.6425 4.51027 16.6341 4.50451 16.6258 4.4984C16.6177 4.49234 16.6098 4.48604 16.6013 4.4804C16.592 4.4741 16.5823 4.46869 16.5727 4.46296C16.5647 4.45827 16.557 4.45328 16.5489 4.44893C16.5393 4.44378 16.5295 4.43943 16.5197 4.43485C16.5109 4.43073 16.5023 4.42634 16.4934 4.42264C16.484 4.41875 16.4744 4.41562 16.4649 4.41223C16.4552 4.40872 16.4456 4.40498 16.4356 4.40197C16.4261 4.39911 16.4165 4.39697 16.4068 4.39457C16.3967 4.39201 16.3866 4.38915 16.3763 4.38713C16.3653 4.38492 16.3542 4.38362 16.3431 4.38205C16.334 4.38076 16.325 4.379 16.3158 4.37813C16.2953 4.3761 16.2747 4.375 16.2541 4.375H13.1291C12.9634 4.375 12.8044 4.44085 12.6872 4.55806C12.57 4.67527 12.5041 4.83424 12.5041 5C12.5041 5.16576 12.57 5.32473 12.6872 5.44194C12.8044 5.55915 12.9634 5.625 13.1291 5.625H14.7452L10.0041 10.3661L7.94611 8.30803C7.82888 8.19082 7.6699 8.12498 7.50414 8.12498C7.33837 8.12498 7.17939 8.19082 7.06216 8.30803L3.12891 12.2413V3.75C3.12891 3.58424 3.06306 3.42527 2.94585 3.30806C2.82864 3.19085 2.66967 3.125 2.50391 3.125C2.33815 3.125 2.17917 3.19085 2.06196 3.30806C1.94475 3.42527 1.87891 3.58424 1.87891 3.75V16.25C1.87891 16.4158 1.94476 16.5747 2.06197 16.6919C2.17918 16.8091 2.33815 16.875 2.50391 16.875H17.5039C17.6697 16.875 17.8286 16.8092 17.9458 16.6919C18.0631 16.5747 18.1289 16.4158 18.1289 16.25C18.1289 16.0842 18.0631 15.9253 17.9458 15.8081C17.8286 15.6908 17.6697 15.625 17.5039 15.625H17.5039Z" fill="#949494"/>
</svg>
