<svg width="16" height="16" viewBox="0 0 16 16" fill="none" xmlns="http://www.w3.org/2000/svg">
<path d="M6.49999 12C6.43432 12.0001 6.36929 11.9872 6.30862 11.9621C6.24795 11.9369 6.19285 11.9001 6.14647 11.8536L2.64647 8.35385C2.60004 8.30742 2.56321 8.25231 2.53808 8.19165C2.51294 8.13099 2.50001 8.06597 2.5 8.00031C2.49999 7.93465 2.51292 7.86964 2.53804 7.80897C2.56316 7.74831 2.59999 7.69319 2.64641 7.64675C2.69284 7.60032 2.74795 7.56349 2.80861 7.53836C2.86927 7.51322 2.93429 7.50029 2.99995 7.50028C3.06561 7.50027 3.13062 7.5132 3.19129 7.53832C3.25195 7.56345 3.30707 7.60027 3.35351 7.64669L6.49999 10.7929L13.1464 4.14672C13.2402 4.05306 13.3673 4.00048 13.4999 4.00052C13.6324 4.00056 13.7595 4.05323 13.8533 4.14695C13.947 4.24067 13.9997 4.36778 13.9997 4.50033C13.9998 4.63287 13.9472 4.76002 13.8536 4.85382L6.85357 11.8536C6.80718 11.9001 6.75206 11.9369 6.69138 11.962C6.63071 11.9872 6.56566 12.0001 6.49999 12Z" fill="#7FD400"/>
</svg>
