<svg width="25" height="26" viewBox="0 0 25 26" fill="none" xmlns="http://www.w3.org/2000/svg">
<g filter="url(#filter0_d_4024_1853)">
<path d="M13 5.625C12.8342 5.625 12.6753 5.69085 12.5581 5.80806C12.4409 5.92527 12.375 6.08424 12.375 6.25V10C12.375 10.0057 12.3757 10.0112 12.3758 10.0168C12.3762 10.0294 12.3766 10.042 12.3777 10.0545C12.3786 10.0642 12.3799 10.0737 12.3812 10.0832C12.3826 10.0933 12.3839 10.1034 12.3858 10.1135C12.3878 10.1246 12.3903 10.1355 12.3929 10.1463C12.395 10.1548 12.397 10.1632 12.3994 10.1715C12.4027 10.183 12.4063 10.1942 12.4102 10.2053C12.413 10.2132 12.4158 10.2211 12.4188 10.2289C12.4231 10.2396 12.4276 10.25 12.4324 10.2604C12.4361 10.2687 12.4401 10.2769 12.4442 10.2851C12.449 10.2943 12.454 10.3033 12.4591 10.3122C12.4643 10.3212 12.4696 10.3301 12.4753 10.3388C12.4802 10.3465 12.4854 10.3539 12.4906 10.3613C12.4973 10.3707 12.5041 10.3799 12.5113 10.389C12.5164 10.3954 12.5218 10.4017 12.5272 10.408C12.535 10.417 12.5429 10.4259 12.5513 10.4345C12.5572 10.4406 12.5634 10.4465 12.5695 10.4524C12.5777 10.4602 12.586 10.4679 12.5948 10.4753C12.6024 10.4818 12.6103 10.488 12.6183 10.4941C12.626 10.5001 12.6337 10.5061 12.6418 10.5117C12.652 10.5189 12.6625 10.5255 12.6732 10.532C12.678 10.535 12.6825 10.5384 12.6875 10.5413L15.9351 12.4163C16.0787 12.4992 16.2493 12.5216 16.4094 12.4787C16.5695 12.4358 16.706 12.3311 16.7889 12.1875C16.8717 12.044 16.8942 11.8734 16.8513 11.7132C16.8084 11.5531 16.7037 11.4166 16.5601 11.3337L13.625 9.63915V6.25C13.625 6.08424 13.5591 5.92527 13.4419 5.80806C13.3247 5.69085 13.1658 5.625 13 5.625Z" fill="black"/>
<path d="M13 5.625C12.8342 5.625 12.6753 5.69085 12.5581 5.80806C12.4409 5.92527 12.375 6.08424 12.375 6.25V10C12.375 10.0057 12.3757 10.0112 12.3758 10.0168C12.3762 10.0294 12.3766 10.042 12.3777 10.0545C12.3786 10.0642 12.3799 10.0737 12.3812 10.0832C12.3826 10.0933 12.3839 10.1034 12.3858 10.1135C12.3878 10.1246 12.3903 10.1355 12.3929 10.1463C12.395 10.1548 12.397 10.1632 12.3994 10.1715C12.4027 10.183 12.4063 10.1942 12.4102 10.2053C12.413 10.2132 12.4158 10.2211 12.4188 10.2289C12.4231 10.2396 12.4276 10.25 12.4324 10.2604C12.4361 10.2687 12.4401 10.2769 12.4442 10.2851C12.449 10.2943 12.454 10.3033 12.4591 10.3122C12.4643 10.3212 12.4696 10.3301 12.4753 10.3388C12.4802 10.3465 12.4854 10.3539 12.4906 10.3613C12.4973 10.3707 12.5041 10.3799 12.5113 10.389C12.5164 10.3954 12.5218 10.4017 12.5272 10.408C12.535 10.417 12.5429 10.4259 12.5513 10.4345C12.5572 10.4406 12.5634 10.4465 12.5695 10.4524C12.5777 10.4602 12.586 10.4679 12.5948 10.4753C12.6024 10.4818 12.6103 10.488 12.6183 10.4941C12.626 10.5001 12.6337 10.5061 12.6418 10.5117C12.652 10.5189 12.6625 10.5255 12.6732 10.532C12.678 10.535 12.6825 10.5384 12.6875 10.5413L15.9351 12.4163C16.0787 12.4992 16.2493 12.5216 16.4094 12.4787C16.5695 12.4358 16.706 12.3311 16.7889 12.1875C16.8717 12.044 16.8942 11.8734 16.8513 11.7132C16.8084 11.5531 16.7037 11.4166 16.5601 11.3337L13.625 9.63915V6.25C13.625 6.08424 13.5591 5.92527 13.4419 5.80806C13.3247 5.69085 13.1658 5.625 13 5.625Z" fill="url(#paint0_linear_4024_1853)"/>
</g>
<g filter="url(#filter1_d_4024_1853)">
<path d="M18.3046 4.69674C16.8969 3.29229 14.9897 2.50354 13.0013 2.50354C11.0128 2.50354 9.1056 3.29229 7.69798 4.69674L6.11328 6.28146V4.66535C6.11328 4.49959 6.04743 4.34062 5.93022 4.22341C5.81301 4.1062 5.65404 4.04035 5.48828 4.04035C5.32252 4.04035 5.16355 4.1062 5.04634 4.22341C4.92913 4.34062 4.86328 4.49959 4.86328 4.66535V7.79035L4.86336 7.79208C4.86344 7.81207 4.86445 7.83203 4.86641 7.85196C4.86733 7.86143 4.86908 7.87063 4.87042 7.87997C4.87202 7.89081 4.87324 7.90168 4.87538 7.91243C4.87751 7.92308 4.88041 7.9334 4.88308 7.94384C4.88541 7.95314 4.88743 7.96249 4.89021 7.9717C4.89334 7.98201 4.8972 7.99198 4.90086 8.00206C4.90414 8.01119 4.90711 8.02039 4.91085 8.0294C4.91474 8.03883 4.91932 8.04787 4.92367 8.05707C4.9281 8.06637 4.93221 8.07575 4.9371 8.08487C4.94183 8.09376 4.94724 8.1022 4.95243 8.11082C4.9577 8.11966 4.96269 8.12862 4.96845 8.13725C4.97498 8.14696 4.98219 8.15611 4.98921 8.16542C4.99443 8.1724 4.99928 8.17959 5.00489 8.18639C5.03107 8.21833 5.06034 8.2476 5.09228 8.27379C5.09896 8.27927 5.10601 8.28402 5.11288 8.28919C5.1223 8.2963 5.13157 8.30359 5.14141 8.31017C5.14992 8.31585 5.15873 8.32077 5.16747 8.32599C5.1762 8.33125 5.18482 8.33674 5.19383 8.34158C5.20279 8.34636 5.21199 8.35039 5.2211 8.35471C5.23045 8.35915 5.23968 8.36382 5.24929 8.3678C5.2581 8.37143 5.26707 8.37435 5.276 8.37757C5.2863 8.3813 5.29652 8.38524 5.30705 8.38843C5.31594 8.39111 5.32494 8.39306 5.3339 8.39534C5.34466 8.39809 5.35534 8.40108 5.36632 8.40325C5.37655 8.40528 5.38685 8.40645 5.39711 8.40796C5.40703 8.40941 5.41675 8.41126 5.42682 8.41224C5.44498 8.41402 5.46321 8.4148 5.48145 8.415C5.48374 8.41502 5.48595 8.41534 5.48828 8.41534H8.61328C8.77904 8.41534 8.93801 8.34949 9.05522 8.23228C9.17243 8.11507 9.23828 7.9561 9.23828 7.79034C9.23828 7.62458 9.17243 7.46561 9.05522 7.3484C8.93801 7.23119 8.77904 7.16534 8.61328 7.16534H6.99715L8.58189 5.58061C9.45597 4.70652 10.5696 4.11127 11.782 3.87011C12.9944 3.62894 14.2511 3.75271 15.3931 4.22576C16.5351 4.69881 17.5113 5.49989 18.198 6.5277C18.8848 7.55551 19.2513 8.76389 19.2513 10C19.2513 11.2362 18.8848 12.4445 18.198 13.4724C17.5113 14.5002 16.5351 15.3013 15.3931 15.7743C14.2511 16.2473 12.9944 16.3711 11.782 16.13C10.5696 15.8888 9.45597 15.2935 8.58189 14.4195C8.52385 14.3614 8.45494 14.3154 8.37911 14.284C8.30328 14.2526 8.222 14.2364 8.13992 14.2364C8.05784 14.2364 7.97656 14.2526 7.90073 14.284C7.8249 14.3154 7.756 14.3614 7.69796 14.4195C7.63992 14.4775 7.59389 14.5464 7.56248 14.6222C7.53107 14.6981 7.5149 14.7794 7.5149 14.8614C7.51491 14.9435 7.53107 15.0248 7.56249 15.1006C7.5939 15.1765 7.63994 15.2454 7.69798 15.3034C9.10451 16.7099 11.0122 17.5001 13.0013 17.5001C14.9904 17.5001 16.8981 16.7099 18.3046 15.3034C19.7111 13.8968 20.5013 11.9892 20.5013 10C20.5013 8.01092 19.7111 6.10326 18.3046 4.69674Z" fill="#949494"/>
<path d="M18.3046 4.69674C16.8969 3.29229 14.9897 2.50354 13.0013 2.50354C11.0128 2.50354 9.1056 3.29229 7.69798 4.69674L6.11328 6.28146V4.66535C6.11328 4.49959 6.04743 4.34062 5.93022 4.22341C5.81301 4.1062 5.65404 4.04035 5.48828 4.04035C5.32252 4.04035 5.16355 4.1062 5.04634 4.22341C4.92913 4.34062 4.86328 4.49959 4.86328 4.66535V7.79035L4.86336 7.79208C4.86344 7.81207 4.86445 7.83203 4.86641 7.85196C4.86733 7.86143 4.86908 7.87063 4.87042 7.87997C4.87202 7.89081 4.87324 7.90168 4.87538 7.91243C4.87751 7.92308 4.88041 7.9334 4.88308 7.94384C4.88541 7.95314 4.88743 7.96249 4.89021 7.9717C4.89334 7.98201 4.8972 7.99198 4.90086 8.00206C4.90414 8.01119 4.90711 8.02039 4.91085 8.0294C4.91474 8.03883 4.91932 8.04787 4.92367 8.05707C4.9281 8.06637 4.93221 8.07575 4.9371 8.08487C4.94183 8.09376 4.94724 8.1022 4.95243 8.11082C4.9577 8.11966 4.96269 8.12862 4.96845 8.13725C4.97498 8.14696 4.98219 8.15611 4.98921 8.16542C4.99443 8.1724 4.99928 8.17959 5.00489 8.18639C5.03107 8.21833 5.06034 8.2476 5.09228 8.27379C5.09896 8.27927 5.10601 8.28402 5.11288 8.28919C5.1223 8.2963 5.13157 8.30359 5.14141 8.31017C5.14992 8.31585 5.15873 8.32077 5.16747 8.32599C5.1762 8.33125 5.18482 8.33674 5.19383 8.34158C5.20279 8.34636 5.21199 8.35039 5.2211 8.35471C5.23045 8.35915 5.23968 8.36382 5.24929 8.3678C5.2581 8.37143 5.26707 8.37435 5.276 8.37757C5.2863 8.3813 5.29652 8.38524 5.30705 8.38843C5.31594 8.39111 5.32494 8.39306 5.3339 8.39534C5.34466 8.39809 5.35534 8.40108 5.36632 8.40325C5.37655 8.40528 5.38685 8.40645 5.39711 8.40796C5.40703 8.40941 5.41675 8.41126 5.42682 8.41224C5.44498 8.41402 5.46321 8.4148 5.48145 8.415C5.48374 8.41502 5.48595 8.41534 5.48828 8.41534H8.61328C8.77904 8.41534 8.93801 8.34949 9.05522 8.23228C9.17243 8.11507 9.23828 7.9561 9.23828 7.79034C9.23828 7.62458 9.17243 7.46561 9.05522 7.3484C8.93801 7.23119 8.77904 7.16534 8.61328 7.16534H6.99715L8.58189 5.58061C9.45597 4.70652 10.5696 4.11127 11.782 3.87011C12.9944 3.62894 14.2511 3.75271 15.3931 4.22576C16.5351 4.69881 17.5113 5.49989 18.198 6.5277C18.8848 7.55551 19.2513 8.76389 19.2513 10C19.2513 11.2362 18.8848 12.4445 18.198 13.4724C17.5113 14.5002 16.5351 15.3013 15.3931 15.7743C14.2511 16.2473 12.9944 16.3711 11.782 16.13C10.5696 15.8888 9.45597 15.2935 8.58189 14.4195C8.52385 14.3614 8.45494 14.3154 8.37911 14.284C8.30328 14.2526 8.222 14.2364 8.13992 14.2364C8.05784 14.2364 7.97656 14.2526 7.90073 14.284C7.8249 14.3154 7.756 14.3614 7.69796 14.4195C7.63992 14.4775 7.59389 14.5464 7.56248 14.6222C7.53107 14.6981 7.5149 14.7794 7.5149 14.8614C7.51491 14.9435 7.53107 15.0248 7.56249 15.1006C7.5939 15.1765 7.63994 15.2454 7.69798 15.3034C9.10451 16.7099 11.0122 17.5001 13.0013 17.5001C14.9904 17.5001 16.8981 16.7099 18.3046 15.3034C19.7111 13.8968 20.5013 11.9892 20.5013 10C20.5013 8.01092 19.7111 6.10326 18.3046 4.69674Z" fill="url(#paint1_linear_4024_1853)"/>
</g>
<defs>
<filter id="filter0_d_4024_1853" x="8.375" y="5.625" width="12.4961" height="14.875" filterUnits="userSpaceOnUse" color-interpolation-filters="sRGB">
<feFlood flood-opacity="0" result="BackgroundImageFix"/>
<feColorMatrix in="SourceAlpha" type="matrix" values="0 0 0 0 0 0 0 0 0 0 0 0 0 0 0 0 0 0 127 0" result="hardAlpha"/>
<feOffset dy="4"/>
<feGaussianBlur stdDeviation="2"/>
<feComposite in2="hardAlpha" operator="out"/>
<feColorMatrix type="matrix" values="0 0 0 0 0.792157 0 0 0 0 0.992157 0 0 0 0 0.364706 0 0 0 0.5 0"/>
<feBlend mode="normal" in2="BackgroundImageFix" result="effect1_dropShadow_4024_1853"/>
<feBlend mode="normal" in="SourceGraphic" in2="effect1_dropShadow_4024_1853" result="shape"/>
</filter>
<filter id="filter1_d_4024_1853" x="0.863281" y="2.50354" width="23.6367" height="22.9966" filterUnits="userSpaceOnUse" color-interpolation-filters="sRGB">
<feFlood flood-opacity="0" result="BackgroundImageFix"/>
<feColorMatrix in="SourceAlpha" type="matrix" values="0 0 0 0 0 0 0 0 0 0 0 0 0 0 0 0 0 0 127 0" result="hardAlpha"/>
<feOffset dy="4"/>
<feGaussianBlur stdDeviation="2"/>
<feComposite in2="hardAlpha" operator="out"/>
<feColorMatrix type="matrix" values="0 0 0 0 0.792157 0 0 0 0 0.992157 0 0 0 0 0.364706 0 0 0 0.5 0"/>
<feBlend mode="normal" in2="BackgroundImageFix" result="effect1_dropShadow_4024_1853"/>
<feBlend mode="normal" in="SourceGraphic" in2="effect1_dropShadow_4024_1853" result="shape"/>
</filter>
<linearGradient id="paint0_linear_4024_1853" x1="14.6238" y1="5.625" x2="14.6238" y2="12.5" gradientUnits="userSpaceOnUse">
<stop stop-color="#CAFD5D"/>
<stop offset="1" stop-color="#7FD400"/>
</linearGradient>
<linearGradient id="paint1_linear_4024_1853" x1="12.6823" y1="2.50354" x2="12.6823" y2="17.5001" gradientUnits="userSpaceOnUse">
<stop stop-color="#CAFD5D"/>
<stop offset="1" stop-color="#7FD400"/>
</linearGradient>
</defs>
</svg>
