<svg width="20" height="20" viewBox="0 0 20 20" fill="none" xmlns="http://www.w3.org/2000/svg">
<path d="M16.217 4.9922C14.5974 4.18234 12.4476 3.75433 10 3.75433C7.55241 3.75433 5.4026 4.18234 3.78296 4.9922C2.17323 5.7971 1.25 6.94052 1.25 8.12933V11.8793C1.25 13.0681 2.17323 14.2116 3.78296 15.0165C5.4026 15.8263 7.55241 16.2543 10 16.2543C12.4476 16.2543 14.5974 15.8263 16.217 15.0165C17.8268 14.2116 18.75 13.0681 18.75 11.8793V8.12933C18.75 6.94052 17.8268 5.7971 16.217 4.9922ZM9.375 12.4937V14.993C7.89181 14.9444 6.63857 14.7252 5.625 14.4075V11.961C6.84935 12.2872 8.10826 12.466 9.375 12.4937ZM10.625 12.4937C11.8917 12.466 13.1507 12.2872 14.375 11.961V14.4075C13.3614 14.7252 12.1082 14.9444 10.625 14.993V12.4937ZM2.5 11.8793V10.4364C2.89327 10.7629 3.32395 11.0416 3.78296 11.2665C3.97293 11.3615 4.17084 11.4507 4.375 11.5351V13.9127C3.13854 13.2984 2.5 12.5273 2.5 11.8793ZM15.625 13.9127V11.5351C15.8292 11.4507 16.0271 11.3615 16.217 11.2665C16.6761 11.0416 17.1067 10.7629 17.5 10.4364V11.8793C17.5 12.5273 16.8615 13.2984 15.625 13.9127Z" fill="white"/>
</svg>
