<svg width="24" height="24" viewBox="0 0 24 24" fill="none" xmlns="http://www.w3.org/2000/svg">
<path d="M19.4604 5.98544C17.5169 5.01361 14.9371 4.5 12 4.5C9.0629 4.5 6.48312 5.01361 4.53955 5.98544C2.60788 6.95132 1.5 8.32343 1.5 9.75V14.25C1.5 15.6766 2.60788 17.0487 4.53955 18.0146C6.48312 18.9864 9.0629 19.5 12 19.5C14.9371 19.5 17.5169 18.9864 19.4604 18.0146C21.3921 17.0487 22.5 15.6766 22.5 14.25V9.75C22.5 8.32343 21.3921 6.95132 19.4604 5.98544ZM11.25 14.9872V17.9864C9.47017 17.9281 7.96628 17.665 6.75 17.2838V14.348C8.21922 14.7394 9.72991 14.954 11.25 14.9872ZM12.75 14.9872C14.2701 14.954 15.7808 14.7394 17.25 14.348V17.2838C16.0337 17.665 14.5298 17.9281 12.75 17.9864V14.9872ZM3 14.25V12.5185C3.47193 12.9103 3.98873 13.2447 4.53955 13.5146C4.76752 13.6285 5.005 13.7357 5.25 13.8369V16.6901C3.76625 15.9529 3 15.0276 3 14.25ZM18.75 16.6901V13.8369C18.995 13.7357 19.2325 13.6285 19.4604 13.5146C20.0113 13.2447 20.5281 12.9103 21 12.5185V14.25C21 15.0276 20.2337 15.9529 18.75 16.6901Z" fill="black"/>
</svg>
