<svg width="20" height="20" viewBox="0 0 20 20" fill="none" xmlns="http://www.w3.org/2000/svg">
<path d="M18.6489 5.74487C18.4701 5.5956 18.2529 5.4996 18.0221 5.46783C17.7914 5.43606 17.5563 5.4698 17.3438 5.5652L13.3919 7.32164L11.091 3.17987C10.9827 2.98499 10.8244 2.8226 10.6322 2.70954C10.4401 2.59648 10.2212 2.53687 9.99831 2.53687C9.77538 2.53687 9.55652 2.59648 9.36439 2.70954C9.17226 2.8226 9.01387 2.98499 8.90562 3.17987L6.6046 7.32156L2.65211 5.56489C2.43945 5.47041 2.20464 5.43716 1.97411 5.46889C1.74357 5.50062 1.52648 5.59607 1.34725 5.7445C1.16803 5.89293 1.03379 6.08843 0.959658 6.30902C0.885525 6.5296 0.874437 6.7665 0.927643 6.99304L2.91556 15.4566C2.95338 15.6204 3.02421 15.7748 3.12372 15.9104C3.22323 16.0459 3.34933 16.1598 3.49432 16.245C3.64007 16.3308 3.80157 16.3864 3.96924 16.4086C4.13691 16.4307 4.30732 16.419 4.47035 16.374C8.08675 15.3756 11.906 15.3752 15.5226 16.3729C15.6856 16.4179 15.8559 16.4296 16.0235 16.4074C16.1911 16.3853 16.3525 16.3297 16.4982 16.2439C16.6431 16.1588 16.7692 16.045 16.8687 15.9096C16.9682 15.7741 17.039 15.6198 17.0769 15.4561L19.0683 6.99373C19.1225 6.76718 19.1119 6.52996 19.0377 6.30915C18.9636 6.08833 18.8288 5.8928 18.6489 5.74487Z" fill="#949494"/>
</svg>
