<svg width="12" height="12" viewBox="0 0 12 12" fill="none" xmlns="http://www.w3.org/2000/svg">
<path d="M11.1917 3.44702C11.0844 3.35746 10.9541 3.29986 10.8156 3.2808C10.6772 3.26174 10.5361 3.28198 10.4086 3.33922L8.03751 4.39308L6.65694 1.90802C6.59199 1.79109 6.49695 1.69366 6.38168 1.62582C6.2664 1.55799 6.13508 1.52222 6.00133 1.52222C5.86757 1.52222 5.73625 1.55799 5.62098 1.62582C5.5057 1.69366 5.41067 1.79109 5.34572 1.90802L3.9651 4.39303L1.59361 3.33903C1.46602 3.28234 1.32513 3.26239 1.18681 3.28143C1.04849 3.30047 0.918229 3.35774 0.810694 3.4468C0.703159 3.53585 0.622618 3.65316 0.578138 3.78551C0.533659 3.91786 0.527006 4.06 0.55893 4.19592L1.75168 9.27403C1.77437 9.37234 1.81687 9.465 1.87658 9.54633C1.93628 9.62766 2.01194 9.69597 2.09894 9.74708C2.18638 9.79857 2.28329 9.83195 2.38389 9.84525C2.48449 9.85854 2.58674 9.85149 2.68456 9.82449C4.85439 9.22547 7.14595 9.22524 9.3159 9.82385C9.41368 9.85081 9.51588 9.85785 9.61643 9.84456C9.71698 9.83126 9.81384 9.79789 9.90125 9.74644C9.9882 9.69537 10.0638 9.62712 10.1235 9.54585C10.1832 9.46458 10.2258 9.372 10.2485 9.27376L11.4433 4.19633C11.4758 4.0604 11.4695 3.91808 11.425 3.78559C11.3805 3.65309 11.2996 3.53578 11.1917 3.44702Z" fill="black"/>
</svg>
