<svg width="16" height="16" viewBox="0 0 16 16" fill="none" xmlns="http://www.w3.org/2000/svg">
<path d="M14.9334 14.0732L12.6607 11.5732C12.6181 11.5263 12.5603 11.5 12.5 11.5C12.4397 11.5 12.3819 11.5263 12.3393 11.5732L10.0666 14.0732C10.0348 14.1082 10.0131 14.1527 10.0044 14.2012C9.9956 14.2497 10.0001 14.3 10.0173 14.3457C10.0345 14.3914 10.0636 14.4304 10.101 14.4579C10.1384 14.4853 10.1823 14.5 10.2273 14.5H14.7727C14.8177 14.5 14.8616 14.4853 14.899 14.4579C14.9364 14.4304 14.9655 14.3914 14.9827 14.3457C14.9999 14.3 15.0044 14.2497 14.9956 14.2012C14.9869 14.1527 14.9652 14.1082 14.9334 14.0732Z" fill="black"/>
<path fill-rule="evenodd" clip-rule="evenodd" d="M12 2.5C12.1326 2.5 12.2597 2.55272 12.3535 2.64648C12.4473 2.74025 12.5 2.86739 12.5 3C12.5 3.13261 12.4473 3.25975 12.3535 3.35352C12.2597 3.44728 12.1326 3.5 12 3.5H3.5C3.36739 3.5 3.24025 3.55272 3.14648 3.64648C3.05272 3.74025 3 3.86739 3 4C3 4.13261 3.05272 4.25975 3.14648 4.35352C3.24025 4.44728 3.36739 4.5 3.5 4.5H13.5C13.7651 4.5003 14.0191 4.60599 14.2065 4.79346C14.394 4.98093 14.4997 5.23488 14.5 5.5V12.1094L13.4009 10.9004C13.2073 10.6876 12.9366 10.5407 12.6323 10.5073L12.5 10.5C12.1869 10.5 11.9016 10.6204 11.687 10.8135L11.5996 10.9004L9.32666 13.4004C9.2976 13.4324 9.27078 13.4658 9.24561 13.5H3.5C3.10231 13.4995 2.72115 13.3413 2.43994 13.0601C2.15874 12.7789 2.00045 12.3977 2 12V4C2.00045 3.60231 2.15874 3.22115 2.43994 2.93994C2.72115 2.65874 3.10231 2.50045 3.5 2.5H12ZM11.5371 8.30713C11.4001 8.25036 11.249 8.23571 11.1035 8.26465C10.9581 8.29361 10.8246 8.36489 10.7197 8.46973C10.6149 8.57457 10.5436 8.70811 10.5146 8.85352C10.4857 8.999 10.5004 9.15006 10.5571 9.28711C10.6139 9.42411 10.7102 9.54114 10.8335 9.62354C10.9568 9.70591 11.1017 9.75 11.25 9.75C11.4489 9.75 11.6396 9.67093 11.7803 9.53027C11.9209 9.38962 12 9.19891 12 9C12 8.8517 11.9559 8.70681 11.8735 8.5835C11.7911 8.46019 11.6741 8.3639 11.5371 8.30713Z" fill="black"/>
</svg>
