<svg width="13" height="13" viewBox="0 0 13 13" fill="none" xmlns="http://www.w3.org/2000/svg">
<path d="M0.595703 9.20514C0.595653 9.17918 0.5985 9.15333 0.603516 9.12799L0.625977 9.05377C0.635953 9.02969 0.648637 9.00695 0.663086 8.98541L0.711914 8.92584L0.712891 8.92389L6.49512 3.14069L6.7793 3.42389L9.57227 6.21686L9.85449 6.50006L4.07227 12.2833L4.07031 12.2842L4.09961 12.3135L3.74121 12.3321L4.01074 12.3331C3.98921 12.3475 3.96646 12.3602 3.94238 12.3702C3.91841 12.3801 3.89349 12.3876 3.86816 12.3926L3.79102 12.4005H0.99707C0.917264 12.4004 0.839797 12.3758 0.774414 12.3321L0.713867 12.2823C0.657596 12.226 0.619007 12.1551 0.603516 12.0782L0.595703 11.9991V9.20514Z" fill="#949494" stroke="#949494" stroke-width="1.2"/>
</svg>
