<svg width="16" height="16" viewBox="0 0 16 16" fill="none" xmlns="http://www.w3.org/2000/svg">
<path d="M5.99707 1.95801C6.0264 1.9609 6.05521 1.96732 6.08301 1.97656L6.16309 2.01367L6.16406 2.01465L7.42285 2.76953L7.5791 2.86328L7.75977 2.85449C7.91958 2.84711 8.08068 2.84786 8.24121 2.85547L8.42285 2.86328L8.5791 2.77051L9.83691 2.01562L9.83789 2.01465C9.88865 1.98409 9.94591 1.96568 10.0049 1.95996C10.0342 1.95713 10.0637 1.95727 10.0928 1.96094L10.1787 1.98145L10.1807 1.98242C10.8013 2.2061 11.3832 2.52422 11.9053 2.92578L12.125 3.10352C12.1702 3.14149 12.207 3.1894 12.2314 3.24316C12.2435 3.26984 12.2529 3.29767 12.2588 3.32617L12.2666 3.41406V3.41602L12.2422 4.88379L12.2393 5.06543L12.3369 5.21777C12.4234 5.35293 12.5036 5.49305 12.5771 5.63574L12.6602 5.79688L12.8193 5.88477L14.1016 6.59766H14.1025C14.1544 6.62634 14.1999 6.6666 14.2344 6.71484C14.2516 6.73896 14.266 6.76485 14.2773 6.79199L14.3018 6.87695L14.3027 6.87793C14.4193 7.52673 14.4341 8.18945 14.3477 8.8418L14.3047 9.12012L14.3037 9.12207C14.2934 9.18043 14.2707 9.23593 14.2363 9.28418C14.2191 9.30833 14.1988 9.32998 14.1768 9.34961L14.1045 9.40137H14.1035L12.6621 10.2021L12.5781 10.3633C12.5413 10.4343 12.503 10.5048 12.4629 10.5742L12.3369 10.7803L12.2393 10.9336L12.2422 11.1152L12.2666 12.582V12.583C12.2677 12.6422 12.2559 12.701 12.2314 12.7549C12.2191 12.7819 12.2034 12.8076 12.1855 12.8311L12.125 12.8945L12.123 12.8965C11.6192 13.322 11.0529 13.6667 10.4443 13.918L10.1807 14.0195H10.1797C10.1242 14.0397 10.0646 14.0477 10.0059 14.042C9.97653 14.0391 9.94772 14.0327 9.91992 14.0234L9.83984 13.9863L9.83887 13.9854L8.5791 13.2305L8.42383 13.1367L8.24316 13.1455C8.08316 13.1529 7.92203 13.1531 7.76172 13.1455L7.58008 13.1367L7.42383 13.2295L6.16602 13.9844L6.16504 13.9854C6.11426 14.0159 6.05705 14.0343 5.99805 14.04C5.96868 14.0429 5.93925 14.0427 5.91016 14.0391L5.82422 14.0186L5.82227 14.0176L5.55859 13.916C5.03653 13.7013 4.5451 13.4184 4.09766 13.0742L3.87793 12.8975L3.87695 12.8965L3.81641 12.833C3.79864 12.8096 3.78371 12.7837 3.77148 12.7568C3.75938 12.7302 3.75005 12.7023 3.74414 12.6738L3.73633 12.5859V12.584L3.76074 11.1162L3.76367 10.9346L3.66602 10.7822C3.57947 10.6471 3.49935 10.5069 3.42578 10.3643L3.34277 10.2031L3.18359 10.1152L1.90039 9.40234H1.89941C1.84766 9.37368 1.80295 9.3333 1.76855 9.28516C1.75135 9.26104 1.73697 9.23516 1.72559 9.20801L1.7002 9.12305V9.12207L1.65625 8.84277C1.58124 8.2838 1.58117 7.71729 1.65527 7.1582L1.69824 6.87988V6.87793C1.70854 6.8195 1.73215 6.76412 1.7666 6.71582C1.78385 6.69165 1.80415 6.67003 1.82617 6.65039L1.89844 6.59863H1.89941L3.34082 5.79785L3.4248 5.63672C3.4985 5.49437 3.57922 5.35486 3.66602 5.21973L3.76367 5.06641L3.76074 4.88477L3.73633 3.41797V3.41699L3.74414 3.3291C3.75009 3.30029 3.75925 3.27207 3.77148 3.24512C3.78379 3.21805 3.79949 3.19247 3.81738 3.16895L3.87793 3.10547L3.87988 3.10352C4.38367 2.67811 4.95019 2.33425 5.55859 2.08301L5.82227 1.98047H5.82324C5.8787 1.96031 5.93834 1.95228 5.99707 1.95801ZM11.3516 7.99902C11.3505 7.11115 10.997 6.25966 10.3691 5.63184C9.78052 5.04327 8.99539 4.69624 8.16797 4.6543L8.00195 4.65039H8.00098C7.33848 4.65043 6.6905 4.84678 6.13965 5.21484C5.58899 5.58288 5.15976 6.10588 4.90625 6.71777C4.65272 7.32985 4.58661 8.00354 4.71582 8.65332C4.84508 9.30316 5.16431 9.90063 5.63281 10.3691C6.10126 10.8374 6.698 11.1569 7.34766 11.2861C7.99745 11.4154 8.67111 11.3483 9.2832 11.0947C9.89516 10.8412 10.4181 10.412 10.7861 9.86133C11.1542 9.31042 11.3516 8.66257 11.3516 8V7.99902Z" fill="#949494" stroke="#949494" stroke-width="1.2"/>
</svg>
