<svg width="16" height="16" viewBox="0 0 16 16" fill="none" xmlns="http://www.w3.org/2000/svg">
<path d="M13 5H6.25V3.25C6.25 2.78587 6.43437 2.34075 6.76256 2.01256C7.09075 1.68437 7.53587 1.5 8 1.5C8.46413 1.5 8.90925 1.68437 9.23744 2.01256C9.56563 2.34075 9.75 2.78587 9.75 3.25C9.75 3.38261 9.80268 3.50979 9.89645 3.60355C9.99021 3.69732 10.1174 3.75 10.25 3.75C10.3826 3.75 10.5098 3.69732 10.6036 3.60355C10.6973 3.50979 10.75 3.38261 10.75 3.25C10.75 2.52065 10.4603 1.82118 9.94454 1.30546C9.42882 0.789731 8.72935 0.5 8 0.5C7.27065 0.5 6.57118 0.789731 6.05546 1.30546C5.53973 1.82118 5.25 2.52065 5.25 3.25V5H3C2.73488 5.0003 2.4807 5.10576 2.29323 5.29323C2.10576 5.4807 2.0003 5.73488 2 6V13C2.0003 13.2651 2.10576 13.5193 2.29323 13.7068C2.4807 13.8942 2.73488 13.9997 3 14H13C13.2651 13.9997 13.5193 13.8942 13.7068 13.7068C13.8942 13.5193 13.9997 13.2651 14 13V6C13.9997 5.73488 13.8942 5.4807 13.7068 5.29323C13.5193 5.10576 13.2651 5.0003 13 5Z" fill="white"/>
</svg>
