<svg width="17" height="16" viewBox="0 0 17 16" fill="none" xmlns="http://www.w3.org/2000/svg">
<path d="M14.8536 3.64646L12.8536 1.64646C12.8071 1.60003 12.752 1.56319 12.6914 1.53806C12.6307 1.51293 12.5657 1.5 12.5 1.5C12.4343 1.5 12.3693 1.51293 12.3086 1.53806C12.248 1.56319 12.1929 1.60003 12.1464 1.64646L6.14642 7.64646C6.05267 7.74023 6 7.86741 6 8.00001V10C6 10.1326 6.05268 10.2598 6.14645 10.3536C6.24022 10.4473 6.36739 10.5 6.5 10.5H8.5C8.63262 10.5 8.7598 10.4473 8.85358 10.3536L14.8536 4.35355C14.9473 4.25979 15 4.13261 15 4.00001C15 3.8674 14.9473 3.74023 14.8536 3.64646ZM13 4.7929L11.7071 3.50001L12.5 2.70712L13.7929 4.00001L13 4.7929Z" fill="white"/>
<path d="M14.1006 6.52063L9.56067 11.0605C9.4217 11.2002 9.25641 11.311 9.07434 11.3864C8.89228 11.4618 8.69706 11.5004 8.5 11.4999H6.5C6.10231 11.4994 5.72104 11.3413 5.43983 11.06C5.15862 10.7788 5.00044 10.3976 5 9.99988V7.99988C4.99946 7.80282 5.03801 7.60762 5.11342 7.42557C5.18883 7.24351 5.29961 7.07822 5.43933 6.93927L9.98047 2.39813C9.95871 2.28664 9.8991 2.1861 9.81172 2.11352C9.72434 2.04095 9.61456 2.0008 9.50097 1.99988H3.5C3.23486 2.00014 2.98066 2.10558 2.79318 2.29306C2.6057 2.48054 2.50026 2.73474 2.5 2.99988V12.9999C2.50026 13.265 2.6057 13.5192 2.79318 13.7067C2.98066 13.8942 3.23486 13.9996 3.5 13.9999H13.5C13.7651 13.9996 14.0193 13.8942 14.2068 13.7067C14.3943 13.5192 14.4997 13.265 14.5 12.9999V7.00037C14.4991 6.88657 14.4588 6.7766 14.386 6.68914C14.3132 6.60169 14.2123 6.54214 14.1006 6.52063Z" fill="white"/>
</svg>
