<svg width="12" height="14" viewBox="0 0 12 14" fill="none" xmlns="http://www.w3.org/2000/svg">
<path d="M11.0195 6.14648L2.02148 0.647457C1.86992 0.554776 1.6964 0.504151 1.51878 0.500789C1.34116 0.497428 1.16585 0.541451 1.01089 0.62833C0.855932 0.71521 0.726917 0.841807 0.637123 0.995096C0.547329 1.14839 0.499998 1.32283 0.5 1.50048V12.4995C0.500145 12.6771 0.547567 12.8515 0.637395 13.0047C0.727223 13.1579 0.856219 13.2844 1.01113 13.3712C1.16604 13.4581 1.34128 13.5021 1.51884 13.4988C1.69641 13.4956 1.8699 13.4451 2.02148 13.3525L11.0195 7.85351C11.1657 7.76413 11.2865 7.6387 11.3703 7.48925C11.454 7.3398 11.498 7.17133 11.498 7C11.498 6.82866 11.454 6.6602 11.3703 6.51075C11.2865 6.36129 11.1657 6.23587 11.0195 6.14648Z" fill="black"/>
</svg>
