<svg width="17" height="16" viewBox="0 0 17 16" fill="none" xmlns="http://www.w3.org/2000/svg">
<path d="M15.0195 7.14648L6.02148 1.64746C5.86992 1.55478 5.6964 1.50415 5.51878 1.50079C5.34116 1.49743 5.16585 1.54145 5.01089 1.62833C4.85593 1.71521 4.72692 1.84181 4.63712 1.9951C4.54733 2.14839 4.5 2.32283 4.5 2.50048V13.4995C4.50014 13.6771 4.54757 13.8515 4.63739 14.0047C4.72722 14.1579 4.85622 14.2844 5.01113 14.3712C5.16604 14.4581 5.34128 14.5021 5.51884 14.4988C5.69641 14.4956 5.8699 14.4451 6.02148 14.3525L15.0195 8.85351C15.1657 8.76413 15.2865 8.6387 15.3703 8.48925C15.454 8.3398 15.498 8.17133 15.498 8C15.498 7.82866 15.454 7.6602 15.3703 7.51075C15.2865 7.36129 15.1657 7.23587 15.0195 7.14648Z" fill="white"/>
</svg>
