<svg width="16" height="16" viewBox="0 0 16 16" fill="none" xmlns="http://www.w3.org/2000/svg">
<path d="M8 1.5C6.71442 1.5 5.45772 1.88122 4.3888 2.59545C3.31988 3.30968 2.48676 4.32484 1.99479 5.51256C1.50282 6.70028 1.37409 8.00721 1.6249 9.26809C1.8757 10.529 2.49477 11.6872 3.40381 12.5962C4.31285 13.5052 5.47104 14.1243 6.73192 14.3751C7.99279 14.6259 9.29973 14.4972 10.4874 14.0052C11.6752 13.5132 12.6903 12.6801 13.4046 11.6112C14.1188 10.5423 14.5 9.28558 14.5 8C14.498 6.2767 13.8126 4.62456 12.594 3.40601C11.3754 2.18745 9.7233 1.50199 8 1.5ZM10.2773 8.41602L7.27735 10.416C7.20206 10.4663 7.11454 10.4952 7.02411 10.4996C6.93369 10.504 6.84377 10.4838 6.76395 10.4411C6.68413 10.3983 6.61741 10.3348 6.57092 10.2571C6.52444 10.1794 6.49992 10.0905 6.5 10V6C6.49992 5.90947 6.52444 5.82062 6.57092 5.74293C6.61741 5.66525 6.68413 5.60165 6.76395 5.55894C6.84377 5.51622 6.93369 5.49598 7.02411 5.5004C7.11454 5.50481 7.20206 5.5337 7.27735 5.58398L10.2773 7.58398C10.3458 7.62964 10.402 7.6915 10.4408 7.76407C10.4797 7.83665 10.5 7.91769 10.5 8C10.5 8.08231 10.4797 8.16335 10.4408 8.23593C10.402 8.3085 10.3458 8.37036 10.2773 8.41602Z" fill="black"/>
</svg>
