<svg width="18" height="18" viewBox="0 0 18 18" fill="none" xmlns="http://www.w3.org/2000/svg">
<path d="M9 1.6875C7.55373 1.6875 6.13993 2.11637 4.9374 2.91988C3.73486 3.72339 2.7976 4.86544 2.24413 6.20163C1.69067 7.53781 1.54586 9.00811 1.82801 10.4266C2.11017 11.8451 2.80661 13.148 3.82928 14.1707C4.85196 15.1934 6.15492 15.8898 7.57341 16.172C8.99189 16.4541 10.4622 16.3093 11.7984 15.7559C13.1346 15.2024 14.2766 14.2651 15.0801 13.0626C15.8836 11.8601 16.3125 10.4463 16.3125 9C16.3103 7.06129 15.5391 5.20263 14.1682 3.83176C12.7974 2.46088 10.9387 1.68974 9 1.6875ZM11.562 9.46802L8.18702 11.718C8.10232 11.7746 8.00386 11.8071 7.90213 11.8121C7.8004 11.817 7.69924 11.7943 7.60944 11.7462C7.51965 11.6981 7.44459 11.6266 7.39229 11.5392C7.33999 11.4518 7.31241 11.3518 7.3125 11.25V6.75C7.31241 6.64815 7.33999 6.54819 7.39229 6.4608C7.44459 6.37341 7.51965 6.30186 7.60944 6.2538C7.69924 6.20575 7.8004 6.18298 7.90213 6.18795C8.00386 6.19291 8.10232 6.22541 8.18702 6.28198L11.562 8.53198C11.6391 8.58335 11.7022 8.65294 11.7459 8.73458C11.7896 8.81623 11.8125 8.9074 11.8125 9C11.8125 9.0926 11.7896 9.18377 11.7459 9.26542C11.7022 9.34706 11.6391 9.41665 11.562 9.46802Z" fill="#949494"/>
</svg>
