<svg width="24" height="24" viewBox="0 0 24 24" fill="none" xmlns="http://www.w3.org/2000/svg">
<path d="M21 6.3748C21.0001 5.73943 20.8209 5.11694 20.4829 4.57891C20.145 4.04089 19.662 3.60919 19.0896 3.33348C18.5171 3.05776 17.8785 2.94923 17.2471 3.02037C16.6158 3.0915 16.0173 3.33941 15.5206 3.73558C15.0239 4.13176 14.649 4.6601 14.4393 5.25983C14.2295 5.85957 14.1933 6.50634 14.3348 7.12575C14.4763 7.74516 14.7897 8.31205 15.2391 8.76121C15.6885 9.21038 16.2555 9.52357 16.875 9.66476V9.74985C16.8745 10.1475 16.7164 10.5288 16.4352 10.81C16.154 11.0912 15.7727 11.2494 15.375 11.2498L8.62501 11.25C8.42802 11.25 8.23297 11.2112 8.05098 11.1358C7.86899 11.0604 7.70363 10.9499 7.56435 10.8106C7.42506 10.6714 7.31457 10.506 7.23919 10.324C7.16381 10.142 7.12501 9.94697 7.12501 9.74998V9.66476C7.93402 9.48037 8.64676 9.00441 9.12708 8.3278C9.60739 7.65118 9.82162 6.82134 9.72884 5.99678C9.63607 5.17222 9.24278 4.41073 8.62412 3.85778C8.00546 3.30482 7.20477 2.99915 6.37501 2.99915C5.54524 2.99915 4.74456 3.30482 4.1259 3.85778C3.50723 4.41073 3.11395 5.17222 3.02117 5.99678C2.92839 6.82134 3.14262 7.65118 3.62294 8.3278C4.10325 9.00441 4.81599 9.48037 5.62501 9.66476V9.74998C5.625 10.144 5.70259 10.5341 5.85335 10.898C6.00411 11.262 6.22508 11.5928 6.50366 11.8713C6.78224 12.1499 7.11296 12.3709 7.47694 12.5216C7.84093 12.6724 8.23104 12.75 8.62501 12.75L11.2501 12.7499L11.2501 14.3351C10.441 14.5194 9.7283 14.9954 9.24798 15.672C8.76765 16.3486 8.55341 17.1784 8.64618 18.003C8.73895 18.8276 9.13222 19.5891 9.75088 20.142C10.3695 20.695 11.1702 21.0007 12 21.0007C12.8297 21.0007 13.6304 20.695 14.2491 20.1421C14.8678 19.5891 15.2611 18.8276 15.3538 18.0031C15.4466 17.1785 15.2324 16.3487 14.7521 15.6721C14.2718 14.9954 13.5591 14.5195 12.7501 14.3351L12.7501 12.7499L15.375 12.7498C16.1704 12.7489 16.9329 12.4326 17.4953 11.8701C18.0577 11.3077 18.3741 10.5452 18.375 9.74985V9.66476C19.1201 9.49398 19.7853 9.0757 20.262 8.47819C20.7388 7.88067 20.9989 7.1392 21 6.3748ZM13.875 17.625C13.875 17.9959 13.765 18.3584 13.559 18.6667C13.353 18.9751 13.0602 19.2154 12.7175 19.3573C12.3749 19.4992 11.9979 19.5364 11.6342 19.464C11.2705 19.3917 10.9364 19.2131 10.6742 18.9509C10.412 18.6886 10.2334 18.3545 10.161 17.9908C10.0887 17.6271 10.1258 17.2501 10.2677 16.9075C10.4096 16.5649 10.65 16.2721 10.9583 16.066C11.2667 15.86 11.6292 15.75 12 15.75C12.4971 15.7506 12.9737 15.9483 13.3252 16.2998C13.6767 16.6513 13.8745 17.1279 13.875 17.625Z" fill="black"/>
</svg>
