<svg width="18" height="18" viewBox="0 0 18 18" fill="none" xmlns="http://www.w3.org/2000/svg">
<path d="M15.75 10.6875V13.5C15.7497 13.7983 15.631 14.0842 15.4201 14.2951C15.2092 14.506 14.9233 14.6247 14.625 14.625H3.375C3.07674 14.6247 2.79079 14.506 2.57988 14.2951C2.36898 14.0842 2.25034 13.7983 2.25 13.5V10.6875C2.25034 10.3892 2.36898 10.1033 2.57988 9.89238C2.79079 9.68148 3.07674 9.56284 3.375 9.5625H14.625C14.9233 9.56284 15.2092 9.68148 15.4201 9.89238C15.631 10.1033 15.7497 10.3892 15.75 10.6875ZM14.625 3.375H3.375C3.07674 3.37534 2.79079 3.49398 2.57988 3.70488C2.36898 3.91579 2.25034 4.20174 2.25 4.5V7.3125C2.25034 7.61076 2.36898 7.89671 2.57988 8.10762C2.79079 8.31852 3.07674 8.43716 3.375 8.4375H14.625C14.9233 8.43716 15.2092 8.31852 15.4201 8.10762C15.631 7.89671 15.7497 7.61076 15.75 7.3125V4.5C15.7497 4.20174 15.631 3.91579 15.4201 3.70488C15.2092 3.49398 14.9233 3.37534 14.625 3.375Z" fill="#949494"/>
</svg>
