<svg width="16" height="16" viewBox="0 0 16 16" fill="none" xmlns="http://www.w3.org/2000/svg">
<path d="M10.9985 10C10.665 9.99988 10.3348 10.0667 10.0276 10.1965C9.72034 10.3264 9.44229 10.5165 9.20991 10.7558L6.3288 8.90366C6.55508 8.32247 6.55508 7.67753 6.3288 7.09634L9.20991 5.2442C9.6424 5.68662 10.2238 5.95271 10.8413 5.99089C11.4588 6.02907 12.0685 5.83662 12.5522 5.45085C13.0359 5.06507 13.3592 4.51344 13.4593 3.9029C13.5594 3.29235 13.4293 2.66638 13.0942 2.14631C12.759 1.62624 12.2427 1.24912 11.6454 1.08805C11.048 0.926982 10.4121 0.993439 9.86095 1.27454C9.30979 1.55564 8.88263 2.03136 8.66226 2.60948C8.44189 3.18761 8.44402 3.82696 8.66822 4.40361L5.78709 6.25577C5.44015 5.89953 4.99485 5.65484 4.50812 5.553C4.02139 5.45115 3.51535 5.49677 3.05468 5.68402C2.59401 5.87128 2.19966 6.19166 1.92202 6.60421C1.64439 7.01676 1.49609 7.50273 1.49609 8C1.49609 8.49727 1.64439 8.98324 1.92202 9.39579C2.19966 9.80834 2.59401 10.1287 3.05468 10.316C3.51535 10.5032 4.02139 10.5489 4.50812 10.447C4.99485 10.3452 5.44015 10.1005 5.78709 9.74423L8.66822 11.5964C8.47533 12.0941 8.44686 12.6406 8.58697 13.1557C8.72708 13.6707 9.02841 14.1275 9.44684 14.4589C9.86527 14.7904 10.3788 14.9792 10.9123 14.9977C11.4458 15.0162 11.9712 14.8634 12.4116 14.5617C12.852 14.26 13.1842 13.8253 13.3597 13.3211C13.5351 12.8169 13.5445 12.2699 13.3866 11.76C13.2286 11.2501 12.9116 10.8041 12.4819 10.4874C12.0521 10.1707 11.5323 9.99991 10.9985 10Z" fill="black"/>
</svg>
