<svg width="20" height="21" viewBox="0 0 20 21" fill="none" xmlns="http://www.w3.org/2000/svg">
<path d="M13.7491 12.5115C13.3322 12.5113 12.9195 12.5949 12.5354 12.7572C12.1514 12.9194 11.8038 13.1572 11.5134 13.4562L7.91198 11.141C8.19483 10.4146 8.19483 9.60839 7.91198 8.8819L11.5134 6.56673C12.054 7.11975 12.7807 7.45237 13.5526 7.50009C14.3245 7.54782 15.0866 7.30725 15.6912 6.82503C16.2959 6.34281 16.6999 5.65328 16.8251 4.8901C16.9503 4.12692 16.7876 3.34445 16.3687 2.69436C15.9498 2.04427 15.3044 1.57287 14.5577 1.37154C13.811 1.1702 13.0161 1.25327 12.3272 1.60465C11.6382 1.95602 11.1043 2.55067 10.8288 3.27333C10.5533 3.99598 10.556 4.79518 10.8363 5.51599L7.23483 7.83118C6.80116 7.38588 6.24453 7.08003 5.63612 6.95272C5.02771 6.82541 4.39516 6.88244 3.81933 7.11651C3.24349 7.35057 2.75055 7.75105 2.40351 8.26674C2.05646 8.78242 1.87109 9.38989 1.87109 10.0115C1.87109 10.6331 2.05646 11.2405 2.40351 11.7562C2.75055 12.2719 3.24349 12.6724 3.81933 12.9064C4.39516 13.1405 5.02771 13.1975 5.63612 13.0702C6.24453 12.9429 6.80116 12.6371 7.23483 12.1918L10.8363 14.507C10.5951 15.1291 10.5596 15.8122 10.7347 16.456C10.9098 17.0999 11.2865 17.6708 11.8095 18.0851C12.3326 18.4995 12.9745 18.7355 13.6414 18.7586C14.3082 18.7817 14.965 18.5907 15.5155 18.2136C16.0659 17.8365 16.4812 17.2931 16.7005 16.6629C16.9198 16.0327 16.9316 15.3488 16.7342 14.7114C16.5368 14.074 16.1404 13.5166 15.6033 13.1207C15.0662 12.7249 14.4164 12.5114 13.7491 12.5115Z" fill="white"/>
</svg>
