<svg width="16" height="16" viewBox="0 0 16 16" fill="none" xmlns="http://www.w3.org/2000/svg">
<path d="M14.9484 6.0882C14.886 5.89221 14.7659 5.71958 14.6039 5.59285C14.4419 5.46611 14.2455 5.39115 14.0402 5.37775L10.3283 5.11798L8.95135 1.6507C8.87683 1.45901 8.74615 1.2943 8.57642 1.17816C8.40669 1.06201 8.20584 0.999852 8.00017 0.999817H7.9992C7.79385 1.00018 7.5934 1.0625 7.42405 1.17863C7.25469 1.29476 7.12432 1.45928 7.04998 1.6507L5.65252 5.138L1.96111 5.37775C1.75586 5.39115 1.55941 5.46611 1.3974 5.59285C1.23539 5.71958 1.11534 5.89221 1.05291 6.0882C0.987051 6.28697 0.982571 6.50096 1.04005 6.70232C1.09753 6.90367 1.21431 7.08305 1.37517 7.2171L4.21502 9.61749L3.37029 12.9402C3.31207 13.1641 3.32277 13.4002 3.40101 13.6179C3.47925 13.8355 3.62137 14.0245 3.80877 14.16C3.9897 14.2916 4.20606 14.3657 4.4297 14.3727C4.65334 14.3797 4.8739 14.3192 5.06267 14.199L7.99236 12.3431C7.99627 12.3401 8.00017 12.3382 8.00896 12.3431L11.1613 14.3402C11.3324 14.4495 11.5326 14.5046 11.7356 14.4984C11.9386 14.4921 12.1349 14.4247 12.299 14.305C12.4688 14.1822 12.5976 14.0111 12.6685 13.8139C12.7394 13.6168 12.7492 13.4028 12.6965 13.2L11.799 9.57013L14.6262 7.2171C14.787 7.08305 14.9038 6.90367 14.9613 6.70232C15.0188 6.50096 15.0143 6.28697 14.9484 6.0882Z" fill="#FFA033"/>
</svg>
