<svg width="20" height="20" viewBox="0 0 20 20" fill="none" xmlns="http://www.w3.org/2000/svg">
<path d="M16.5 6.20246C16.3504 6.27392 16.2354 6.40186 16.1801 6.55814C16.1249 6.71442 16.134 6.88625 16.2054 7.03582C16.939 8.56633 17.0811 10.3139 16.6044 11.9428C16.1278 13.5717 15.066 14.9671 13.6232 15.8607C12.1803 16.7544 10.4581 17.0834 8.78739 16.7844C7.11671 16.4855 5.61542 15.5797 4.57197 14.2412C3.52851 12.9026 3.01649 11.2257 3.13428 9.53255C3.25207 7.83943 3.99136 6.24956 5.21011 5.06838C6.42886 3.8872 8.0411 3.19805 9.73708 3.13332C11.4331 3.0686 13.0931 3.63286 14.3984 4.71771L12.6195 6.4965C11.7338 5.83413 10.63 5.53185 9.53039 5.65047C8.43075 5.7691 7.41686 6.29983 6.69276 7.13587C5.96865 7.9719 5.58809 9.05117 5.62765 10.1565C5.66722 11.2618 6.12397 12.3111 6.906 13.0932L6.90634 13.0936L6.90676 13.094C7.53371 13.7208 8.33628 14.1423 9.20817 14.3028C10.0801 14.4632 10.9801 14.355 11.7891 13.9925C12.5981 13.6299 13.2779 13.0302 13.7384 12.2726C14.1989 11.5151 14.4185 10.6355 14.3679 9.75044C14.3632 9.66849 14.3425 9.58827 14.3068 9.51434C14.2711 9.44041 14.2213 9.37424 14.16 9.31959C14.0988 9.26494 14.0274 9.22288 13.9499 9.19583C13.8724 9.16877 13.7903 9.15725 13.7084 9.16191C13.6265 9.16656 13.5462 9.18732 13.4723 9.22298C13.3984 9.25865 13.3322 9.30852 13.2776 9.36976C13.2229 9.431 13.1809 9.5024 13.1538 9.57989C13.1267 9.65738 13.1152 9.73945 13.1199 9.82139C13.1528 10.4002 13.0241 10.9767 12.7482 11.4866C12.4723 11.9965 12.0601 12.4196 11.5576 12.7087C11.055 12.9977 10.482 13.1414 9.90259 13.1235C9.32313 13.1057 8.76006 12.927 8.27627 12.6076L10.1473 10.7366L13.0936 7.79029L13.094 7.78987L17.942 2.94193C18.0592 2.82471 18.125 2.66573 18.125 2.49996C18.125 2.33419 18.0592 2.17522 17.9419 2.058C17.8247 1.94079 17.6657 1.87494 17.5 1.87495C17.3342 1.87495 17.1752 1.9408 17.058 2.05802L15.2865 3.82957C13.6911 2.4628 11.6284 1.76705 9.53114 1.88832C7.43388 2.00958 5.4651 2.93844 4.03792 4.47998C2.61073 6.02152 1.83608 8.05592 1.87651 10.1563C1.91693 12.2567 2.7693 14.2598 4.25475 15.7452C5.61031 17.1004 7.40125 17.9327 9.3111 18.0952C11.2209 18.2577 13.1268 17.7398 14.6918 16.6332C16.2568 15.5265 17.3802 13.9023 17.8636 12.0475C18.347 10.1927 18.1592 8.22676 17.3334 6.49703C17.298 6.42297 17.2484 6.3566 17.1873 6.30172C17.1263 6.24683 17.0551 6.2045 16.9777 6.17715C16.9003 6.14979 16.8183 6.13795 16.7363 6.14229C16.6544 6.14664 16.5741 6.16708 16.5 6.20246Z" fill="#949494"/>
</svg>
