<svg width="18" height="18" viewBox="0 0 18 18" fill="none" xmlns="http://www.w3.org/2000/svg">
<path d="M7.3125 1.125H10.6875C10.8367 1.125 10.9798 1.06574 11.0852 0.960248C11.1907 0.854758 11.25 0.711684 11.25 0.5625C11.25 0.413316 11.1907 0.270242 11.0852 0.164752C10.9798 0.0592632 10.8367 0 10.6875 0L7.3125 0C7.16332 0 7.02024 0.0592632 6.91475 0.164752C6.80926 0.270242 6.75 0.413316 6.75 0.5625C6.75 0.711684 6.80926 0.854758 6.91475 0.960248C7.02024 1.06574 7.16332 1.125 7.3125 1.125Z" fill="#949494"/>
<path d="M9 2.25C7.66498 2.25 6.35994 2.64588 5.2499 3.38758C4.13987 4.12928 3.27471 5.18349 2.76382 6.41689C2.25292 7.65029 2.11925 9.00749 2.3797 10.3169C2.64015 11.6262 3.28303 12.829 4.22703 13.773C5.17104 14.717 6.37377 15.3598 7.68314 15.6203C8.99252 15.8808 10.3497 15.7471 11.5831 15.2362C12.8165 14.7253 13.8707 13.8601 14.6124 12.7501C15.3541 11.6401 15.75 10.335 15.75 9C15.748 7.21041 15.0362 5.4947 13.7707 4.22926C12.5053 2.96383 10.7896 2.25202 9 2.25ZM12.182 6.61349L9.39778 9.39774C9.34555 9.44998 9.28354 9.49141 9.21529 9.51968C9.14704 9.54796 9.0739 9.56251 9.00003 9.56251C8.92616 9.56252 8.85301 9.54797 8.78476 9.5197C8.71651 9.49144 8.6545 9.45001 8.60226 9.39777C8.55003 9.34554 8.50859 9.28353 8.48032 9.21529C8.45205 9.14704 8.43749 9.07389 8.43749 9.00002C8.43749 8.92615 8.45203 8.85301 8.4803 8.78476C8.50857 8.71651 8.55 8.6545 8.60223 8.60226L11.3865 5.81802C11.4387 5.76578 11.5007 5.72435 11.569 5.69608C11.6372 5.66781 11.7104 5.65326 11.7842 5.65325C11.8581 5.65325 11.9312 5.6678 11.9995 5.69607C12.0677 5.72433 12.1297 5.76577 12.182 5.818C12.2342 5.87023 12.2756 5.93224 12.3039 6.00048C12.3322 6.06873 12.3467 6.14187 12.3467 6.21574C12.3467 6.28961 12.3322 6.36276 12.3039 6.431C12.2757 6.49925 12.2342 6.56126 12.182 6.61349H12.182Z" fill="#949494"/>
</svg>
