<svg width="24" height="24" viewBox="0 0 24 24" fill="none" xmlns="http://www.w3.org/2000/svg">
<path d="M9.37488 10.9175C9.4889 10.8517 9.58357 10.757 9.6494 10.643C9.71523 10.529 9.74988 10.3997 9.74988 10.268V3.51217C9.74988 3.3922 9.72108 3.27398 9.66593 3.16743C9.61077 3.06088 9.53086 2.96912 9.4329 2.89985C9.33495 2.83058 9.2218 2.78582 9.10296 2.76933C8.98413 2.75283 8.86307 2.76509 8.74995 2.80507C6.56052 3.58168 4.71972 5.11347 3.55817 7.12532C2.39663 9.13716 1.99044 11.4972 2.41258 13.7816C2.43437 13.8997 2.48419 14.0108 2.55786 14.1056C2.63152 14.2004 2.72686 14.2761 2.83588 14.3264C2.94489 14.3767 3.06439 14.4001 3.18432 14.3946C3.30425 14.3891 3.42111 14.3549 3.52508 14.2949L9.37488 10.9175ZM8.24988 4.64908V9.83499L3.76092 12.4267C3.75368 12.2847 3.75005 12.1425 3.75002 12C3.75167 10.4795 4.17258 8.98878 4.96646 7.6919C5.76034 6.39502 6.89645 5.34216 8.24988 4.64908Z" fill="black"/>
<path d="M20.4642 7.1624C20.4579 7.1499 20.4521 7.13727 20.445 7.125C20.4355 7.10843 20.4248 7.09291 20.4142 7.07739C19.5548 5.6089 18.3261 4.39077 16.8503 3.54393C15.3745 2.6971 13.7028 2.25103 12.0013 2.25C11.8024 2.25 11.6116 2.32902 11.4709 2.46967C11.3303 2.61032 11.2513 2.80109 11.2513 3V11.567L3.83202 15.8505C3.65976 15.9499 3.53407 16.1138 3.48259 16.3059C3.43111 16.498 3.45805 16.7027 3.5575 16.875C3.56066 16.8804 3.56462 16.8851 3.56789 16.8905C3.57618 16.9073 3.5844 16.9241 3.59407 16.9405C4.67853 18.7853 6.3397 20.2221 8.32148 21.0294C10.3032 21.8368 12.4956 21.9697 14.5604 21.4079C16.6252 20.8461 18.4479 19.6206 19.7474 17.9205C21.0469 16.2203 21.751 14.1399 21.7513 12C21.7533 10.3026 21.3095 8.63438 20.4642 7.1624Z" fill="black"/>
</svg>
