<svg width="22" height="18" viewBox="0 0 22 18" fill="none" xmlns="http://www.w3.org/2000/svg">
<path d="M20.375 15.75H19.625V0.75C19.625 0.551088 19.546 0.360324 19.4053 0.219672C19.2647 0.0790204 19.0739 1.98909e-06 18.875 0H13.625C13.4261 1.98909e-06 13.2353 0.0790204 13.0947 0.219672C12.954 0.360324 12.875 0.551088 12.875 0.75V4.5H8.375C8.17609 4.5 7.98532 4.57902 7.84467 4.71967C7.70402 4.86032 7.625 5.05109 7.625 5.25V9H3.125C2.92609 9 2.73532 9.07902 2.59467 9.21967C2.45402 9.36032 2.375 9.55109 2.375 9.75V15.75H1.625C1.42609 15.75 1.23532 15.829 1.09467 15.9697C0.954018 16.1103 0.875 16.3011 0.875 16.5C0.875 16.6989 0.954018 16.8897 1.09467 17.0303C1.23532 17.171 1.42609 17.25 1.625 17.25H20.375C20.5739 17.25 20.7647 17.171 20.9053 17.0303C21.046 16.8897 21.125 16.6989 21.125 16.5C21.125 16.3011 21.046 16.1103 20.9053 15.9697C20.7647 15.829 20.5739 15.75 20.375 15.75ZM9.125 6H12.875V15.75H9.125V6ZM3.875 10.5H7.625V15.75H3.875V10.5Z" fill="black"/>
</svg>
