<svg width="14" height="20" viewBox="0 0 14 20" fill="none" xmlns="http://www.w3.org/2000/svg">
<path d="M13.1545 6.28799C13.3391 6.14772 13.4888 5.96678 13.5921 5.75925C13.6954 5.55171 13.7494 5.32316 13.75 5.09135V1.75C13.7495 1.35231 13.5914 0.971048 13.3102 0.689842C13.029 0.408636 12.6477 0.250455 12.25 0.25H1.75C1.35231 0.250455 0.971048 0.408636 0.689842 0.689842C0.408636 0.971048 0.250455 1.35231 0.25 1.75V5.125C0.250548 5.35777 0.305006 5.58724 0.409103 5.79544C0.513199 6.00363 0.664106 6.18488 0.84999 6.32498L2.5494 7.59953L2.54944 7.59958L5.74998 10L0.850037 13.675C0.664139 13.8151 0.513219 13.9964 0.409114 14.2046C0.305009 14.4127 0.250547 14.6422 0.25 14.875V18.25C0.250455 18.6477 0.408636 19.029 0.689842 19.3102C0.971048 19.5914 1.35231 19.7495 1.75 19.75H12.25C12.6477 19.7495 13.029 19.5914 13.3102 19.3102C13.5914 19.029 13.7495 18.6477 13.75 18.25V14.9086C13.7494 14.6768 13.6954 14.4483 13.5921 14.2407C13.4888 14.0332 13.3391 13.8523 13.1545 13.712L8.24374 10L10.3723 8.39105L13.1545 6.28799ZM1.75 1.75H12.25V5.0914L11.71 5.49959H2.24947L1.75 5.125V1.75ZM12.25 14.9086V18.25H1.75V14.875L6.25 11.5V13.7496C6.25 13.9485 6.32902 14.1393 6.46967 14.2799C6.61032 14.4206 6.80109 14.4996 7 14.4996C7.19891 14.4996 7.38968 14.4206 7.53033 14.2799C7.67098 14.1393 7.75 13.9485 7.75 13.7496V11.5071L12.25 14.9086Z" fill="black"/>
</svg>
