<svg width="16" height="15" viewBox="0 0 16 15" fill="none" xmlns="http://www.w3.org/2000/svg">
<path d="M11.25 12.0995C11.5964 11.9489 11.9307 11.772 12.25 11.5703V14C12.25 14.1326 12.1973 14.2598 12.1036 14.3535C12.0098 14.4473 11.8826 14.5 11.75 14.5C11.6174 14.5 11.4902 14.4473 11.3964 14.3535C11.3027 14.2598 11.25 14.1326 11.25 14V12.0995ZM7.55884 4.76469C7.52794 4.82263 7.50875 4.88608 7.50238 4.95143C7.496 5.01678 7.50256 5.08274 7.52167 5.14556C7.54079 5.20837 7.57209 5.26681 7.61379 5.31752C7.65549 5.36824 7.70677 5.41025 7.76471 5.44115L10.6875 6.99998L11.75 6.43333L8.23529 4.55882C8.17736 4.52791 8.11391 4.50871 8.04855 4.50232C7.9832 4.49594 7.91723 4.50249 7.85441 4.52161C7.79159 4.54073 7.73316 4.57204 7.68244 4.61375C7.63173 4.65546 7.58972 4.70675 7.55884 4.76469ZM15.7353 4.55882L8.23529 0.558823C8.16288 0.520202 8.08207 0.5 8 0.5C7.91793 0.5 7.83712 0.520202 7.76471 0.558823L0.264709 4.55882C0.184748 4.60146 0.11788 4.66504 0.0712549 4.74274C0.0246295 4.82045 0 4.90936 0 4.99998C0 5.09061 0.0246295 5.17952 0.0712549 5.25723C0.11788 5.33493 0.184748 5.39851 0.264709 5.44115L1.75 6.23331V9.34087C1.75026 9.55701 1.82028 9.7673 1.94965 9.94045C2.44495 10.5995 4.34497 12.75 8 12.75C9.11696 12.7602 10.2238 12.5376 11.25 12.0965V7.29997L10.6875 6.99998L8 8.43333L2.48978 5.49454L2.48621 5.49263L1.5625 4.99998L8 1.56664L14.4375 4.99998L13.5138 5.49263L13.5102 5.49454L11.75 6.43333L11.9853 6.55882C12.0648 6.60201 12.1313 6.6657 12.1778 6.74329C12.2244 6.82087 12.2493 6.90951 12.25 6.99998V11.5667C12.9414 11.1352 13.5509 10.5846 14.0503 9.94051C14.1797 9.76735 14.2497 9.55704 14.25 9.34087V6.2333L15.7353 5.44114C15.8153 5.3985 15.8821 5.33493 15.9287 5.25722C15.9754 5.17952 16 5.0906 16 4.99998C16 4.90936 15.9754 4.82044 15.9287 4.74274C15.8821 4.66503 15.8153 4.60146 15.7353 4.55882Z" fill="black"/>
</svg>
