<svg width="16" height="16" viewBox="0 0 16 16" fill="none" xmlns="http://www.w3.org/2000/svg">
<path d="M14.9295 11.9268L12.6568 14.4268C12.6142 14.4737 12.5564 14.5 12.4961 14.5C12.4358 14.5 12.378 14.4737 12.3354 14.4268L10.0627 11.9268C10.0309 11.8918 10.0092 11.8473 10.0005 11.7988C9.99169 11.7503 9.99619 11.7 10.0134 11.6543C10.0306 11.6086 10.0597 11.5696 10.0971 11.5421C10.1345 11.5147 10.1784 11.5 10.2234 11.5H14.7688C14.8138 11.5 14.8577 11.5147 14.8951 11.5421C14.9325 11.5696 14.9616 11.6086 14.9788 11.6543C14.996 11.7 15.0005 11.7503 14.9917 11.7988C14.983 11.8473 14.9613 11.8918 14.9295 11.9268Z" fill="black"/>
<path fill-rule="evenodd" clip-rule="evenodd" d="M11.9961 2.5C12.1287 2.5 12.2558 2.55272 12.3496 2.64648C12.4434 2.74025 12.4961 2.86739 12.4961 3C12.4961 3.13261 12.4434 3.25975 12.3496 3.35352C12.2558 3.44728 12.1287 3.5 11.9961 3.5H3.49609C3.36349 3.5 3.23635 3.55272 3.14258 3.64648C3.04881 3.74025 2.99609 3.86739 2.99609 4C2.99609 4.13261 3.04881 4.25975 3.14258 4.35352C3.23635 4.44728 3.36349 4.5 3.49609 4.5H13.4961C13.7612 4.5003 14.0152 4.60599 14.2026 4.79346C14.3901 4.98093 14.4958 5.23488 14.4961 5.5V10.5H10.2231C9.95806 10.5 9.708 10.587 9.50488 10.7363C9.30317 10.8846 9.15933 11.0849 9.07764 11.3018C8.99611 11.5183 8.97602 11.752 9.0166 11.9766L9.03467 12.0605C9.08368 12.2553 9.17967 12.4422 9.32275 12.5996L10.1411 13.5H3.49609C3.09841 13.4995 2.71724 13.3413 2.43604 13.0601C2.15483 12.7789 1.99655 12.3977 1.99609 12V4C1.99655 3.60231 2.15483 3.22115 2.43604 2.93994C2.71724 2.65874 3.09841 2.50045 3.49609 2.5H11.9961ZM11.5332 8.30713C11.3962 8.25036 11.2451 8.23571 11.0996 8.26465C10.9542 8.29361 10.8207 8.36489 10.7158 8.46973C10.611 8.57457 10.5397 8.70811 10.5107 8.85352C10.4818 8.999 10.4965 9.15006 10.5532 9.28711C10.61 9.42411 10.7063 9.54114 10.8296 9.62354C10.9529 9.70591 11.0978 9.75 11.2461 9.75C11.445 9.75 11.6357 9.67093 11.7764 9.53027C11.917 9.38962 11.9961 9.19891 11.9961 9C11.9961 8.8517 11.952 8.70681 11.8696 8.5835C11.7872 8.46019 11.6702 8.3639 11.5332 8.30713Z" fill="black"/>
</svg>
