<svg width="16" height="16" viewBox="0 0 16 16" fill="none" xmlns="http://www.w3.org/2000/svg">
<path d="M8.7073 8.00001L12.8538 3.85356C12.9474 3.75977 13 3.63263 13 3.50008C12.9999 3.36753 12.9473 3.24042 12.8535 3.14669C12.7598 3.05296 12.6327 3.00029 12.5001 3.00024C12.3676 3.0002 12.2405 3.0528 12.1467 3.14647L8.00021 7.29292L3.85376 3.14647C3.75997 3.0528 3.63283 3.0002 3.50028 3.00024C3.36773 3.00029 3.24061 3.05296 3.14689 3.14669C3.05316 3.24042 3.00049 3.36753 3.00044 3.50008C3.0004 3.63263 3.053 3.75977 3.14667 3.85356L7.29312 8.00001L3.14667 12.1465C3.10019 12.1929 3.06332 12.248 3.03815 12.3087C3.01298 12.3694 3.00002 12.4344 3 12.5001C2.99998 12.5658 3.0129 12.6308 3.03803 12.6915C3.06316 12.7522 3.1 12.8073 3.14644 12.8538C3.19289 12.9002 3.24803 12.9371 3.30872 12.9622C3.36941 12.9873 3.43446 13.0002 3.50015 13.0002C3.56583 13.0002 3.63087 12.9872 3.69155 12.9621C3.75222 12.9369 3.80734 12.9 3.85376 12.8536L8.00021 8.7071L12.1467 12.8536C12.2405 12.9472 12.3676 12.9998 12.5001 12.9998C12.6327 12.9997 12.7598 12.9471 12.8535 12.8533C12.9473 12.7596 12.9999 12.6325 13 12.4999C13 12.3674 12.9474 12.2403 12.8538 12.1465L8.7073 8.00001Z" fill="#FF1A4B"/>
</svg>
