<svg width="24" height="24" viewBox="0 0 24 24" fill="none" xmlns="http://www.w3.org/2000/svg">
<path d="M11.3627 14.8076C12.369 14.1391 13.1334 13.1645 13.5427 12.0279C13.952 10.8913 13.9845 9.65307 13.6354 8.49654C13.2863 7.34002 12.5741 6.32661 11.6043 5.60631C10.6344 4.886 9.45847 4.49707 8.2504 4.49707C7.04233 4.49707 5.86636 4.886 4.89652 5.60631C3.92668 6.32661 3.21451 7.34002 2.8654 8.49654C2.51629 9.65307 2.54879 10.8913 2.9581 12.0279C3.3674 13.1645 4.13176 14.1391 5.13806 14.8076C3.42262 15.4404 1.94001 16.5796 0.886728 18.0741C0.807651 18.1865 0.760943 18.3184 0.7517 18.4554C0.742457 18.5925 0.771034 18.7294 0.834312 18.8514C0.897591 18.9733 0.993141 19.0755 1.11054 19.1468C1.22794 19.2182 1.36267 19.2559 1.50004 19.2559L15.0005 19.2554C15.1378 19.2554 15.2726 19.2177 15.3899 19.1463C15.5073 19.075 15.6029 18.9727 15.6661 18.8508C15.7294 18.7289 15.758 18.5919 15.7487 18.4548C15.7394 18.3178 15.6927 18.1859 15.6136 18.0736C14.5604 16.5793 13.0779 15.4403 11.3627 14.8076Z" fill="black"/>
<path d="M23.2563 18.0736C22.203 16.5793 20.7206 15.4403 19.0054 14.8076C20.1205 14.0652 20.9342 12.9492 21.2998 11.6604C21.6655 10.3716 21.5592 8.99465 21 7.77725C20.4409 6.55985 19.4656 5.58198 18.2496 5.01962C17.0337 4.45725 15.657 4.3473 14.3673 4.70957C14.2502 4.7425 14.1428 4.80341 14.0545 4.88706C13.9662 4.97071 13.8996 5.07457 13.8604 5.18971C13.8212 5.30484 13.8105 5.42779 13.8294 5.54795C13.8483 5.6681 13.8961 5.78187 13.9687 5.87943C14.8165 7.0183 15.3039 8.38495 15.3681 9.8033C15.4323 11.2217 15.0703 12.6267 14.3288 13.8375C14.2309 13.9972 14.1962 14.1877 14.2317 14.3717C14.2672 14.5556 14.3702 14.7196 14.5205 14.8314C14.8049 15.043 15.0785 15.2687 15.3402 15.5077C15.3538 15.5224 15.3674 15.5371 15.3823 15.5509C16.3833 16.4763 17.1947 17.5878 17.771 18.8232C17.8313 18.9526 17.9274 19.062 18.0477 19.1386C18.1681 19.2152 18.3079 19.2559 18.4506 19.2559L22.6432 19.2554C22.7805 19.2554 22.9152 19.2177 23.0326 19.1463C23.15 19.075 23.2455 18.9727 23.3088 18.8508C23.3721 18.7289 23.4006 18.5919 23.3914 18.4549C23.3821 18.3178 23.3354 18.1859 23.2563 18.0736L23.2563 18.0736Z" fill="black"/>
</svg>
