<svg width="24" height="24" viewBox="0 0 24 24" fill="none" xmlns="http://www.w3.org/2000/svg">
<path d="M14.625 8.625V7.5H13.5C13.1023 7.50045 12.721 7.65864 12.4398 7.93984C12.1586 8.22105 12.0005 8.60231 12 9V15C12.0005 15.3977 12.1586 15.779 12.4398 16.0602C12.721 16.3414 13.1023 16.4995 13.5 16.5H14.625V15.375C14.6255 14.9773 14.7836 14.596 15.0648 14.3148C15.346 14.0336 15.7273 13.8755 16.125 13.875H19.875C20.2727 13.8755 20.654 14.0336 20.9352 14.3148C21.2164 14.596 21.3745 14.9773 21.375 15.375V19.125C21.3745 19.5227 21.2164 19.904 20.9352 20.1852C20.654 20.4664 20.2727 20.6245 19.875 20.625H16.125C15.7273 20.6245 15.346 20.4664 15.0648 20.1852C14.7836 19.904 14.6255 19.5227 14.625 19.125V18H13.5C12.7046 17.9991 11.9421 17.6827 11.3797 17.1203C10.8173 16.5579 10.5009 15.7954 10.5 15V12.75H7.875V13.5C7.87455 13.8977 7.71636 14.279 7.43516 14.5602C7.15395 14.8414 6.77269 14.9995 6.375 15H3.375C2.97731 14.9995 2.59605 14.8414 2.31484 14.5602C2.03364 14.279 1.87545 13.8977 1.875 13.5V10.5C1.87545 10.1023 2.03364 9.72105 2.31484 9.43984C2.59605 9.15864 2.97731 9.00045 3.375 9H6.375C6.77269 9.00045 7.15395 9.15864 7.43516 9.43984C7.71636 9.72105 7.87455 10.1023 7.875 10.5V11.25H10.5V9C10.5009 8.20463 10.8173 7.44209 11.3797 6.87968C11.9421 6.31726 12.7046 6.0009 13.5 6H14.625V4.875C14.6255 4.47731 14.7836 4.09605 15.0648 3.81484C15.346 3.53364 15.7273 3.37545 16.125 3.375H19.875C20.2727 3.37545 20.654 3.53364 20.9352 3.81484C21.2164 4.09605 21.3745 4.47731 21.375 4.875V8.625C21.3745 9.02269 21.2164 9.40395 20.9352 9.68516C20.654 9.96636 20.2727 10.1245 19.875 10.125H16.125C15.7273 10.1245 15.346 9.96636 15.0648 9.68516C14.7836 9.40395 14.6255 9.02269 14.625 8.625Z" fill="black"/>
</svg>
