<svg width="16" height="16" viewBox="0 0 16 16" fill="none" xmlns="http://www.w3.org/2000/svg">
<path d="M6 13C6.39769 13.0005 6.77895 13.1586 7.06016 13.4398C7.34136 13.721 7.49955 14.1023 7.5 14.5C7.5 14.6326 7.55268 14.7598 7.64645 14.8536C7.74021 14.9473 7.86739 15 8 15C8.13261 15 8.25979 14.9473 8.35355 14.8536C8.44732 14.7598 8.5 14.6326 8.5 14.5C8.50045 14.1023 8.65864 13.721 8.93984 13.4398C9.22105 13.1586 9.60231 13.0005 10 13H14C14.2651 12.9997 14.5193 12.8942 14.7068 12.7068C14.8942 12.5193 14.9997 12.2651 15 12V4C14.9997 3.73488 14.8942 3.4807 14.7068 3.29323C14.5193 3.10576 14.2651 3.0003 14 3H11C10.3372 3.00075 9.70174 3.26439 9.23306 3.73306C8.76439 4.20174 8.50075 4.83719 8.5 5.5V10.5C8.5 10.6326 8.44732 10.7598 8.35355 10.8536C8.25979 10.9473 8.13261 11 8 11C7.86739 11 7.74021 10.9473 7.64645 10.8536C7.55268 10.7598 7.5 10.6326 7.5 10.5V5.5C7.49925 4.83719 7.23561 4.20174 6.76694 3.73306C6.29826 3.26439 5.66281 3.00075 5 3H2C1.73488 3.0003 1.4807 3.10576 1.29323 3.29323C1.10576 3.4807 1.0003 3.73488 1 4V12C1.0003 12.2651 1.10576 12.5193 1.29323 12.7068C1.4807 12.8942 1.73488 12.9997 2 13H6Z" fill="#949494"/>
</svg>
