<svg width="16" height="16" viewBox="0 0 16 16" fill="none" xmlns="http://www.w3.org/2000/svg">
<path d="M13.6419 4.77499C13.6377 4.76666 13.6339 4.75824 13.6292 4.75006C13.6228 4.73901 13.6157 4.72866 13.6086 4.71832C12.7415 3.23491 11.3221 2.15532 9.66107 1.7157C8 1.27608 6.23242 1.51222 4.74501 2.37247C3.25759 3.23272 2.17142 4.64705 1.72409 6.30606C1.27677 7.96508 1.5047 9.73373 2.35804 11.2251C2.36225 11.2335 2.36609 11.2419 2.37081 11.2501C2.37528 11.2578 2.38072 11.2646 2.38554 11.272C3.25058 12.7578 4.66916 13.8402 6.33062 14.2823C7.99207 14.7243 9.76101 14.49 11.25 13.6306C12.7391 12.7711 13.8268 11.3566 14.2752 9.69683C14.7235 8.03705 14.4958 6.26725 13.6419 4.77499ZM12.4917 4.82946L8.49999 7.13403V2.52304C9.29257 2.59587 10.0599 2.8398 10.7491 3.238C11.4382 3.63619 12.0327 4.17917 12.4917 4.82946ZM7.99999 13.5001C7.11947 13.4999 6.25188 13.2882 5.47022 12.8828C4.68857 12.4775 4.01573 11.8903 3.50832 11.1707L12.9929 5.69479C13.38 6.53272 13.5501 7.45465 13.4872 8.37557C13.4244 9.2965 13.1308 10.1868 12.6334 10.9644C12.136 11.742 11.4508 12.3818 10.6411 12.825C9.83133 13.2681 8.92306 13.5003 7.99999 13.5001Z" fill="black"/>
</svg>
