<svg width="20" height="20" viewBox="0 0 20 20" fill="none" xmlns="http://www.w3.org/2000/svg">
<g filter="url(#filter0_d_4024_626)">
<path d="M10 9.0625C12.0711 9.0625 13.75 7.38357 13.75 5.3125C13.75 3.24143 12.0711 1.5625 10 1.5625C7.92893 1.5625 6.25 3.24143 6.25 5.3125C6.25 7.38357 7.92893 9.0625 10 9.0625Z" fill="black"/>
<path d="M10 9.0625C12.0711 9.0625 13.75 7.38357 13.75 5.3125C13.75 3.24143 12.0711 1.5625 10 1.5625C7.92893 1.5625 6.25 3.24143 6.25 5.3125C6.25 7.38357 7.92893 9.0625 10 9.0625Z" fill="url(#paint0_linear_4024_626)"/>
</g>
<path d="M14.6875 17.1875C16.7586 17.1875 18.4375 15.5086 18.4375 13.4375C18.4375 11.3664 16.7586 9.6875 14.6875 9.6875C12.6164 9.6875 10.9375 11.3664 10.9375 13.4375C10.9375 15.5086 12.6164 17.1875 14.6875 17.1875Z" fill="black"/>
<path d="M14.6875 17.1875C16.7586 17.1875 18.4375 15.5086 18.4375 13.4375C18.4375 11.3664 16.7586 9.6875 14.6875 9.6875C12.6164 9.6875 10.9375 11.3664 10.9375 13.4375C10.9375 15.5086 12.6164 17.1875 14.6875 17.1875Z" fill="url(#paint1_linear_4024_626)"/>
<path d="M5.3125 17.1875C7.38357 17.1875 9.0625 15.5086 9.0625 13.4375C9.0625 11.3664 7.38357 9.6875 5.3125 9.6875C3.24143 9.6875 1.5625 11.3664 1.5625 13.4375C1.5625 15.5086 3.24143 17.1875 5.3125 17.1875Z" fill="black"/>
<path d="M5.3125 17.1875C7.38357 17.1875 9.0625 15.5086 9.0625 13.4375C9.0625 11.3664 7.38357 9.6875 5.3125 9.6875C3.24143 9.6875 1.5625 11.3664 1.5625 13.4375C1.5625 15.5086 3.24143 17.1875 5.3125 17.1875Z" fill="url(#paint2_linear_4024_626)"/>
<defs>
<filter id="filter0_d_4024_626" x="2.25" y="1.5625" width="15.5" height="15.5" filterUnits="userSpaceOnUse" color-interpolation-filters="sRGB">
<feFlood flood-opacity="0" result="BackgroundImageFix"/>
<feColorMatrix in="SourceAlpha" type="matrix" values="0 0 0 0 0 0 0 0 0 0 0 0 0 0 0 0 0 0 127 0" result="hardAlpha"/>
<feOffset dy="4"/>
<feGaussianBlur stdDeviation="2"/>
<feComposite in2="hardAlpha" operator="out"/>
<feColorMatrix type="matrix" values="0 0 0 0 0.792157 0 0 0 0 0.992157 0 0 0 0 0.364706 0 0 0 0.5 0"/>
<feBlend mode="normal" in2="BackgroundImageFix" result="effect1_dropShadow_4024_626"/>
<feBlend mode="normal" in="SourceGraphic" in2="effect1_dropShadow_4024_626" result="shape"/>
</filter>
<linearGradient id="paint0_linear_4024_626" x1="10" y1="1.5625" x2="10" y2="9.0625" gradientUnits="userSpaceOnUse">
<stop stop-color="#CAFD5D"/>
<stop offset="1" stop-color="#7FD400"/>
</linearGradient>
<linearGradient id="paint1_linear_4024_626" x1="14.6875" y1="9.6875" x2="14.6875" y2="17.1875" gradientUnits="userSpaceOnUse">
<stop stop-color="#CAFD5D"/>
<stop offset="1" stop-color="#7FD400"/>
</linearGradient>
<linearGradient id="paint2_linear_4024_626" x1="5.3125" y1="9.6875" x2="5.3125" y2="17.1875" gradientUnits="userSpaceOnUse">
<stop stop-color="#CAFD5D"/>
<stop offset="1" stop-color="#7FD400"/>
</linearGradient>
</defs>
</svg>
