<svg width="16" height="16" viewBox="0 0 16 16" fill="none" xmlns="http://www.w3.org/2000/svg">
<path d="M11.25 13.0995C11.5964 12.9489 11.9307 12.772 12.25 12.5703V15C12.25 15.1326 12.1973 15.2598 12.1036 15.3535C12.0098 15.4473 11.8826 15.5 11.75 15.5C11.6174 15.5 11.4902 15.4473 11.3964 15.3535C11.3027 15.2598 11.25 15.1326 11.25 15V13.0995ZM7.55884 5.76469C7.52794 5.82263 7.50875 5.88608 7.50238 5.95143C7.496 6.01678 7.50256 6.08274 7.52167 6.14556C7.54079 6.20837 7.57209 6.26681 7.61379 6.31752C7.65549 6.36824 7.70677 6.41025 7.76471 6.44115L10.6875 7.99998L11.75 7.43333L8.23529 5.55882C8.17736 5.52791 8.11391 5.50871 8.04855 5.50232C7.9832 5.49594 7.91723 5.50249 7.85441 5.52161C7.79159 5.54073 7.73316 5.57204 7.68244 5.61375C7.63173 5.65546 7.58972 5.70675 7.55884 5.76469ZM15.7353 5.55882L8.23529 1.55882C8.16288 1.5202 8.08207 1.5 8 1.5C7.91793 1.5 7.83712 1.5202 7.76471 1.55882L0.264709 5.55882C0.184748 5.60146 0.11788 5.66504 0.0712549 5.74274C0.0246295 5.82045 0 5.90936 0 5.99998C0 6.09061 0.0246295 6.17952 0.0712549 6.25723C0.11788 6.33493 0.184748 6.39851 0.264709 6.44115L1.75 7.23331V10.3409C1.75026 10.557 1.82028 10.7673 1.94965 10.9404C2.44495 11.5995 4.34497 13.75 8 13.75C9.11696 13.7602 10.2238 13.5376 11.25 13.0965V8.29997L10.6875 7.99998L8 9.43333L2.48978 6.49454L2.48621 6.49263L1.5625 5.99998L8 2.56664L14.4375 5.99998L13.5138 6.49263L13.5102 6.49454L11.75 7.43333L11.9853 7.55882C12.0648 7.60201 12.1313 7.6657 12.1778 7.74329C12.2244 7.82087 12.2493 7.90951 12.25 7.99998V12.5667C12.9414 12.1352 13.5509 11.5846 14.0503 10.9405C14.1797 10.7673 14.2497 10.557 14.25 10.3409V7.2333L15.7353 6.44114C15.8153 6.3985 15.8821 6.33493 15.9287 6.25722C15.9754 6.17952 16 6.0906 16 5.99998C16 5.90936 15.9754 5.82044 15.9287 5.74274C15.8821 5.66503 15.8153 5.60146 15.7353 5.55882Z" fill="black"/>
</svg>
