<svg width="20" height="20" viewBox="0 0 20 20" fill="none" xmlns="http://www.w3.org/2000/svg">
<path d="M13.75 18.1251C13.75 18.2908 13.6841 18.4498 13.5669 18.567C13.4497 18.6842 13.2908 18.7501 13.125 18.7501H6.87499C6.70923 18.7501 6.55026 18.6842 6.43305 18.567C6.31584 18.4498 6.24999 18.2908 6.24999 18.1251C6.24999 17.9593 6.31584 17.8003 6.43305 17.6831C6.55026 17.5659 6.70923 17.5001 6.87499 17.5001H13.125C13.2908 17.5001 13.4497 17.5659 13.5669 17.6831C13.6841 17.8004 13.75 17.9593 13.75 18.1251ZM16.875 8.12508C16.8777 9.16698 16.6423 10.1957 16.1868 11.1328C15.7313 12.0698 15.0677 12.8904 14.2467 13.532C14.0934 13.6494 13.969 13.8004 13.8829 13.9733C13.7968 14.1461 13.7514 14.3364 13.75 14.5295V15.0001C13.7496 15.3315 13.6178 15.6492 13.3835 15.8835C13.1491 16.1179 12.8314 16.2497 12.5 16.2501H7.49999C7.16859 16.2497 6.85087 16.1179 6.61653 15.8835C6.38219 15.6492 6.25037 15.3315 6.24999 15.0001V14.5289C6.24974 14.3378 6.20574 14.1494 6.12137 13.9779C6.03701 13.8065 5.91451 13.6567 5.76327 13.5399C4.94469 12.9025 4.2818 12.0872 3.82475 11.1558C3.36769 10.2244 3.12845 9.20125 3.1251 8.16376C3.10454 4.44016 6.11438 1.33957 9.83455 1.25199C10.751 1.22995 11.6627 1.39143 12.5159 1.72693C13.369 2.06242 14.1465 2.56517 14.8025 3.20557C15.4585 3.84598 15.9798 4.61111 16.3357 5.45596C16.6916 6.30082 16.875 7.20832 16.875 8.12508ZM12.9419 8.30811C12.8247 8.19094 12.6657 8.12512 12.5 8.12512C12.3342 8.12512 12.1753 8.19094 12.0581 8.30811L9.99999 10.3662L7.94193 8.30811C7.82471 8.1909 7.66573 8.12506 7.49997 8.12507C7.3342 8.12507 7.17523 8.19093 7.05802 8.30815C6.94081 8.42537 6.87497 8.58434 6.87498 8.75011C6.87499 8.91587 6.94084 9.07484 7.05806 9.19205L9.37499 11.509V14.3751C9.37499 14.5408 9.44084 14.6998 9.55805 14.817C9.67526 14.9342 9.83423 15.0001 9.99999 15.0001C10.1658 15.0001 10.3247 14.9342 10.4419 14.817C10.5591 14.6998 10.625 14.5408 10.625 14.3751V11.509L12.9419 9.19205C13 9.13401 13.046 9.06511 13.0774 8.98928C13.1088 8.91344 13.125 8.83216 13.125 8.75008C13.125 8.668 13.1088 8.58672 13.0774 8.51089C13.046 8.43505 13 8.36615 12.9419 8.30811Z" fill="#949494"/>
</svg>
