<svg width="16" height="16" viewBox="0 0 16 16" fill="none" xmlns="http://www.w3.org/2000/svg">
<path d="M13.4961 7.5H8.49609V2.5C8.49609 2.36739 8.44342 2.24021 8.34965 2.14645C8.25588 2.05268 8.1287 2 7.99609 2C7.86349 2 7.73631 2.05268 7.64254 2.14645C7.54877 2.24021 7.49609 2.36739 7.49609 2.5V7.5H2.49609C2.36349 7.5 2.23631 7.55268 2.14254 7.64645C2.04877 7.74021 1.99609 7.86739 1.99609 8C1.99609 8.13261 2.04877 8.25979 2.14254 8.35355C2.23631 8.44732 2.36349 8.5 2.49609 8.5H7.49609V13.5C7.49609 13.6326 7.54877 13.7598 7.64254 13.8536C7.73631 13.9473 7.86349 14 7.99609 14C8.1287 14 8.25588 13.9473 8.34965 13.8536C8.44342 13.7598 8.49609 13.6326 8.49609 13.5V8.5H13.4961C13.6287 8.5 13.7559 8.44732 13.8496 8.35355C13.9434 8.25979 13.9961 8.13261 13.9961 8C13.9961 7.86739 13.9434 7.74021 13.8496 7.64645C13.7559 7.55268 13.6287 7.5 13.4961 7.5Z" fill="black"/>
</svg>
