<svg width="20" height="20" viewBox="0 0 20 20" fill="none" xmlns="http://www.w3.org/2000/svg">
<path d="M0.943848 8.66764L9.69385 13.6676C9.78828 13.7216 9.89515 13.75 10.0039 13.75C10.1127 13.75 10.2195 13.7216 10.314 13.6676L19.064 8.66764C19.1596 8.61297 19.2392 8.53399 19.2945 8.43868C19.3498 8.34338 19.3789 8.23515 19.3789 8.12496C19.3789 8.01477 19.3498 7.90654 19.2945 7.81124C19.2392 7.71594 19.1596 7.63695 19.064 7.58228L10.314 2.58228C10.2195 2.52836 10.1127 2.5 10.0039 2.5C9.89516 2.5 9.78829 2.52836 9.69385 2.58228L0.943848 7.58228C0.848175 7.63695 0.768654 7.71594 0.713345 7.81124C0.658037 7.90654 0.628906 8.01477 0.628906 8.12496C0.628906 8.23515 0.658037 8.34338 0.713345 8.43868C0.768654 8.53399 0.848175 8.61297 0.943848 8.66764Z" fill="#949494"/>
<path d="M18.4439 10.7073L10.0039 15.5302L1.56397 10.7073C1.49271 10.6666 1.41412 10.6403 1.3327 10.63C1.25128 10.6196 1.16861 10.6254 1.08943 10.647C1.01024 10.6686 0.93609 10.7056 0.8712 10.7559C0.80631 10.8061 0.751954 10.8687 0.711237 10.94C0.670519 11.0112 0.644237 11.0898 0.633891 11.1712C0.623546 11.2526 0.629338 11.3353 0.650939 11.4145C0.67254 11.4937 0.709526 11.5678 0.759785 11.6327C0.810044 11.6976 0.872591 11.752 0.943857 11.7927L9.69386 16.7927C9.78829 16.8466 9.89516 16.875 10.0039 16.875C10.1127 16.875 10.2195 16.8466 10.314 16.7927L19.064 11.7927C19.1352 11.752 19.1978 11.6976 19.248 11.6327C19.2983 11.5678 19.3353 11.4937 19.3569 11.4145C19.3785 11.3353 19.3843 11.2526 19.3739 11.1712C19.3636 11.0898 19.3373 11.0112 19.2966 10.94C19.2559 10.8687 19.2015 10.8061 19.1366 10.7559C19.0717 10.7056 18.9976 10.6686 18.9184 10.647C18.8392 10.6254 18.7566 10.6196 18.6751 10.63C18.5937 10.6403 18.5151 10.6666 18.4439 10.7073Z" fill="#949494"/>
</svg>
