<svg width="16" height="16" viewBox="0 0 16 16" fill="none" xmlns="http://www.w3.org/2000/svg">
<path d="M10.5 14C10.5 14.1326 10.4473 14.2598 10.3535 14.3535C10.2598 14.4473 10.1326 14.5 10 14.5H6C5.86739 14.5 5.74021 14.4473 5.64645 14.3536C5.55268 14.2598 5.5 14.1326 5.5 14C5.5 13.8674 5.55268 13.7402 5.64645 13.6464C5.74021 13.5527 5.86739 13.5 6 13.5H10C10.1326 13.5 10.2598 13.5527 10.3535 13.6465C10.4473 13.7402 10.5 13.8674 10.5 14ZM14.5 4V11C14.4995 11.3977 14.3414 11.779 14.0602 12.0602C13.779 12.3414 13.3977 12.4995 13 12.5H3C2.60231 12.4995 2.22105 12.3414 1.93984 12.0602C1.65864 11.779 1.50045 11.3977 1.5 11V4C1.50045 3.60231 1.65864 3.22105 1.93984 2.93984C2.22105 2.65864 2.60231 2.50045 3 2.5H13C13.3977 2.50045 13.779 2.65864 14.0602 2.93984C14.3414 3.22105 14.4995 3.60231 14.5 4ZM10.5 7.49998C10.4999 7.41769 10.4795 7.3367 10.4407 7.26414C10.4018 7.19159 10.3457 7.12971 10.2773 7.08397L7.27734 5.08397C7.20206 5.03368 7.11454 5.00479 7.02411 5.00038C6.93369 4.99597 6.84376 5.0162 6.76395 5.05892C6.68413 5.10164 6.61741 5.16523 6.57092 5.24292C6.52443 5.3206 6.49992 5.40945 6.5 5.49998V9.49998C6.5 9.59048 6.52456 9.67929 6.57106 9.75693C6.61757 9.83456 6.68427 9.89812 6.76407 9.94083C6.84386 9.98353 6.93374 10.0038 7.02414 9.9994C7.11453 9.99503 7.20205 9.9662 7.27734 9.916L10.2773 7.916C10.3457 7.87026 10.4018 7.80838 10.4407 7.73582C10.4795 7.66327 10.4999 7.58228 10.5 7.49998Z" fill="#949494"/>
</svg>
