<svg width="20" height="20" viewBox="0 0 20 20" fill="none" xmlns="http://www.w3.org/2000/svg">
<g clip-path="url(#clip0_4024_2249)">
<g filter="url(#filter0_d_4024_2249)">
<path d="M16.25 2.5H14.375V1.875C14.375 1.70924 14.3092 1.55027 14.1919 1.43306C14.0747 1.31585 13.9158 1.25 13.75 1.25C13.5842 1.25 13.4253 1.31585 13.3081 1.43306C13.1908 1.55027 13.125 1.70924 13.125 1.875V2.5H6.875V1.875C6.875 1.70924 6.80915 1.55027 6.69194 1.43306C6.57473 1.31585 6.41576 1.25 6.25 1.25C6.08424 1.25 5.92527 1.31585 5.80806 1.43306C5.69085 1.55027 5.625 1.70924 5.625 1.875V2.5H3.75C3.41848 2.5 3.10054 2.6317 2.86612 2.86612C2.6317 3.10054 2.5 3.41848 2.5 3.75V16.25C2.5 16.5815 2.6317 16.8995 2.86612 17.1339C3.10054 17.3683 3.41848 17.5 3.75 17.5H16.25C16.5815 17.5 16.8995 17.3683 17.1339 17.1339C17.3683 16.8995 17.5 16.5815 17.5 16.25V3.75C17.5 3.41848 17.3683 3.10054 17.1339 2.86612C16.8995 2.6317 16.5815 2.5 16.25 2.5ZM6.5625 14.375C6.37708 14.375 6.19582 14.32 6.04165 14.217C5.88748 14.114 5.76732 13.9676 5.69636 13.7963C5.62541 13.625 5.60684 13.4365 5.64301 13.2546C5.67919 13.0727 5.76848 12.9057 5.89959 12.7746C6.0307 12.6435 6.19775 12.5542 6.3796 12.518C6.56146 12.4818 6.74996 12.5004 6.92127 12.5714C7.09257 12.6423 7.23899 12.7625 7.342 12.9167C7.44502 13.0708 7.5 13.2521 7.5 13.4375C7.5 13.6861 7.40123 13.9246 7.22541 14.1004C7.0496 14.2762 6.81114 14.375 6.5625 14.375ZM10 14.375C9.81458 14.375 9.63332 14.32 9.47915 14.217C9.32498 14.114 9.20482 13.9676 9.13386 13.7963C9.06291 13.625 9.04434 13.4365 9.08051 13.2546C9.11669 13.0727 9.20598 12.9057 9.33709 12.7746C9.4682 12.6435 9.63525 12.5542 9.8171 12.518C9.99896 12.4818 10.1875 12.5004 10.3588 12.5714C10.5301 12.6423 10.6765 12.7625 10.7795 12.9167C10.8825 13.0708 10.9375 13.2521 10.9375 13.4375C10.9375 13.6861 10.8387 13.9246 10.6629 14.1004C10.4871 14.2762 10.2486 14.375 10 14.375ZM10 11.25C9.81458 11.25 9.63332 11.195 9.47915 11.092C9.32498 10.989 9.20482 10.8426 9.13386 10.6713C9.06291 10.5 9.04434 10.3115 9.08051 10.1296C9.11669 9.94775 9.20598 9.7807 9.33709 9.64959C9.4682 9.51848 9.63525 9.42919 9.8171 9.39301C9.99896 9.35684 10.1875 9.37541 10.3588 9.44636C10.5301 9.51732 10.6765 9.63748 10.7795 9.79165C10.8825 9.94582 10.9375 10.1271 10.9375 10.3125C10.9375 10.5611 10.8387 10.7996 10.6629 10.9754C10.4871 11.1512 10.2486 11.25 10 11.25ZM13.4375 14.375C13.2521 14.375 13.0708 14.32 12.9167 14.217C12.7625 14.114 12.6423 13.9676 12.5714 13.7963C12.5004 13.625 12.4818 13.4365 12.518 13.2546C12.5542 13.0727 12.6435 12.9057 12.7746 12.7746C12.9057 12.6435 13.0727 12.5542 13.2546 12.518C13.4365 12.4818 13.625 12.5004 13.7963 12.5714C13.9676 12.6423 14.114 12.7625 14.217 12.9167C14.32 13.0708 14.375 13.2521 14.375 13.4375C14.375 13.6861 14.2762 13.9246 14.1004 14.1004C13.9246 14.2762 13.6861 14.375 13.4375 14.375ZM13.4375 11.25C13.2521 11.25 13.0708 11.195 12.9167 11.092C12.7625 10.989 12.6423 10.8426 12.5714 10.6713C12.5004 10.5 12.4818 10.3115 12.518 10.1296C12.5542 9.94775 12.6435 9.7807 12.7746 9.64959C12.9057 9.51848 13.0727 9.42919 13.2546 9.39301C13.4365 9.35684 13.625 9.37541 13.7963 9.44636C13.9676 9.51732 14.114 9.63748 14.217 9.79165C14.32 9.94582 14.375 10.1271 14.375 10.3125C14.375 10.5611 14.2762 10.7996 14.1004 10.9754C13.9246 11.1512 13.6861 11.25 13.4375 11.25ZM16.25 6.25H3.75V3.75H5.625V4.375C5.625 4.54076 5.69085 4.69973 5.80806 4.81694C5.92527 4.93415 6.08424 5 6.25 5C6.41576 5 6.57473 4.93415 6.69194 4.81694C6.80915 4.69973 6.875 4.54076 6.875 4.375V3.75H13.125V4.375C13.125 4.54076 13.1908 4.69973 13.3081 4.81694C13.4253 4.93415 13.5842 5 13.75 5C13.9158 5 14.0747 4.93415 14.1919 4.81694C14.3092 4.69973 14.375 4.54076 14.375 4.375V3.75H16.25V6.25Z" fill="black"/>
<path d="M16.25 2.5H14.375V1.875C14.375 1.70924 14.3092 1.55027 14.1919 1.43306C14.0747 1.31585 13.9158 1.25 13.75 1.25C13.5842 1.25 13.4253 1.31585 13.3081 1.43306C13.1908 1.55027 13.125 1.70924 13.125 1.875V2.5H6.875V1.875C6.875 1.70924 6.80915 1.55027 6.69194 1.43306C6.57473 1.31585 6.41576 1.25 6.25 1.25C6.08424 1.25 5.92527 1.31585 5.80806 1.43306C5.69085 1.55027 5.625 1.70924 5.625 1.875V2.5H3.75C3.41848 2.5 3.10054 2.6317 2.86612 2.86612C2.6317 3.10054 2.5 3.41848 2.5 3.75V16.25C2.5 16.5815 2.6317 16.8995 2.86612 17.1339C3.10054 17.3683 3.41848 17.5 3.75 17.5H16.25C16.5815 17.5 16.8995 17.3683 17.1339 17.1339C17.3683 16.8995 17.5 16.5815 17.5 16.25V3.75C17.5 3.41848 17.3683 3.10054 17.1339 2.86612C16.8995 2.6317 16.5815 2.5 16.25 2.5ZM6.5625 14.375C6.37708 14.375 6.19582 14.32 6.04165 14.217C5.88748 14.114 5.76732 13.9676 5.69636 13.7963C5.62541 13.625 5.60684 13.4365 5.64301 13.2546C5.67919 13.0727 5.76848 12.9057 5.89959 12.7746C6.0307 12.6435 6.19775 12.5542 6.3796 12.518C6.56146 12.4818 6.74996 12.5004 6.92127 12.5714C7.09257 12.6423 7.23899 12.7625 7.342 12.9167C7.44502 13.0708 7.5 13.2521 7.5 13.4375C7.5 13.6861 7.40123 13.9246 7.22541 14.1004C7.0496 14.2762 6.81114 14.375 6.5625 14.375ZM10 14.375C9.81458 14.375 9.63332 14.32 9.47915 14.217C9.32498 14.114 9.20482 13.9676 9.13386 13.7963C9.06291 13.625 9.04434 13.4365 9.08051 13.2546C9.11669 13.0727 9.20598 12.9057 9.33709 12.7746C9.4682 12.6435 9.63525 12.5542 9.8171 12.518C9.99896 12.4818 10.1875 12.5004 10.3588 12.5714C10.5301 12.6423 10.6765 12.7625 10.7795 12.9167C10.8825 13.0708 10.9375 13.2521 10.9375 13.4375C10.9375 13.6861 10.8387 13.9246 10.6629 14.1004C10.4871 14.2762 10.2486 14.375 10 14.375ZM10 11.25C9.81458 11.25 9.63332 11.195 9.47915 11.092C9.32498 10.989 9.20482 10.8426 9.13386 10.6713C9.06291 10.5 9.04434 10.3115 9.08051 10.1296C9.11669 9.94775 9.20598 9.7807 9.33709 9.64959C9.4682 9.51848 9.63525 9.42919 9.8171 9.39301C9.99896 9.35684 10.1875 9.37541 10.3588 9.44636C10.5301 9.51732 10.6765 9.63748 10.7795 9.79165C10.8825 9.94582 10.9375 10.1271 10.9375 10.3125C10.9375 10.5611 10.8387 10.7996 10.6629 10.9754C10.4871 11.1512 10.2486 11.25 10 11.25ZM13.4375 14.375C13.2521 14.375 13.0708 14.32 12.9167 14.217C12.7625 14.114 12.6423 13.9676 12.5714 13.7963C12.5004 13.625 12.4818 13.4365 12.518 13.2546C12.5542 13.0727 12.6435 12.9057 12.7746 12.7746C12.9057 12.6435 13.0727 12.5542 13.2546 12.518C13.4365 12.4818 13.625 12.5004 13.7963 12.5714C13.9676 12.6423 14.114 12.7625 14.217 12.9167C14.32 13.0708 14.375 13.2521 14.375 13.4375C14.375 13.6861 14.2762 13.9246 14.1004 14.1004C13.9246 14.2762 13.6861 14.375 13.4375 14.375ZM13.4375 11.25C13.2521 11.25 13.0708 11.195 12.9167 11.092C12.7625 10.989 12.6423 10.8426 12.5714 10.6713C12.5004 10.5 12.4818 10.3115 12.518 10.1296C12.5542 9.94775 12.6435 9.7807 12.7746 9.64959C12.9057 9.51848 13.0727 9.42919 13.2546 9.39301C13.4365 9.35684 13.625 9.37541 13.7963 9.44636C13.9676 9.51732 14.114 9.63748 14.217 9.79165C14.32 9.94582 14.375 10.1271 14.375 10.3125C14.375 10.5611 14.2762 10.7996 14.1004 10.9754C13.9246 11.1512 13.6861 11.25 13.4375 11.25ZM16.25 6.25H3.75V3.75H5.625V4.375C5.625 4.54076 5.69085 4.69973 5.80806 4.81694C5.92527 4.93415 6.08424 5 6.25 5C6.41576 5 6.57473 4.93415 6.69194 4.81694C6.80915 4.69973 6.875 4.54076 6.875 4.375V3.75H13.125V4.375C13.125 4.54076 13.1908 4.69973 13.3081 4.81694C13.4253 4.93415 13.5842 5 13.75 5C13.9158 5 14.0747 4.93415 14.1919 4.81694C14.3092 4.69973 14.375 4.54076 14.375 4.375V3.75H16.25V6.25Z" fill="url(#paint0_linear_4024_2249)"/>
</g>
</g>
<defs>
<filter id="filter0_d_4024_2249" x="-1.5" y="1.25" width="23" height="24.25" filterUnits="userSpaceOnUse" color-interpolation-filters="sRGB">
<feFlood flood-opacity="0" result="BackgroundImageFix"/>
<feColorMatrix in="SourceAlpha" type="matrix" values="0 0 0 0 0 0 0 0 0 0 0 0 0 0 0 0 0 0 127 0" result="hardAlpha"/>
<feOffset dy="4"/>
<feGaussianBlur stdDeviation="2"/>
<feComposite in2="hardAlpha" operator="out"/>
<feColorMatrix type="matrix" values="0 0 0 0 0.792157 0 0 0 0 0.992157 0 0 0 0 0.364706 0 0 0 0.5 0"/>
<feBlend mode="normal" in2="BackgroundImageFix" result="effect1_dropShadow_4024_2249"/>
<feBlend mode="normal" in="SourceGraphic" in2="effect1_dropShadow_4024_2249" result="shape"/>
</filter>
<linearGradient id="paint0_linear_4024_2249" x1="10" y1="1.25" x2="10" y2="17.5" gradientUnits="userSpaceOnUse">
<stop stop-color="#CAFD5D"/>
<stop offset="1" stop-color="#7FD400"/>
</linearGradient>
<clipPath id="clip0_4024_2249">
<rect width="20" height="20" fill="white"/>
</clipPath>
</defs>
</svg>
