<svg width="20" height="20" viewBox="0 0 20 20" fill="none" xmlns="http://www.w3.org/2000/svg">
<path d="M10 5.625C9.83424 5.625 9.67527 5.69085 9.55806 5.80806C9.44085 5.92527 9.375 6.08424 9.375 6.25V10C9.375 10.0057 9.37569 10.0112 9.37584 10.0168C9.37622 10.0294 9.37664 10.042 9.37775 10.0545C9.37859 10.0642 9.37988 10.0737 9.38118 10.0832C9.38255 10.0933 9.38393 10.1034 9.3858 10.1135C9.38782 10.1246 9.39034 10.1355 9.39293 10.1463C9.39499 10.1548 9.39705 10.1632 9.39941 10.1715C9.40266 10.183 9.40632 10.1942 9.41021 10.2053C9.41296 10.2132 9.41578 10.2211 9.41883 10.2289C9.42306 10.2396 9.4276 10.25 9.43237 10.2604C9.43615 10.2687 9.44008 10.2769 9.44424 10.2851C9.44897 10.2943 9.45396 10.3033 9.45911 10.3122C9.4643 10.3212 9.46964 10.3301 9.47529 10.3388C9.48021 10.3465 9.48536 10.3539 9.49062 10.3613C9.49726 10.3707 9.50409 10.3799 9.51126 10.389C9.51645 10.3954 9.52179 10.4017 9.5272 10.408C9.53498 10.417 9.54292 10.4259 9.55127 10.4345C9.55722 10.4406 9.56337 10.4465 9.56955 10.4524C9.57775 10.4602 9.58603 10.4679 9.59476 10.4753C9.60239 10.4818 9.61033 10.488 9.6183 10.4941C9.62604 10.5001 9.63375 10.5061 9.64184 10.5117C9.65198 10.5189 9.66255 10.5255 9.67315 10.532C9.67804 10.535 9.6825 10.5384 9.6875 10.5413L12.9351 12.4163C13.0787 12.4992 13.2493 12.5216 13.4094 12.4787C13.5695 12.4358 13.706 12.3311 13.7889 12.1875C13.8717 12.044 13.8942 11.8734 13.8513 11.7132C13.8084 11.5531 13.7037 11.4166 13.5601 11.3337L10.625 9.63915V6.25C10.625 6.08424 10.5591 5.92527 10.4419 5.80806C10.3247 5.69085 10.1658 5.625 10 5.625Z" fill="#949494"/>
<path d="M15.3046 4.69662C13.8969 3.29217 11.9897 2.50342 10.0013 2.50342C8.01284 2.50342 6.1056 3.29217 4.69798 4.69662L3.11328 6.28133V4.66523C3.11328 4.49947 3.04743 4.34049 2.93022 4.22328C2.81301 4.10607 2.65404 4.04023 2.48828 4.04023C2.32252 4.04023 2.16355 4.10607 2.04634 4.22328C1.92913 4.34049 1.86328 4.49947 1.86328 4.66523V7.79023L1.86336 7.79196C1.86344 7.81195 1.86445 7.83191 1.86641 7.85184C1.86733 7.86131 1.86908 7.87051 1.87042 7.87985C1.87202 7.89069 1.87324 7.90155 1.87538 7.91231C1.87751 7.92296 1.88041 7.93328 1.88308 7.94372C1.88541 7.95301 1.88743 7.96237 1.89021 7.97157C1.89334 7.98189 1.8972 7.99186 1.90086 8.00194C1.90414 8.01107 1.90711 8.02027 1.91085 8.02928C1.91474 8.03871 1.91932 8.04775 1.92367 8.05695C1.9281 8.06625 1.93221 8.07563 1.9371 8.08475C1.94183 8.09363 1.94724 8.10208 1.95243 8.1107C1.9577 8.11954 1.96269 8.1285 1.96845 8.13713C1.97498 8.14684 1.98219 8.15599 1.98921 8.1653C1.99443 8.17228 1.99928 8.17946 2.00489 8.18627C2.03107 8.21821 2.06034 8.24748 2.09228 8.27366C2.09896 8.27915 2.10601 8.2839 2.11288 8.28907C2.1223 8.29618 2.13157 8.30347 2.14141 8.31005C2.14992 8.31573 2.15873 8.32065 2.16747 8.32587C2.1762 8.33113 2.18482 8.33662 2.19383 8.34146C2.20279 8.34624 2.21199 8.35027 2.2211 8.35459C2.23045 8.35903 2.23968 8.36369 2.24929 8.36768C2.2581 8.37131 2.26707 8.37423 2.276 8.37745C2.2863 8.38117 2.29652 8.38512 2.30705 8.38831C2.31594 8.39099 2.32494 8.39294 2.3339 8.39522C2.34466 8.39796 2.35534 8.40096 2.36632 8.40313C2.37655 8.40515 2.38685 8.40633 2.39711 8.40783C2.40703 8.40928 2.41675 8.41113 2.42682 8.41212C2.44498 8.4139 2.46321 8.41468 2.48145 8.41488C2.48374 8.4149 2.48595 8.41522 2.48828 8.41522H5.61328C5.77904 8.41522 5.93801 8.34937 6.05522 8.23216C6.17243 8.11495 6.23828 7.95598 6.23828 7.79022C6.23828 7.62446 6.17243 7.46549 6.05522 7.34828C5.93801 7.23107 5.77904 7.16522 5.61328 7.16522H3.99715L5.58189 5.58049C6.45597 4.7064 7.56961 4.11114 8.782 3.86998C9.99438 3.62882 11.2511 3.75259 12.3931 4.22564C13.5351 4.69869 14.5113 5.49977 15.198 6.52758C15.8848 7.55539 16.2513 8.76377 16.2513 9.99991C16.2513 11.236 15.8848 12.4444 15.198 13.4722C14.5113 14.5 13.5351 15.3011 12.3931 15.7742C11.2511 16.2472 9.99438 16.371 8.782 16.1298C7.56961 15.8887 6.45597 15.2934 5.58189 14.4193C5.52385 14.3613 5.45494 14.3153 5.37911 14.2838C5.30328 14.2524 5.222 14.2363 5.13992 14.2363C5.05784 14.2363 4.97656 14.2524 4.90073 14.2839C4.8249 14.3153 4.756 14.3613 4.69796 14.4193C4.63992 14.4774 4.59389 14.5463 4.56248 14.6221C4.53107 14.698 4.5149 14.7792 4.5149 14.8613C4.51491 14.9434 4.53107 15.0247 4.56249 15.1005C4.5939 15.1763 4.63994 15.2452 4.69798 15.3033C6.10451 16.7098 8.01217 17.5 10.0013 17.5C11.9904 17.4999 13.8981 16.7098 15.3046 15.3032C16.7111 13.8967 17.5013 11.989 17.5013 9.99992C17.5013 8.0108 16.7111 6.10314 15.3046 4.69662Z" fill="#949494"/>
</svg>
