<svg width="22" height="19" viewBox="0 0 22 19" fill="none" xmlns="http://www.w3.org/2000/svg">
<g filter="url(#filter0_d_2064_3036)">
<path d="M10.8124 8.09784C10.9074 8.04299 10.9863 7.9641 11.0412 7.8691C11.096 7.77409 11.1249 7.66632 11.1249 7.55661V1.92673C11.1249 1.82675 11.1009 1.72823 11.0549 1.63944C11.009 1.55065 10.9424 1.47419 10.8608 1.41646C10.7791 1.35874 10.6848 1.32144 10.5858 1.30769C10.4868 1.29395 10.3859 1.30416 10.2916 1.33747C8.4671 1.98465 6.9331 3.26115 5.96515 4.93768C4.99719 6.61422 4.6587 8.58095 5.01048 10.4846C5.02864 10.583 5.07016 10.6756 5.13155 10.7546C5.19293 10.8336 5.27239 10.8967 5.36323 10.9386C5.45408 10.9805 5.55366 11 5.6536 10.9954C5.75355 10.9909 5.85093 10.9624 5.93757 10.9123L10.8124 8.09784ZM9.8749 2.87415V7.19574L6.1341 9.35547C6.12807 9.23714 6.12504 9.11863 6.12502 8.99994C6.12639 7.7328 6.47715 6.49057 7.13872 5.40984C7.80028 4.3291 8.74704 3.45172 9.8749 2.87415Z" fill="black"/>
<path d="M10.8124 8.09784C10.9074 8.04299 10.9863 7.9641 11.0412 7.8691C11.096 7.77409 11.1249 7.66632 11.1249 7.55661V1.92673C11.1249 1.82675 11.1009 1.72823 11.0549 1.63944C11.009 1.55065 10.9424 1.47419 10.8608 1.41646C10.7791 1.35874 10.6848 1.32144 10.5858 1.30769C10.4868 1.29395 10.3859 1.30416 10.2916 1.33747C8.4671 1.98465 6.9331 3.26115 5.96515 4.93768C4.99719 6.61422 4.6587 8.58095 5.01048 10.4846C5.02864 10.583 5.07016 10.6756 5.13155 10.7546C5.19293 10.8336 5.27239 10.8967 5.36323 10.9386C5.45408 10.9805 5.55366 11 5.6536 10.9954C5.75355 10.9909 5.85093 10.9624 5.93757 10.9123L10.8124 8.09784ZM9.8749 2.87415V7.19574L6.1341 9.35547C6.12807 9.23714 6.12504 9.11863 6.12502 8.99994C6.12639 7.7328 6.47715 6.49057 7.13872 5.40984C7.80028 4.3291 8.74704 3.45172 9.8749 2.87415Z" fill="url(#paint0_linear_2064_3036)"/>
</g>
<path d="M20.0515 4.96867C20.0463 4.95825 20.0415 4.94772 20.0356 4.9375C20.0276 4.92369 20.0187 4.91076 20.0099 4.89783C19.2937 3.67408 18.2698 2.65897 17.0399 1.95328C15.8101 1.24758 14.417 0.875854 12.9991 0.875C12.8333 0.875002 12.6744 0.94085 12.5572 1.05806C12.44 1.17527 12.3741 1.33424 12.3741 1.5V8.63917L6.1914 12.2087C6.04785 12.2916 5.94311 12.4281 5.90021 12.5882C5.8573 12.7484 5.87976 12.9189 5.96263 13.0625C5.96526 13.067 5.96856 13.0709 5.97129 13.0754C5.97819 13.0894 5.98505 13.1034 5.99311 13.1171C6.89682 14.6544 8.28113 15.8518 9.93261 16.5245C11.5841 17.1973 13.411 17.3081 15.1317 16.8399C16.8524 16.3717 18.3713 15.3505 19.4542 13.9337C20.5371 12.5169 21.1239 10.7833 21.1241 9C21.1258 7.58548 20.756 6.19531 20.0515 4.96867Z" fill="black"/>
<path d="M20.0515 4.96867C20.0463 4.95825 20.0415 4.94772 20.0356 4.9375C20.0276 4.92369 20.0187 4.91076 20.0099 4.89783C19.2937 3.67408 18.2698 2.65897 17.0399 1.95328C15.8101 1.24758 14.417 0.875854 12.9991 0.875C12.8333 0.875002 12.6744 0.94085 12.5572 1.05806C12.44 1.17527 12.3741 1.33424 12.3741 1.5V8.63917L6.1914 12.2087C6.04785 12.2916 5.94311 12.4281 5.90021 12.5882C5.8573 12.7484 5.87976 12.9189 5.96263 13.0625C5.96526 13.067 5.96856 13.0709 5.97129 13.0754C5.97819 13.0894 5.98505 13.1034 5.99311 13.1171C6.89682 14.6544 8.28113 15.8518 9.93261 16.5245C11.5841 17.1973 13.411 17.3081 15.1317 16.8399C16.8524 16.3717 18.3713 15.3505 19.4542 13.9337C20.5371 12.5169 21.1239 10.7833 21.1241 9C21.1258 7.58548 20.756 6.19531 20.0515 4.96867Z" fill="url(#paint1_linear_2064_3036)"/>
<defs>
<filter id="filter0_d_2064_3036" x="0.875" y="1.30176" width="14.25" height="17.6943" filterUnits="userSpaceOnUse" color-interpolation-filters="sRGB">
<feFlood flood-opacity="0" result="BackgroundImageFix"/>
<feColorMatrix in="SourceAlpha" type="matrix" values="0 0 0 0 0 0 0 0 0 0 0 0 0 0 0 0 0 0 127 0" result="hardAlpha"/>
<feOffset dy="4"/>
<feGaussianBlur stdDeviation="2"/>
<feComposite in2="hardAlpha" operator="out"/>
<feColorMatrix type="matrix" values="0 0 0 0 0.792157 0 0 0 0 0.992157 0 0 0 0 0.364706 0 0 0 0.5 0"/>
<feBlend mode="normal" in2="BackgroundImageFix" result="effect1_dropShadow_2064_3036"/>
<feBlend mode="normal" in="SourceGraphic" in2="effect1_dropShadow_2064_3036" result="shape"/>
</filter>
<linearGradient id="paint0_linear_2064_3036" x1="7.99995" y1="1.30176" x2="7.99995" y2="10.9961" gradientUnits="userSpaceOnUse">
<stop stop-color="#CAFD5D"/>
<stop offset="1" stop-color="#7FD400"/>
</linearGradient>
<linearGradient id="paint1_linear_2064_3036" x1="13.5015" y1="0.875" x2="13.5015" y2="17.125" gradientUnits="userSpaceOnUse">
<stop stop-color="#CAFD5D"/>
<stop offset="1" stop-color="#7FD400"/>
</linearGradient>
</defs>
</svg>
