<svg width="18" height="20" viewBox="0 0 18 20" fill="none" xmlns="http://www.w3.org/2000/svg">
<path d="M15.75 0.25H2.25C1.85231 0.250455 1.47105 0.408636 1.18984 0.689842C0.908636 0.971048 0.750455 1.35231 0.75 1.75V18.25C0.750455 18.6477 0.908636 19.029 1.18984 19.3102C1.47105 19.5914 1.85231 19.7495 2.25 19.75H15.75C16.1477 19.7495 16.529 19.5914 16.8102 19.3102C17.0914 19.029 17.2495 18.6477 17.25 18.25V1.75C17.2495 1.35231 17.0914 0.971048 16.8102 0.689842C16.529 0.408636 16.1477 0.250455 15.75 0.25ZM5.25 16.7493C5.0275 16.7493 4.80999 16.6833 4.62498 16.5597C4.43998 16.4361 4.29578 16.2604 4.21064 16.0548C4.12549 15.8492 4.10321 15.623 4.14662 15.4048C4.19002 15.1866 4.29717 14.9861 4.4545 14.8288C4.61184 14.6714 4.81229 14.5643 5.03052 14.5209C5.24875 14.4775 5.47495 14.4998 5.68052 14.5849C5.88609 14.6701 6.06179 14.8142 6.1854 14.9993C6.30902 15.1843 6.375 15.4018 6.375 15.6243C6.37466 15.9225 6.25602 16.2085 6.04512 16.4194C5.83421 16.6303 5.54826 16.7489 5.25 16.7493ZM5.25 12.9993C5.0275 12.9993 4.80999 12.9333 4.62498 12.8097C4.43998 12.6861 4.29578 12.5104 4.21064 12.3048C4.12549 12.0992 4.10321 11.873 4.14662 11.6548C4.19002 11.4366 4.29717 11.2361 4.4545 11.0788C4.61184 10.9214 4.81229 10.8143 5.03052 10.7709C5.24875 10.7275 5.47495 10.7498 5.68052 10.8349C5.88609 10.9201 6.06179 11.0642 6.1854 11.2493C6.30902 11.4343 6.375 11.6518 6.375 11.8743C6.37466 12.1725 6.25602 12.4585 6.04512 12.6694C5.83421 12.8803 5.54826 12.9989 5.25 12.9993ZM9 16.7493C8.7775 16.7493 8.55999 16.6833 8.37498 16.5597C8.18998 16.4361 8.04578 16.2604 7.96064 16.0548C7.87549 15.8492 7.85321 15.623 7.89662 15.4048C7.94002 15.1866 8.04717 14.9861 8.2045 14.8288C8.36184 14.6714 8.56229 14.5643 8.78052 14.5209C8.99875 14.4775 9.22495 14.4998 9.43052 14.5849C9.63608 14.6701 9.81179 14.8142 9.9354 14.9993C10.059 15.1843 10.125 15.4018 10.125 15.6243C10.1247 15.9225 10.006 16.2085 9.79512 16.4194C9.58421 16.6303 9.29826 16.7489 9 16.7493ZM9 12.9993C8.7775 12.9993 8.55999 12.9333 8.37498 12.8097C8.18998 12.6861 8.04578 12.5104 7.96064 12.3048C7.87549 12.0992 7.85321 11.873 7.89662 11.6548C7.94002 11.4366 8.04717 11.2361 8.2045 11.0788C8.36184 10.9214 8.56229 10.8143 8.78052 10.7709C8.99875 10.7275 9.22495 10.7498 9.43052 10.8349C9.63608 10.9201 9.81179 11.0642 9.9354 11.2493C10.059 11.4343 10.125 11.6518 10.125 11.8743C10.1247 12.1725 10.006 12.4585 9.79512 12.6694C9.58421 12.8803 9.29826 12.9989 9 12.9993ZM12.75 16.7493C12.5275 16.7493 12.31 16.6833 12.125 16.5597C11.94 16.4361 11.7958 16.2604 11.7106 16.0548C11.6255 15.8492 11.6032 15.623 11.6466 15.4048C11.69 15.1866 11.7972 14.9861 11.9545 14.8288C12.1118 14.6714 12.3123 14.5643 12.5305 14.5209C12.7488 14.4775 12.975 14.4998 13.1805 14.5849C13.3861 14.6701 13.5618 14.8142 13.6854 14.9993C13.809 15.1843 13.875 15.4018 13.875 15.6243C13.8747 15.9225 13.756 16.2085 13.5451 16.4194C13.3342 16.6303 13.0483 16.7489 12.75 16.7493ZM12.75 12.9993C12.5275 12.9993 12.31 12.9333 12.125 12.8097C11.94 12.6861 11.7958 12.5104 11.7106 12.3048C11.6255 12.0992 11.6032 11.873 11.6466 11.6548C11.69 11.4366 11.7972 11.2361 11.9545 11.0788C12.1118 10.9214 12.3123 10.8143 12.5305 10.7709C12.7488 10.7275 12.975 10.7498 13.1805 10.8349C13.3861 10.9201 13.5618 11.0642 13.6854 11.2493C13.809 11.4343 13.875 11.6518 13.875 11.8743C13.8747 12.1725 13.756 12.4585 13.5451 12.6694C13.3342 12.8803 13.0483 12.9989 12.75 12.9993ZM14.25 7.74927C14.25 7.84776 14.2306 7.94529 14.1929 8.03628C14.1552 8.12728 14.1 8.20996 14.0303 8.2796C13.9607 8.34925 13.878 8.40449 13.787 8.44218C13.696 8.47987 13.5985 8.49927 13.5 8.49927H4.5C4.40151 8.49927 4.30398 8.47987 4.21298 8.44218C4.12199 8.40449 4.03931 8.34925 3.96966 8.2796C3.90002 8.20996 3.84477 8.12728 3.80708 8.03628C3.76939 7.94529 3.75 7.84776 3.75 7.74927V3.99927C3.75 3.90078 3.76939 3.80325 3.80708 3.71225C3.84477 3.62126 3.90002 3.53858 3.96966 3.46893C4.03931 3.39929 4.12199 3.34404 4.21298 3.30635C4.30398 3.26866 4.40151 3.24927 4.5 3.24927H13.5C13.5985 3.24927 13.696 3.26866 13.787 3.30635C13.878 3.34404 13.9607 3.39929 14.0303 3.46893C14.1 3.53858 14.1552 3.62126 14.1929 3.71225C14.2306 3.80325 14.25 3.90078 14.25 3.99927V7.74927Z" fill="black"/>
</svg>
